<svg width="24" height="24" viewBox="0 0 24 24" fill="none" xmlns="http://www.w3.org/2000/svg">
<g id="Frame">
<path id="Vector" d="M12.8054 2.42761C12.5382 2.40342 12.2701 2.39108 12.0019 2.39062C11.7285 2.39063 11.4613 2.40394 11.1977 2.42761C11.0981 2.43448 10.9986 2.44399 10.8995 2.45611V7.9617C10.8995 8.23437 11.1219 8.4574 11.3916 8.4574H12.543C12.8096 8.4574 13.0326 8.23437 13.0326 7.9617V2.4457L12.8054 2.42759M14.0962 2.6227V8.50041C14.0794 8.70483 13.9192 8.86826 13.7151 8.88886H12.606C12.5496 8.88919 12.4938 8.90063 12.4419 8.92253C12.3899 8.94442 12.3428 8.97634 12.3031 9.01645C12.2635 9.05658 12.2322 9.10413 12.2109 9.15638C12.1897 9.20864 12.179 9.26457 12.1794 9.32098V12.3371C12.1794 12.1099 12.3551 11.9226 12.5751 11.9075H14.6967C14.7107 11.9075 14.7234 11.9099 14.7368 11.9099C14.7495 11.9099 14.761 11.9074 14.7743 11.9074C14.8445 11.9007 14.912 11.8765 14.9704 11.837C15.0289 11.7976 15.0765 11.744 15.1089 11.6814L15.1149 11.6766C15.124 11.6584 15.1283 11.6377 15.1367 11.6147C15.1432 11.6036 15.1471 11.5912 15.1483 11.5784C15.1507 11.5662 15.1555 11.5572 15.1561 11.5499C15.1573 11.5257 15.1609 11.5062 15.1609 11.482V5.31277C17.6778 6.52488 19.4164 9.11433 19.4164 12.1208C19.4164 15.9156 16.6415 19.0548 13.0333 19.5784V15.3491H14.6974C14.7231 15.3534 14.7493 15.3534 14.775 15.3491C14.9948 15.3289 15.1625 15.1437 15.1609 14.9229V11.9014C15.1616 11.9575 15.1511 12.0133 15.1302 12.0654C15.1093 12.1175 15.0783 12.165 15.0391 12.2051C14.9998 12.2452 14.953 12.2772 14.9013 12.2993C14.8496 12.3213 14.7941 12.3329 14.738 12.3335H12.606C12.5495 12.3336 12.4936 12.345 12.4415 12.3669C12.3895 12.3887 12.3422 12.4207 12.3026 12.4609C12.2629 12.5011 12.2316 12.5488 12.2105 12.6012C12.1893 12.6536 12.1788 12.7097 12.1794 12.7662V15.3465H11.7504V12.7662C11.7513 12.7098 11.7411 12.6539 11.7202 12.6016C11.6994 12.5492 11.6684 12.5016 11.629 12.4613C11.5896 12.4211 11.5426 12.389 11.4907 12.3671C11.4388 12.3452 11.3831 12.3337 11.3267 12.3335H9.19845C9.14204 12.3332 9.08625 12.3218 9.03427 12.2999C8.98229 12.278 8.93513 12.2461 8.8955 12.2059C8.85587 12.1658 8.82455 12.1182 8.80331 12.066C8.78208 12.0137 8.77136 11.9578 8.77177 11.9014V14.9229C8.77177 15.1466 8.9445 15.3315 9.15907 15.349C9.18447 15.354 9.21059 15.354 9.23599 15.349H10.8995V19.5783C7.29122 19.0554 4.51509 15.9156 4.51509 12.1214C4.51509 9.11501 6.25556 6.52547 8.77111 5.31345V11.482C8.77111 11.5062 8.77352 11.5257 8.78027 11.5499L8.78325 11.5784C8.78693 11.5924 8.78934 11.6032 8.79534 11.6147C8.8008 11.6372 8.81114 11.6578 8.81836 11.6766L8.82511 11.6814C8.85672 11.7446 8.90404 11.7985 8.96252 11.8381C9.021 11.8777 9.08867 11.9016 9.15905 11.9075C9.17114 11.9075 9.18382 11.9099 9.19842 11.9099C9.20991 11.9099 9.22507 11.9075 9.23597 11.9075H11.3595C11.5827 11.9253 11.7538 12.1131 11.7509 12.3371V9.321C11.7517 9.26474 11.7414 9.20888 11.7205 9.15664C11.6996 9.1044 11.6685 9.05682 11.6292 9.01664C11.5898 8.97646 11.5428 8.94448 11.491 8.92255C11.4392 8.90063 11.3835 8.88918 11.3273 8.88888H10.2183C10.1191 8.87915 10.0264 8.83495 9.95646 8.76398C9.88649 8.69301 9.8436 8.59975 9.83527 8.50043V2.63789C5.58413 3.63176 2.41406 7.48537 2.41406 12.0856C2.41406 17.4379 6.70643 21.783 12.0019 21.783C17.2953 21.783 21.5859 17.438 21.5859 12.0856C21.5859 7.4618 18.3825 3.58997 14.0962 2.62273" fill="#009882"/>
</g>
</svg>
