<svg width="25" height="24" viewBox="0 0 25 24" fill="none" xmlns="http://www.w3.org/2000/svg">
<g id="bank-card-fill">
<path id="Vector" d="M22.5 10V20C22.5 20.2652 22.3946 20.5196 22.2071 20.7071C22.0196 20.8946 21.7652 21 21.5 21H3.5C3.23478 21 2.98043 20.8946 2.79289 20.7071C2.60536 20.5196 2.5 20.2652 2.5 20V10H22.5ZM22.5 8H2.5V4C2.5 3.73478 2.60536 3.48043 2.79289 3.29289C2.98043 3.10536 3.23478 3 3.5 3H21.5C21.7652 3 22.0196 3.10536 22.2071 3.29289C22.3946 3.48043 22.5 3.73478 22.5 4V8ZM15.5 16V18H19.5V16H15.5Z" fill="#3A7AFC"/>
</g>
</svg>
