<svg width="24" height="24" viewBox="0 0 24 24" fill="none" xmlns="http://www.w3.org/2000/svg">
<g id="Frame">
<path id="Vector" d="M21.6935 11.5854C21.5686 8.13666 19.4389 5.78649 19.4389 5.78649C16.1455 1.92188 11.9217 2.28235 11.9217 2.28235C7.41101 2.13807 4.63728 5.57133 4.63728 5.57133C2.73973 7.84662 2.52535 9.94339 2.52535 9.94339C1.68385 13.4649 3.4377 16.4998 3.4377 16.4998C4.74415 18.8841 6.12225 19.9873 8.35918 21.033C10.5966 22.0824 13.9981 21.9381 16.11 20.8725C18.2216 19.8055 19.5102 18.6315 20.6915 16.4104C21.8721 14.1873 21.6935 11.5854 21.6935 11.5854M11.0089 19.5893C11.0089 19.5893 7.46487 19.3909 5.5141 15.9577C5.5141 15.9577 3.83096 13.5364 4.52893 10.5197C5.22753 7.503 6.85618 6.29354 7.17889 5.98662C7.50101 5.68004 9.58625 4.42667 11.0089 4.44975V8.04521H9.50553C9.50553 8.04521 7.46497 8.17161 7.39329 10.4477V13.7719C7.39329 13.7719 7.44715 15.814 9.55904 16.0482H11.0089V19.5893M9.79116 13.935C9.79116 13.935 9.43374 14.0253 9.38018 13.6103V10.4305C9.38018 10.4305 9.43374 10.0875 9.70198 10.0875H14.1228C14.1228 10.0875 14.4994 10.0139 14.5347 10.4305V13.5193C14.5347 13.5193 14.6247 14.0072 14.2663 13.935H9.79118M18.401 16.2647C16.9687 18.4683 14.248 19.4808 12.9777 19.5893V16.0482H14.6599C14.6599 16.0482 16.4508 15.6874 16.5574 13.8079V10.0325C16.5574 10.0325 16.2699 8.13668 14.285 8.04521H12.9777V4.4506C12.9777 4.4506 15.2149 4.63046 17.0224 6.31142C18.8301 7.99111 19.295 9.67102 19.4925 10.5748C19.6891 11.4783 19.8324 14.0607 18.401 16.2647Z" fill="#9E1F31"/>
</g>
</svg>
