<svg width="20" height="20" viewBox="0 0 20 20" fill="none" xmlns="http://www.w3.org/2000/svg">
<g id="calendar-todo-line">
<path id="Vector" d="M7.50008 0.833496V2.50016H12.5001V0.833496H14.1667V2.50016H17.5001C17.9603 2.50016 18.3334 2.87326 18.3334 3.3335V16.6668C18.3334 17.1271 17.9603 17.5002 17.5001 17.5002H2.50008C2.03985 17.5002 1.66675 17.1271 1.66675 16.6668V3.3335C1.66675 2.87326 2.03985 2.50016 2.50008 2.50016H5.83342V0.833496H7.50008ZM16.6667 9.16683H3.33341V15.8335H16.6667V9.16683ZM6.66675 11.6668V13.3335H5.00008V11.6668H6.66675ZM15.0001 11.6668V13.3335H8.33342V11.6668H15.0001ZM5.83342 4.16683H3.33341V7.50016H16.6667V4.16683H14.1667V5.8335H12.5001V4.16683H7.50008V5.8335H5.83342V4.16683Z" fill="#C7CAD1"/>
</g>
</svg>
