<svg width="40" height="40" viewBox="0 0 40 40" fill="none" xmlns="http://www.w3.org/2000/svg">
<g id="&#229;&#133;&#165;&#229;&#143;&#163;&#229;&#155;&#190;&#230;&#160;&#135;">
<g id="Group 3">
<path id="Rectangle 4" d="M15.1515 3.33334C15.1515 1.65975 16.5082 0.30304 18.1818 0.30304L36.9697 0.30304C38.6433 0.30304 40 1.65975 40 3.33334V26.9697C40 28.6433 38.6433 30 36.9697 30H15.1515V3.33334Z" fill="#E9EBEF"/>
<path id="Rectangle 5" d="M27.2727 12.7273C27.2727 10.8863 28.7651 9.39392 30.6061 9.39392C32.447 9.39392 33.9394 10.8863 33.9394 12.7273L33.9394 26.9697C33.9394 28.6433 35.2961 30 36.9697 30H27.2727V12.7273Z" fill="#C0C6D1"/>
<path id="Subtract" d="M6.66667 9.39392C4.65836 9.39392 3.0303 11.022 3.0303 13.0303V39.697H25.1515C26.323 39.697 27.2727 38.7472 27.2727 37.5757V12.7273C27.2727 10.8863 28.7651 9.39392 30.6061 9.39392H6.66667Z" fill="#F6F7F8"/>
<path id="Rectangle 4_2" d="M0 36.4647C0 35.5721 0.72358 34.8485 1.61616 34.8485H20.303C21.8093 34.8485 23.0303 36.0696 23.0303 37.5758C23.0303 38.7473 23.98 39.697 25.1515 39.697C23.0773 39.697 9.53209 39.697 3.22345 39.697C1.43829 39.697 0 38.2498 0 36.4647Z" fill="#E9EBEF"/>
<path id="Rectangle 6" d="M7.87878 24.5455C7.87878 24.2107 8.15013 23.9394 8.48484 23.9394H11.5151C11.8499 23.9394 12.1212 24.2107 12.1212 24.5455V25.1515C12.1212 25.4862 11.8499 25.7576 11.5151 25.7576H8.48484C8.15013 25.7576 7.87878 25.4862 7.87878 25.1515V24.5455Z" fill="#3A7AFC"/>
<path id="Rectangle 7" d="M7.87878 28.1818C7.87878 27.8471 8.15013 27.5757 8.48484 27.5757H15.7576C16.0923 27.5757 16.3636 27.8471 16.3636 28.1818V28.7879C16.3636 29.1226 16.0923 29.3939 15.7576 29.3939H8.48484C8.15013 29.3939 7.87878 29.1226 7.87878 28.7879V28.1818Z" fill="#3A7AFC"/>
</g>
</g>
</svg>
