<svg width="24" height="24" viewBox="0 0 24 24" fill="none" xmlns="http://www.w3.org/2000/svg">
<g id="Frame">
<path id="Vector" d="M19.0129 9.92312H19.0129L16.9183 12.0327C16.9183 12.0327 16.6501 12.2175 16.4671 12.1689C16.2745 12.1173 16.0645 11.9325 16.0645 11.9325L12.0806 7.94914C12.0639 7.93231 12.0441 7.91895 12.0223 7.90984C12.0005 7.90072 11.977 7.89602 11.9534 7.89602C11.9297 7.89602 11.9063 7.90072 11.8844 7.90984C11.8626 7.91895 11.8428 7.93231 11.8261 7.94914L7.48406 12.2913C7.45034 12.3251 7.4314 12.3708 7.4314 12.4185C7.4314 12.4662 7.45034 12.512 7.48406 12.5457L11.8261 16.8873C11.8602 16.9204 11.9059 16.9389 11.9534 16.9389C12.0009 16.9389 12.0465 16.9204 12.0806 16.8873L16.3993 12.5703C16.3993 12.5703 16.4941 12.4971 16.5613 12.4665C16.6664 12.4173 17.0017 12.4173 17.0017 12.4173H20.5459C20.5459 12.4173 20.8357 12.3837 20.9827 12.4737C21.1038 12.5499 21.1225 12.7179 21.1207 12.7755C20.9322 17.6697 16.9081 21.6092 11.9696 21.6092C6.91223 21.6092 2.8125 17.5095 2.8125 12.4515C2.8125 7.90292 6.12689 4.13085 10.4732 3.41565C10.9604 3.3358 12.3409 3.26439 13.4857 4.40917L19.0129 9.92312ZM21.0295 7.09295C21.0295 7.09295 21.228 7.35158 21.1897 7.53634C21.1495 7.73382 20.9748 7.95153 20.9748 7.95153L19.5295 9.38141L14.6323 4.46199C12.5516 2.27389 10.9256 3.14739 10.9256 3.14739C10.9256 3.14739 14.7535 0.947846 18.0649 4.14221L21.0295 7.09295Z" fill="#005BAB"/>
</g>
</svg>
