<svg width="24" height="24" viewBox="0 0 24 24" fill="none" xmlns="http://www.w3.org/2000/svg">
<g id="Frame">
<path id="Vector" d="M21.5651 11.6096H21.5743V12.0062H18.2486L18.0949 11.6096H21.5651ZM5.76068 15.8817L8.35988 9.31945L11.0684 15.8817H5.76068ZM17.4776 10.1561L17.4778 10.1562L17.3005 9.75972H21.3091L21.3215 9.81595L21.3589 9.98137L21.3971 10.1561H17.4776ZM11.2006 15.8817L13.7999 9.31945L16.5089 15.8817H11.2006ZM19.8557 15.7499L19.6577 15.2876H20.9969C19.6566 18.9622 16.1319 21.5859 11.9938 21.5859C6.70303 21.5859 2.41406 17.2969 2.41406 12.0062C2.41406 6.71543 6.70322 2.42627 11.9938 2.42627C16.3195 2.42627 19.9752 5.29343 21.1654 9.23156H17.08L14.5483 3.30764L11.905 9.98039L9.12963 3.3731L4.24055 15.9924L6.46528 18.7666H17.7852L19.8557 15.7499ZM18.4687 12.5346H21.5735L21.5295 12.9316H18.6452L18.4687 12.5346ZM19.0409 13.8565V13.8564H19.0412L18.8654 13.4607H21.4627L21.4212 13.7117L21.3971 13.8565H19.0409ZM17.852 11.081H17.8518L17.6973 10.6847H21.4863L21.5044 10.8501L21.5258 11.0585L21.5295 11.081H17.852ZM19.2616 14.3841H19.2614H21.2885L21.1781 14.7592H19.4376L19.2616 14.3841Z" fill="#A61F23"/>
</g>
</svg>
