<svg width="40" height="40" viewBox="0 0 40 40" fill="none" xmlns="http://www.w3.org/2000/svg">
<g id="&#229;&#133;&#165;&#229;&#143;&#163;&#229;&#155;&#190;&#230;&#160;&#135;">
<rect id="Rectangle 14" x="11" y="17" width="28" height="22" rx="3" fill="#C0C6D1"/>
<path id="Rectangle 10" d="M1 4C1 2.34315 2.34315 1 4 1H28C29.6569 1 31 2.34315 31 4V39H4C2.34315 39 1 37.6569 1 36V4Z" fill="#F0F2F5"/>
<rect id="Rectangle 11" x="7" y="21" width="10" height="2" rx="0.5" fill="#C0C6D1"/>
<rect id="Rectangle 12" x="7" y="26" width="18" height="2" rx="0.5" fill="#C0C6D1"/>
<rect id="Rectangle 13" x="7" y="31" width="18" height="2" rx="0.5" fill="#C0C6D1"/>
<path id="Star 1" d="M23.0516 5.9086C23.235 5.53698 23.765 5.53698 23.9484 5.9086L24.7062 7.4441C24.779 7.59167 24.9198 7.69395 25.0827 7.71762L26.7772 7.96385C27.1873 8.02344 27.351 8.52743 27.0543 8.81669L25.8281 10.0119C25.7103 10.1268 25.6565 10.2923 25.6843 10.4545L25.9738 12.1422C26.0438 12.5506 25.6151 12.8621 25.2483 12.6692L23.7327 11.8724C23.587 11.7959 23.413 11.7959 23.2673 11.8724L21.7517 12.6692C21.3849 12.8621 20.9562 12.5506 21.0262 12.1422L21.3157 10.4545C21.3435 10.2923 21.2897 10.1268 21.1719 10.0119L19.9457 8.81669C19.649 8.52743 19.8127 8.02344 20.2228 7.96385L21.9174 7.71762C22.0802 7.69395 22.221 7.59167 22.2938 7.4441L23.0516 5.9086Z" fill="#3A7AFC"/>
</g>
</svg>
