<svg width="24" height="25" viewBox="0 0 24 25" fill="none" xmlns="http://www.w3.org/2000/svg">
<g id="hand-coin-fill">
<path id="Vector" d="M9.33 12H11.5C12.6935 12 13.8381 12.4741 14.682 13.318C15.5259 14.1619 16 15.3065 16 16.5H8.999L9 17.5H17V16.5C16.9968 15.436 16.6894 14.395 16.114 13.5H19C19.9453 13.4997 20.8712 13.7674 21.6705 14.272C22.4698 14.7767 23.1097 15.4975 23.516 16.351C21.151 19.472 17.322 21.5 13 21.5C10.239 21.5 7.9 20.91 6 19.875V10.571C7.21661 10.7453 8.36547 11.2383 9.33 12ZM5 19.5C5 19.7652 4.89464 20.0196 4.70711 20.2071C4.51957 20.3946 4.26522 20.5 4 20.5H2C1.73478 20.5 1.48043 20.3946 1.29289 20.2071C1.10536 20.0196 1 19.7652 1 19.5V10.5C1 10.2348 1.10536 9.98043 1.29289 9.79289C1.48043 9.60536 1.73478 9.5 2 9.5H4C4.26522 9.5 4.51957 9.60536 4.70711 9.79289C4.89464 9.98043 5 10.2348 5 10.5V19.5ZM18 5.5C18.7956 5.5 19.5587 5.81607 20.1213 6.37868C20.6839 6.94129 21 7.70435 21 8.5C21 9.29565 20.6839 10.0587 20.1213 10.6213C19.5587 11.1839 18.7956 11.5 18 11.5C17.2044 11.5 16.4413 11.1839 15.8787 10.6213C15.3161 10.0587 15 9.29565 15 8.5C15 7.70435 15.3161 6.94129 15.8787 6.37868C16.4413 5.81607 17.2044 5.5 18 5.5ZM11 2.5C11.7956 2.5 12.5587 2.81607 13.1213 3.37868C13.6839 3.94129 14 4.70435 14 5.5C14 6.29565 13.6839 7.05871 13.1213 7.62132C12.5587 8.18393 11.7956 8.5 11 8.5C10.2044 8.5 9.44129 8.18393 8.87868 7.62132C8.31607 7.05871 8 6.29565 8 5.5C8 4.70435 8.31607 3.94129 8.87868 3.37868C9.44129 2.81607 10.2044 2.5 11 2.5Z" fill="#08C787"/>
</g>
</svg>
