<svg width="24" height="24" viewBox="0 0 24 24" fill="none" xmlns="http://www.w3.org/2000/svg">
<g id="Frame">
<path id="Vector" d="M20.9424 6.49246C21.1624 6.89563 20.6858 7.18895 20.6125 7.22558C20.0993 6.93233 18.8528 8.32534 18.8528 8.32534C16.4331 6.52907 13.7936 6.30913 11.1173 8.76519C8.44104 11.2213 9.5775 14.5206 9.5775 14.5206C12.2537 21.4856 18.0829 18.0397 18.0829 18.0397C18.8528 17.893 20.7225 15.7669 20.7225 15.7669C21.1258 15.4003 20.979 16.0601 20.979 16.0601C21.529 14.9971 21.5657 15.6936 21.5657 15.6936C21.529 16.1701 20.5759 17.3065 20.5759 17.3065C20.8324 17.3432 21.4556 16.72 21.4556 16.72C20.1359 20.2392 16.6164 20.9723 16.6164 20.9723C12.4371 22.182 8.80763 18.8095 8.80763 18.8095C5.32481 16.0602 6.02138 10.8181 6.02138 10.8181C3.85838 12.1378 2.72192 10.5248 2.72192 10.5248C1.69535 8.98515 3.5651 7.07896 3.5651 7.07896C3.5651 9.93829 7.01121 7.15225 7.01121 7.15225C10.4207 3.2665 13.5002 2.89993 13.5002 2.89993C15.5899 2.53337 15.4433 3.19316 15.4433 3.19316C15.4433 3.4498 15.8832 3.8897 15.8832 3.8897C17.8629 3.48653 17.643 4.58619 17.643 4.58619C17.6063 6.08919 20.2459 5.64934 20.2459 5.64934L20.9424 6.49246ZM13.1732 9.78653L18.444 9.7499C18.4873 9.7497 18.5302 9.75809 18.5702 9.77457C18.6103 9.79105 18.6467 9.81529 18.6773 9.84591C18.7079 9.87652 18.7322 9.9129 18.7487 9.95294C18.7652 9.99298 18.7736 10.0359 18.7734 10.0792V13.9206C18.7734 14.1036 18.6271 14.2499 18.444 14.2499H13.1732C13.1299 14.2501 13.087 14.2417 13.0469 14.2252C13.0069 14.2088 12.9705 14.1845 12.9399 14.1539C12.9092 14.1233 12.885 14.0869 12.8685 14.0469C12.852 14.0068 12.8436 13.9639 12.8438 13.9206V10.1158C12.8438 9.93285 12.9902 9.78653 13.1732 9.78653Z" fill="#E60012"/>
</g>
</svg>
