<svg width="24" height="24" viewBox="0 0 24 24" fill="none" xmlns="http://www.w3.org/2000/svg">
<g id="Frame">
<path id="Vector" d="M17.4162 12.3789V16.6301H12.7016V15.2557H15.9106V13.6869H12.7015V9.43992H15.9106V7.99945H12.7015V6.62438H17.4162V10.8713H14.2072V12.3113H17.4162V12.3789ZM6.60649 12.3789V12.3113H9.81562V10.8713H6.60649V6.6244H11.3205V7.99948H8.11153V9.43995H11.3205V13.6869H8.11153V15.2557H11.3205V16.6301H6.60649V12.3789ZM12 2.10938C17.2947 2.10938 21.5859 6.40066 21.5859 11.6954C21.5859 16.9901 17.2947 21.2812 12 21.2812C6.70533 21.2812 2.41406 16.9901 2.41406 11.6954C2.41406 6.40066 6.70533 2.10938 12 2.10938ZM12 19.3801V19.3799C16.2441 19.3799 19.6845 15.9406 19.6845 11.6955C19.6845 7.45043 16.2441 4.00976 12 4.00976C7.75591 4.00976 4.31541 7.45151 4.31541 11.6955C4.31541 15.9397 7.75573 19.3801 12 19.3801Z" fill="#E60012"/>
</g>
</svg>
