<svg width="36" height="36" viewBox="0 0 36 36" fill="none" xmlns="http://www.w3.org/2000/svg">
<rect width="36" height="36" rx="18" fill="#FFAA04" fill-opacity="0.1"/>
<path d="M12.482 11.7611C13.9522 10.4593 15.8859 9.66895 18.0041 9.66895C22.6065 9.66895 26.3375 13.3999 26.3375 18.0023C26.3375 19.7731 25.7851 21.4148 24.8434 22.7648L22.5875 18.0023H24.6708C24.6708 14.3204 21.686 11.3356 18.0041 11.3356C16.1339 11.3356 14.4435 12.1057 13.2328 13.3462L12.482 11.7611ZM23.5262 24.2434C22.056 25.5453 20.1224 26.3356 18.0041 26.3356C13.4017 26.3356 9.67078 22.6047 9.67078 18.0023C9.67078 16.2315 10.2231 14.5897 11.1649 13.2398L13.4208 18.0023H11.3374C11.3374 21.6842 14.3222 24.6689 18.0041 24.6689C19.8744 24.6689 21.5647 23.8988 22.7754 22.6583L23.5262 24.2434ZM19.1826 20.3593L16.8256 18.0023L14.4686 20.3593L13.2901 19.1808L16.8256 15.6453L19.1826 18.0023L21.5396 15.6453L22.7181 16.8238L19.1826 20.3593Z" fill="#FFAA04"/>
</svg>
