<svg width="33" height="32" viewBox="0 0 33 32" fill="none" xmlns="http://www.w3.org/2000/svg">
<g id="hourglass-2-fill">
<path id="Vector" d="M5.95834 4.66675C5.95834 3.56218 6.85377 2.66675 7.95834 2.66675H25.2917C26.3962 2.66675 27.2917 3.56218 27.2917 4.66675V7.69346C27.2917 8.27731 27.0366 8.83201 26.5933 9.21198L18.6738 16.0001L26.5933 22.7882C27.0366 23.1682 27.2917 23.7229 27.2917 24.3067V27.3334C27.2917 28.438 26.3962 29.3334 25.2917 29.3334H7.95835C6.85378 29.3334 5.95834 28.438 5.95834 27.3334V24.3067C5.95834 23.7229 6.21347 23.1682 6.65675 22.7882L14.5762 16.0001L6.65676 9.21198C6.21347 8.83201 5.95834 8.27731 5.95834 7.69346V4.66675ZM22.3539 9.33341L24.625 7.38684V5.33341H8.62501V7.38684L10.896 9.33341H22.3539ZM16.625 17.7562L8.62501 24.6133V26.6667H9.95834L16.625 22.6667L23.2917 26.6667H24.625V24.6133L16.625 17.7562Z" fill="#3A7AFC"/>
</g>
</svg>
