<svg width="31" height="28" viewBox="0 0 31 28" fill="none" xmlns="http://www.w3.org/2000/svg">
<path id="Vector" d="M21.775 23.3334L18.0416 28.0001L14.3083 23.3334H8.04165C6.93708 23.3334 6.04165 22.438 6.04165 21.3334V8.13742C6.04165 7.03285 6.93708 6.13741 8.04165 6.13741H28.0416C29.1462 6.13741 30.0416 7.03285 30.0416 8.13741V21.3334C30.0416 22.438 29.1462 23.3334 28.0416 23.3334H21.775ZM0.708313 4.66288C0.708313 2.45374 2.49917 0.666748 4.70831 0.666748H24.7083V3.33341H5.37498C4.27041 3.33341 3.37498 4.22885 3.37498 5.33341V18.0001H0.708313C0.708313 16.5218 0.708313 9.30591 0.708313 4.66288Z" fill="#3A7AFC"/>
</svg>
