<svg width="25" height="28" viewBox="0 0 25 28" fill="none" xmlns="http://www.w3.org/2000/svg">
<path id="Vector" d="M24.2892 6.74755C24.6643 7.12262 24.875 7.63133 24.875 8.16177V25.3257C24.875 26.4296 23.9806 27.3247 22.8767 27.3257L2.87667 27.3423C1.77145 27.3433 0.875 26.4476 0.875 25.3423V2.65724C0.875 1.55219 1.77118 0.656557 2.87623 0.657237L17.3806 0.666163C17.9106 0.666489 18.4188 0.877178 18.7936 1.25195L24.2892 6.74755ZM7.54167 7.33334V10H11.5417V7.33334H7.54167ZM7.54167 12.6667V15.3333H18.2083V12.6667H7.54167ZM7.54167 18V20.6667H18.2083V18H7.54167Z" fill="#3A7AFC"/>
</svg>
