<svg width="36" height="36" viewBox="0 0 36 36" fill="none" xmlns="http://www.w3.org/2000/svg">
<rect width="36" height="36" rx="18" fill="#08C787" fill-opacity="0.1"/>
<path d="M18 26.3332C13.3975 26.3332 9.66663 22.6023 9.66663 17.9998C9.66663 13.3973 13.3975 9.6665 18 9.6665C22.6025 9.6665 26.3333 13.3973 26.3333 17.9998C26.3333 22.6023 22.6025 26.3332 18 26.3332ZM18.8333 18.8332V17.9998H21.3333V16.3332H19.1783L20.9466 14.5657L19.7675 13.3865L18 15.1548L16.2325 13.3865L15.0533 14.5665L16.8216 16.3332H14.6666V17.9998H17.1666V18.8332H14.6666V20.4998H17.1666V22.1665H18.8333V20.4998H21.3333V18.8332H18.8333Z" fill="#08C787"/>
</svg>
