<svg width="24" height="24" viewBox="0 0 24 24" fill="none" xmlns="http://www.w3.org/2000/svg">
<g id="Frame">
<path id="Vector" d="M13.4165 3.51562L12.8795 6.02702H8.64556L7.57252 10.9919H3.72584L3.27834 13.0073L3.18959 13.5041L2.74219 15.5195H6.61812L5.54505 20.4844H14.7882L15.2356 18.469L15.8606 15.5195H18.6942L19.1108 13.5041H15.1169L14.6995 15.5195L14.0437 18.469H7.15514L7.24465 18.0016H13.3864L14.4603 13.0073H19.201L19.6485 10.9919H13.7142L13.2976 13.0073L12.6418 15.987H7.69125L7.77998 15.5195H12.0147L12.4313 13.5041L12.5508 13.0073L12.9682 10.9919H8.73506L8.85471 10.5245H14.9964L15.5335 8.04241H20.2742L20.7217 6.02702H14.7882L14.3407 8.04241L14.2511 8.50915H9.27211L9.39162 8.04241H13.6256L14.0422 6.02702L14.1317 5.53104H20.8112L21.2578 3.51562H13.4165ZM11.3438 13.0078L11.2534 13.5H8.17969L8.29931 13.0078H11.3438ZM7.14844 13.0078L7.02841 13.5H4.33594L4.42575 13.0078H7.14844Z" fill="#007D3E"/>
</g>
</svg>
