<svg width="17" height="16" viewBox="0 0 17 16" fill="none" xmlns="http://www.w3.org/2000/svg">
<g id="search-line">
<path id="Vector" d="M12.5207 11.0777L15.376 13.9323L14.4327 14.8757L11.578 12.0203C10.5158 12.8718 9.19468 13.3349 7.83334 13.333C4.52134 13.333 1.83334 10.645 1.83334 7.33301C1.83334 4.02101 4.52134 1.33301 7.83334 1.33301C11.1453 1.33301 13.8333 4.02101 13.8333 7.33301C13.8353 8.69434 13.3722 10.0155 12.5207 11.0777ZM11.1833 10.583C12.0294 9.71293 12.5019 8.54663 12.5 7.33301C12.5 4.75434 10.4113 2.66634 7.83334 2.66634C5.25468 2.66634 3.16668 4.75434 3.16668 7.33301C3.16668 9.91101 5.25468 11.9997 7.83334 11.9997C9.04696 12.0016 10.2133 11.5291 11.0833 10.683L11.1833 10.583Z" fill="#C7CAD1"/>
</g>
</svg>
