<svg width="18" height="18" viewBox="0 0 18 18" fill="none" xmlns="http://www.w3.org/2000/svg">
<path d="M9 16.5C4.85775 16.5 1.5 13.1422 1.5 9C1.5 4.85775 4.85775 1.5 9 1.5C13.1422 1.5 16.5 4.85775 16.5 9C16.5 13.1422 13.1422 16.5 9 16.5ZM8.25 11.25V12.75H9.75V11.25H8.25ZM9.75 10.0162C10.3528 9.83458 10.8702 9.44246 11.2081 8.91131C11.546 8.38015 11.6819 7.74529 11.5911 7.12235C11.5002 6.49941 11.1886 5.92983 10.713 5.51734C10.2374 5.10486 9.62953 4.8769 9 4.875C8.39314 4.87495 7.805 5.08512 7.33559 5.46974C6.86619 5.85437 6.54451 6.38972 6.42525 6.98475L7.89675 7.2795C7.93851 7.07057 8.03874 6.8778 8.18578 6.72361C8.33281 6.56942 8.52061 6.46016 8.72732 6.40853C8.93403 6.3569 9.15115 6.36503 9.35342 6.43198C9.55568 6.49892 9.73478 6.62193 9.86987 6.78668C10.005 6.95144 10.0905 7.15117 10.1165 7.36263C10.1425 7.5741 10.108 7.7886 10.0168 7.98119C9.9257 8.17377 9.78175 8.33652 9.60174 8.4505C9.42173 8.56447 9.21306 8.62499 9 8.625C8.80109 8.625 8.61032 8.70402 8.46967 8.84467C8.32902 8.98532 8.25 9.17609 8.25 9.375V10.5H9.75V10.0162Z" fill="#3E91FF"/>
</svg>
