<svg width="15" height="14" viewBox="0 0 15 14" fill="none" xmlns="http://www.w3.org/2000/svg">
<g id="user-4-fill">
<g id="Vector">
<path d="M5.5358 5.32528C5.01487 4.80434 4.72221 4.0978 4.72221 3.36109C4.72221 2.62438 5.01487 1.91784 5.5358 1.39691C6.05674 0.875971 6.76328 0.583313 7.49999 0.583313C8.2367 0.583313 8.94324 0.875971 9.46417 1.39691C9.98511 1.91784 10.2778 2.62438 10.2778 3.36109C10.2778 4.0978 9.98511 4.80434 9.46417 5.32528C8.94324 5.84621 8.2367 6.13887 7.49999 6.13887C6.76328 6.13887 6.05674 5.84621 5.5358 5.32528Z" fill="white"/>
<path d="M13.3333 11.4166C13.3333 8.9619 11.3436 6.97218 8.88888 6.97218H6.1111C3.65638 6.97218 1.66666 8.9619 1.66666 11.4166V11.6944C1.66666 11.9891 1.78372 12.2717 1.99209 12.4801C2.20047 12.6884 2.48308 12.8055 2.77777 12.8055H12.2222C12.5169 12.8055 12.7995 12.6884 13.0079 12.4801C13.2163 12.2717 13.3333 11.9891 13.3333 11.6944V11.4166Z" fill="white"/>
</g>
</g>
</svg>
