<svg width="120" height="120" viewBox="0 0 120 120" fill="none" xmlns="http://www.w3.org/2000/svg">
<g id="Frame">
<path id="Vector" d="M22.7095 3.02699C22.7097 2.83356 22.6593 2.64345 22.5635 2.47545C22.4676 2.30744 22.3296 2.16736 22.163 2.06905C21.9964 1.97074 21.8071 1.91761 21.6137 1.9149C21.4203 1.9122 21.2295 1.96002 21.0602 2.05363L8.22868 9.13738C8.05456 9.2334 7.90941 9.3744 7.80836 9.54565C7.70732 9.7169 7.65409 9.91213 7.65423 10.111V25.0538C7.16255 24.8286 6.62822 24.7118 6.08743 24.7111C3.99728 24.7111 2.30298 26.4054 2.30298 28.4956C2.30298 30.5857 3.99728 32.28 6.08743 32.28C8.14103 32.28 9.8086 30.6434 9.86649 28.6036C9.87048 28.5678 9.87821 28.5352 9.87821 28.4956V15.466L20.486 9.60965V17.5918C19.996 17.3685 19.4638 17.2527 18.9253 17.2521C16.8352 17.2521 15.1409 18.9464 15.1409 21.0366C15.1409 23.1268 16.8352 24.8211 18.9253 24.8211C21.0155 24.8211 22.7098 23.1268 22.7098 21.0366C22.7098 21.015 22.707 20.9944 22.7065 20.9731C22.7067 20.9623 22.7098 20.9522 22.7098 20.9412L22.7095 3.02699ZM115.346 1.253L109.407 4.53191C109.212 4.63927 109.05 4.79684 108.937 4.9882C108.824 5.17956 108.765 5.3977 108.765 5.61988V22.3175C108.216 22.0656 107.619 21.9351 107.014 21.9347C104.679 21.9347 102.785 23.828 102.785 26.1638C102.785 28.4993 104.678 30.3926 107.014 30.3926C109.309 30.3926 111.173 28.5628 111.237 26.2831C111.242 26.2435 111.25 26.2074 111.25 26.1638V12.0945C111.25 11.7917 111.415 11.5128 111.68 11.3665L116.15 8.89855C116.28 8.82665 116.389 8.72121 116.464 8.59319C116.54 8.46516 116.58 8.31924 116.58 8.17058V1.98097C116.58 1.34793 115.901 0.946911 115.346 1.253Z" fill="#D60A19"/>
<path id="Vector_2" d="M41.8863 27.0229C40.5811 27.0229 39.3035 26.3789 38.5467 25.1983C37.3659 23.3561 37.9024 20.9055 39.7446 19.7247C53.2854 11.0465 71.2997 11.055 84.5714 19.7442C86.4021 20.9428 86.9144 23.3986 85.7158 25.2293C84.517 27.06 82.0615 27.5721 80.2308 26.3737C69.5273 19.3657 54.9754 19.3751 44.0203 26.3962C43.384 26.8059 42.6431 27.0234 41.8863 27.0229Z" fill="#FEE522"/>
<path id="Vector_3" d="M102.311 59.209C99.8053 59.209 97.7745 57.178 97.7745 54.6727C97.7745 34.9123 81.6982 18.8361 61.9378 18.8361C42.1775 18.8361 26.101 34.9123 26.101 54.6727C26.101 57.1782 24.0699 59.209 21.5646 59.209C19.0594 59.209 17.0281 57.178 17.0281 54.6727C17.0281 29.9094 37.1745 9.76318 61.9376 9.76318C86.7007 9.76318 106.847 29.9096 106.847 54.6727C106.847 57.178 104.816 59.209 102.311 59.209Z" fill="white"/>
<path id="Vector_4" d="M21.5646 84.5943C21.1521 84.5943 20.7565 84.4305 20.4648 84.1388C20.1731 83.8471 20.0093 83.4515 20.0093 83.039V54.6726C20.0093 54.2601 20.1731 53.8645 20.4648 53.5728C20.7565 53.2812 21.1521 53.1173 21.5646 53.1173C21.9771 53.1173 22.3727 53.2812 22.6644 53.5728C22.956 53.8645 23.1199 54.2601 23.1199 54.6726V83.039C23.1199 83.2433 23.0797 83.4455 23.0016 83.6343C22.9234 83.823 22.8089 83.9944 22.6644 84.1389C22.52 84.2833 22.3485 84.3979 22.1598 84.476C21.9711 84.5542 21.7688 84.5944 21.5646 84.5943ZM103.866 83.039V54.6726C103.866 54.2601 103.702 53.8645 103.41 53.5728C103.119 53.2812 102.723 53.1173 102.311 53.1173C101.898 53.1173 101.502 53.2812 101.211 53.5728C100.919 53.8645 100.755 54.2601 100.755 54.6726V83.039C100.755 83.4515 100.919 83.8471 101.211 84.1388C101.502 84.4305 101.898 84.5943 102.311 84.5943C102.723 84.5943 103.119 84.4305 103.41 84.1388C103.702 83.8471 103.866 83.4515 103.866 83.039Z" fill="white"/>
<path id="Vector_5" d="M32.0281 61.7634C22.4841 61.7634 14.7471 69.5004 14.7471 79.0446C14.7471 88.5886 22.4841 96.3255 32.0281 96.3255H37.1581V61.7634H32.0281ZM92.4014 61.7634H87.2714V96.3255H92.4014C101.945 96.3255 109.682 88.5886 109.682 79.0446C109.682 69.5004 101.945 61.7634 92.4014 61.7634Z" fill="white"/>
<path id="Vector_6" d="M21.3225 119.211C20.4975 119.213 19.6759 119.106 18.8789 118.894C15.9051 118.097 13.6502 115.831 12.847 112.834C12.3349 110.922 11.744 105.876 17.3074 100.312C17.9374 99.6823 18.5142 99.1402 19.023 98.6623C21.9337 95.928 22.8122 95.1026 22.8122 87.6851C22.8122 87.2726 22.976 86.877 23.2677 86.5853C23.5594 86.2936 23.955 86.1298 24.3675 86.1298C24.78 86.1298 25.1756 86.2936 25.4673 86.5853C25.7589 86.877 25.9228 87.2726 25.9228 87.6851C25.9228 96.1125 24.5458 97.7419 21.1528 100.93C20.6606 101.392 20.1028 101.916 19.5068 102.512C15.0897 106.929 15.4793 110.639 15.8517 112.028C16.3715 113.968 17.7684 115.375 19.684 115.889C22.6017 116.671 26.1222 115.272 29.3423 112.053C34.0983 107.296 39.6909 105.548 44.3015 107.374C47.8849 108.793 50.1888 112.187 50.3147 116.231C50.323 116.437 50.2906 116.642 50.2192 116.834C50.1479 117.027 50.0391 117.204 49.8991 117.354C49.7591 117.504 49.5906 117.626 49.4035 117.711C49.2164 117.796 49.0143 117.843 48.8089 117.849C48.6035 117.855 48.3989 117.821 48.2069 117.748C48.0148 117.675 47.8392 117.564 47.6901 117.423C47.5411 117.281 47.4215 117.112 47.3383 116.924C47.2552 116.736 47.2101 116.533 47.2057 116.328C47.1178 113.501 45.604 111.235 43.1562 110.266C39.735 108.911 35.3932 110.401 31.5422 114.252C28.3106 117.483 24.7001 119.211 21.3225 119.211Z" fill="white"/>
<path id="Vector_7" d="M39.9881 61.6612V96.4275C39.9881 96.6282 39.9486 96.8269 39.8718 97.0123C39.795 97.1977 39.6825 97.3661 39.5406 97.508C39.3987 97.6499 39.2302 97.7625 39.0448 97.8393C38.8594 97.9161 38.6607 97.9556 38.46 97.9556H35.8563C35.6557 97.9556 35.457 97.9161 35.2716 97.8393C35.0862 97.7625 34.9177 97.6499 34.7758 97.508C34.6339 97.3661 34.5213 97.1977 34.4445 97.0123C34.3677 96.8269 34.3282 96.6282 34.3282 96.4275V61.6615C34.3282 61.4608 34.3677 61.2621 34.4445 61.0767C34.5213 60.8913 34.6339 60.7228 34.7758 60.5809C34.9177 60.439 35.0862 60.3265 35.2716 60.2497C35.457 60.1729 35.6557 60.1334 35.8563 60.1334H38.46C38.8653 60.1334 39.2539 60.2943 39.5405 60.5808C39.8271 60.8674 39.9881 61.256 39.9881 61.6612ZM88.5731 60.1331H85.9695C85.5642 60.1331 85.1755 60.2941 84.8889 60.5807C84.6023 60.8673 84.4413 61.256 84.4413 61.6612V96.4275C84.4413 96.6282 84.4809 96.8269 84.5577 97.0123C84.6345 97.1977 84.747 97.3661 84.8889 97.508C85.0308 97.6499 85.1993 97.7625 85.3847 97.8393C85.5701 97.9161 85.7688 97.9556 85.9695 97.9556H88.5731C88.9784 97.9556 89.3671 97.7946 89.6537 97.508C89.9403 97.2215 90.1013 96.8328 90.1013 96.4275V61.6615C90.1013 61.4608 90.0618 61.262 89.985 61.0766C89.9082 60.8912 89.7957 60.7227 89.6538 60.5808C89.5119 60.4389 89.3434 60.3263 89.158 60.2495C88.9726 60.1726 88.7738 60.1331 88.5731 60.1331ZM102.311 53.1443C101.906 53.1443 101.517 53.3053 101.23 53.5919C100.944 53.8784 100.783 54.2671 100.783 54.6724C100.783 55.0777 100.944 55.4664 101.23 55.753C101.517 56.0395 101.906 56.2005 102.311 56.2005C102.716 56.2005 103.105 56.0395 103.391 55.753C103.678 55.4664 103.839 55.0777 103.839 54.6724C103.839 54.2671 103.678 53.8784 103.391 53.5919C103.105 53.3053 102.716 53.1443 102.311 53.1443ZM21.5646 53.1443C21.1593 53.1443 20.7707 53.3053 20.4841 53.5919C20.1975 53.8784 20.0365 54.2671 20.0365 54.6724C20.0365 55.0777 20.1975 55.4664 20.4841 55.753C20.7707 56.0395 21.1593 56.2005 21.5646 56.2005C21.9699 56.2005 22.3586 56.0395 22.6452 55.753C22.9318 55.4664 23.0927 55.0777 23.0927 54.6724C23.0927 54.2671 22.9318 53.8784 22.6452 53.5919C22.3586 53.3053 21.9699 53.1443 21.5646 53.1443Z" fill="#FEE522"/>
<path id="Vector_8" d="M102.311 53.1443C101.906 53.1443 101.517 53.3053 101.23 53.5919C100.944 53.8784 100.783 54.2671 100.783 54.6724C100.783 55.0777 100.944 55.4664 101.23 55.753C101.517 56.0395 101.906 56.2005 102.311 56.2005C102.716 56.2005 103.105 56.0395 103.391 55.753C103.678 55.4664 103.839 55.0777 103.839 54.6724C103.839 54.2671 103.678 53.8784 103.391 53.5919C103.105 53.3053 102.716 53.1443 102.311 53.1443ZM21.5646 53.1443C21.1593 53.1443 20.7707 53.3053 20.4841 53.5919C20.1975 53.8784 20.0365 54.2671 20.0365 54.6724C20.0365 55.0777 20.1975 55.4664 20.4841 55.753C20.7707 56.0395 21.1593 56.2005 21.5646 56.2005C21.9699 56.2005 22.3586 56.0395 22.6452 55.753C22.9318 55.4664 23.0927 55.0777 23.0927 54.6724C23.0927 54.2671 22.9318 53.8784 22.6452 53.5919C22.3586 53.3053 21.9699 53.1443 21.5646 53.1443Z" fill="black"/>
</g>
</svg>
