<svg width="425" height="169" viewBox="0 0 425 169" fill="none" xmlns="http://www.w3.org/2000/svg">
<path d="M21.3378 138.039C20.5799 138.039 19.822 137.787 19.064 137.281C6.8108 128.692 0.621025 118.965 0.999991 108.606C1.50528 92.1845 18.3061 79.9313 22.8537 76.8996C25.0012 72.0993 27.0223 63.6358 28.6645 57.446C30.1804 51.3825 31.0646 48.0982 31.8225 46.3297C33.5911 43.0453 36.2438 41.1505 39.1492 41.4031C42.5599 41.5294 45.2127 44.3085 47.2338 49.3614C50.3919 57.6986 52.792 59.3408 55.4447 59.2145C57.8449 58.8355 63.6557 49.993 65.8031 46.7086C67.4453 44.1822 68.8349 42.0347 70.0981 40.6452C72.6245 37.7398 75.151 38.2451 76.2879 38.4977C79.9512 39.6346 81.7197 44.0559 82.8566 54.4143C83.2356 57.6986 84.1198 60.0988 85.5094 61.1093C86.0147 61.4883 86.8989 61.9936 88.9201 61.7409C90.9412 61.4883 96.1204 57.446 100.668 54.0353C109.258 47.4666 119.869 39.1293 131.87 35.9713C153.976 30.0341 170.019 38.3714 180.124 45.1928C183.914 47.7192 187.577 51.2562 190.988 54.5406C198.441 61.7409 205.389 68.436 215.242 68.3097C226.232 68.1834 236.717 58.7092 246.444 40.1399C247.201 38.624 248.086 37.1082 248.97 35.5923C243.664 20.4337 237.98 6.03297 237.854 5.90664C237.096 3.88549 238.106 1.6117 240.127 0.727445C242.149 -0.0304869 244.422 0.980089 245.307 3.00124C245.307 3.12756 249.728 14.3702 254.528 27.5077C261.476 18.9178 271.076 12.2227 285.856 13.2333C293.814 13.7386 299.878 16.644 304.173 21.8232C310.994 30.1605 310.741 42.2874 309.857 48.7298C308.089 63.1305 293.056 70.9624 279.792 70.2045C264.886 69.3203 257.181 56.9407 252.76 45.6981C241.77 65.9096 229.264 76.268 215.621 76.3943C202.483 76.6469 193.515 67.9307 185.683 60.3514C182.272 57.067 179.114 54.0353 175.956 51.8878C166.355 45.4454 152.839 38.624 134.143 43.6769C123.785 46.456 113.805 54.1616 105.721 60.3514C99.1521 65.5306 94.3519 69.1939 90.057 69.6992C86.5199 70.2045 83.2356 69.3203 80.8355 67.4254C77.8037 65.0253 75.7826 60.8567 75.2773 55.2985C75.0246 52.3931 74.6457 50.372 74.2667 48.8561C73.7614 49.4877 73.3825 50.2456 72.8772 51.0036C66.5611 59.8461 61.6345 66.7938 55.8237 67.0465C45.718 67.6781 41.6757 57.1934 39.7808 52.1405C39.4019 51.2562 39.1492 50.4983 38.8966 50.1193C38.3913 51.3825 37.2544 55.6775 36.3701 59.3408C34.4753 66.7938 32.2015 76.0153 29.5487 81.4472L29.0435 82.4577L28.0329 83.0893C27.9066 83.2157 9.33724 94.711 8.95827 108.985C8.70563 116.565 13.6322 123.891 23.7379 130.839C25.5064 132.102 26.0117 134.502 24.7485 136.397C23.8643 137.408 22.601 138.039 21.3378 138.039ZM257.434 36.4766C257.56 36.8555 257.686 37.3608 257.812 37.7398C263.371 54.0353 270.192 61.4883 279.792 62.1199C289.519 62.7515 300.383 57.446 301.52 47.5929C302.151 42.4137 302.53 32.8132 297.604 26.7498C294.825 23.3391 290.656 21.4442 284.972 21.0653C271.582 20.181 263.371 27.5077 257.434 36.4766Z" fill="#486FFF"/>
<path d="M44.7252 160.665L47.6652 163.605C48.2986 162.759 48.6152 161.779 48.6152 160.665C48.6152 159.285 48.1286 158.109 47.1552 157.135C46.1752 156.162 44.9952 155.675 43.6152 155.675C42.2352 155.675 41.0619 156.162 40.0952 157.135C39.1152 158.109 38.6252 159.285 38.6252 160.665C38.6252 162.045 39.1152 163.222 40.0952 164.195C41.0619 165.175 42.2352 165.665 43.6152 165.665C44.6086 165.665 45.4952 165.412 46.2752 164.905L43.3852 162.005L44.7252 160.665ZM49.3752 168.005L47.6452 166.275C46.4852 167.135 45.1419 167.565 43.6152 167.565C41.7152 167.565 40.0886 166.892 38.7352 165.545C37.3952 164.199 36.7252 162.572 36.7252 160.665C36.7252 158.765 37.3952 157.139 38.7352 155.785C40.0886 154.439 41.7152 153.765 43.6152 153.765C45.5219 153.765 47.1486 154.439 48.4952 155.785C49.8419 157.139 50.5152 158.765 50.5152 160.665C50.5152 162.305 50.0186 163.739 49.0252 164.965L50.7152 166.655L49.3752 168.005Z" fill="#486FFF"/>
<path d="M61.9159 167.325V154.005H60.0059V167.325H61.9159Z" fill="#486FFF"/>
<path d="M73.6619 154.005H71.7719V167.325H73.6819V157.425L80.3519 167.325H82.2419V154.005H80.3319V163.905L73.6619 154.005Z" fill="#486FFF"/>
<path d="M105.459 159.715H98.1492V161.615H103.539C103.366 162.595 102.906 163.455 102.159 164.195C101.179 165.175 99.9992 165.665 98.6192 165.665C97.2392 165.665 96.0659 165.175 95.0992 164.195C94.1192 163.222 93.6292 162.045 93.6292 160.665C93.6292 159.285 94.1192 158.109 95.0992 157.135C96.0659 156.162 97.2392 155.675 98.6192 155.675C100.173 155.675 101.449 156.269 102.449 157.455L103.909 156.235C102.529 154.589 100.766 153.765 98.6192 153.765C96.7192 153.765 95.0925 154.439 93.7392 155.785C92.3992 157.139 91.7292 158.765 91.7292 160.665C91.7292 162.572 92.3992 164.199 93.7392 165.545C95.0925 166.892 96.7192 167.565 98.6192 167.565C100.526 167.565 102.153 166.892 103.499 165.545C104.846 164.199 105.519 162.572 105.519 160.665C105.519 160.345 105.499 160.029 105.459 159.715Z" fill="#486FFF"/>
<path d="M119.97 161.305V167.325H121.88V161.305L127.58 154.005H125.18L120.93 159.445L116.68 154.005H114.27L119.97 161.305Z" fill="#486FFF"/>
<path d="M141.929 167.565C143.382 167.565 144.619 167.145 145.639 166.305C146.659 165.472 147.169 164.465 147.169 163.285V154.005H145.259V163.285C145.259 163.939 144.936 164.499 144.289 164.965C143.636 165.432 142.849 165.665 141.929 165.665C141.009 165.665 140.226 165.432 139.579 164.965C138.932 164.499 138.609 163.939 138.609 163.285V154.005H136.699V163.285C136.699 164.465 137.209 165.472 138.229 166.305C139.256 167.145 140.489 167.565 141.929 167.565Z" fill="#486FFF"/>
<path d="M158.916 154.005H157.026V167.325H158.936V157.425L165.606 167.325H167.496V154.005H165.586V163.905L158.916 154.005Z" fill="#486FFF"/>
<path d="M199.484 167.565C201.624 167.565 203.384 166.745 204.764 165.105L203.304 163.875C202.304 165.069 201.03 165.665 199.484 165.665C198.104 165.665 196.927 165.175 195.954 164.195C194.974 163.222 194.484 162.045 194.484 160.665C194.484 159.285 194.974 158.109 195.954 157.135C196.927 156.162 198.104 155.675 199.484 155.675C201.03 155.675 202.304 156.269 203.304 157.455L204.764 156.235C203.384 154.589 201.624 153.765 199.484 153.765C197.577 153.765 195.95 154.439 194.604 155.785C193.257 157.139 192.584 158.765 192.584 160.665C192.584 162.572 193.257 164.199 194.604 165.545C195.95 166.892 197.577 167.565 199.484 167.565Z" fill="#486FFF"/>
<path d="M220.781 153.765C222.681 153.765 224.308 154.439 225.661 155.785C227.001 157.139 227.671 158.765 227.671 160.665C227.671 162.572 227.001 164.199 225.661 165.545C224.308 166.892 222.681 167.565 220.781 167.565C218.874 167.565 217.248 166.892 215.901 165.545C214.554 164.199 213.881 162.572 213.881 160.665C213.881 158.765 214.554 157.139 215.901 155.785C217.248 154.439 218.874 153.765 220.781 153.765ZM220.781 155.675C219.401 155.675 218.224 156.162 217.251 157.135C216.271 158.109 215.781 159.285 215.781 160.665C215.781 162.045 216.271 163.222 217.251 164.195C218.224 165.175 219.401 165.665 220.781 165.665C222.161 165.665 223.338 165.175 224.311 164.195C225.284 163.222 225.771 162.045 225.771 160.665C225.771 159.285 225.284 158.109 224.311 157.135C223.338 156.162 222.161 155.675 220.781 155.675Z" fill="#486FFF"/>
<path d="M240.832 167.325V155.905H236.792V154.005H246.782V155.905H242.732V167.325H240.832Z" fill="#486FFF"/>
<path d="M259.937 167.325V155.905H255.897V154.005H265.887V155.905H261.837V167.325H259.937Z" fill="#486FFF"/>
<path d="M284.373 163.765H278.213L276.703 167.325H274.633L280.283 154.005H282.293L287.943 167.325H285.883L284.373 163.765ZM279.023 161.855H283.563L281.293 156.505L279.023 161.855Z" fill="#486FFF"/>
<path d="M310.422 159.715H303.112V161.615H308.502C308.328 162.595 307.868 163.455 307.122 164.195C306.142 165.175 304.962 165.665 303.582 165.665C302.202 165.665 301.028 165.175 300.062 164.195C299.082 163.222 298.592 162.045 298.592 160.665C298.592 159.285 299.082 158.109 300.062 157.135C301.028 156.162 302.202 155.675 303.582 155.675C305.135 155.675 306.412 156.269 307.412 157.455L308.872 156.235C307.492 154.589 305.728 153.765 303.582 153.765C301.682 153.765 300.055 154.439 298.702 155.785C297.362 157.139 296.692 158.765 296.692 160.665C296.692 162.572 297.362 164.199 298.702 165.545C300.055 166.892 301.682 167.565 303.582 167.565C305.488 167.565 307.115 166.892 308.462 165.545C309.808 164.199 310.482 162.572 310.482 160.665C310.482 160.345 310.462 160.029 310.422 159.715Z" fill="#486FFF"/>
<path d="M319.973 154.005H329.492V155.905H321.883V159.715H329.492V161.615H321.883V165.425H329.492V167.325H319.973V154.005Z" fill="#486FFF"/>
<path d="M81.4976 129.631L82.0576 130.101C82.2376 129.235 82.3609 128.415 82.4276 127.641C82.4876 126.875 82.5176 126.151 82.5176 125.471V125.371C82.0842 125.805 81.6509 126.055 81.2176 126.121C79.3642 126.675 77.3742 127.215 75.2476 127.741C73.1142 128.261 70.9542 128.661 68.7676 128.941C66.5742 129.221 64.3976 129.298 62.2376 129.171C60.0776 129.051 58.0409 128.621 56.1276 127.881C56.1276 128.555 56.1409 129.231 56.1676 129.911C56.2009 130.591 56.2476 131.271 56.3076 131.951C58.5942 132.138 60.8476 132.061 63.0676 131.721C65.2942 131.381 67.5476 131.025 69.8276 130.651C70.6342 130.531 71.5442 130.331 72.5576 130.051C73.5776 129.771 74.6276 129.541 75.7076 129.361C76.7876 129.175 77.8376 129.081 78.8576 129.081C79.8776 129.081 80.7576 129.265 81.4976 129.631ZM73.4376 119.081C70.4776 119.388 67.5142 119.898 64.5476 120.611C61.5876 121.318 58.6242 121.735 55.6576 121.861C55.7842 122.535 55.8609 123.165 55.8876 123.751C55.9209 124.338 55.9676 124.941 56.0276 125.561C57.8209 125.128 59.6742 124.788 61.5876 124.541C63.5009 124.295 65.3842 124.018 67.2376 123.711C69.3976 123.278 71.5109 122.798 73.5776 122.271C75.6442 121.745 77.7609 121.268 79.9276 120.841C80.6009 120.715 81.1242 120.745 81.4976 120.931C81.0042 120.005 80.0776 119.388 78.7176 119.081C77.8576 118.895 76.9776 118.818 76.0776 118.851C75.1842 118.878 74.3042 118.955 73.4376 119.081ZM82.6976 115.741C84.6176 116.608 86.0542 118.045 87.0076 120.051C87.9676 122.058 88.5842 124.235 88.8576 126.581C89.1376 128.928 89.1242 131.288 88.8176 133.661C88.5042 136.041 88.0709 138.001 87.5176 139.541C86.9642 141.028 86.1142 141.955 84.9676 142.321C83.8276 142.695 82.7476 142.695 81.7276 142.321C80.7076 141.955 79.9209 141.261 79.3676 140.241C78.8142 139.221 78.8776 138.031 79.5576 136.671L80.4776 134.731C80.4176 134.791 80.2642 134.821 80.0176 134.821C76.2509 135.561 72.3909 136.148 68.4376 136.581C64.4909 137.015 60.6642 136.705 56.9576 135.651L57.2376 136.951C57.6642 138.371 57.5409 139.561 56.8676 140.521C56.1876 141.475 55.2909 142.105 54.1776 142.411C53.0642 142.725 51.9542 142.665 50.8476 142.231C49.7342 141.798 48.9609 140.901 48.5276 139.541C48.0942 138.121 47.8476 136.548 47.7876 134.821C47.7276 133.095 47.8209 131.351 48.0676 129.591C48.3142 127.831 48.7142 126.131 49.2676 124.491C49.8276 122.858 50.5376 121.425 51.3976 120.191C51.7709 119.631 52.3276 119.291 53.0676 119.171C53.8076 119.045 54.4242 119.231 54.9176 119.731C56.8909 118.491 59.0209 117.611 61.3076 117.091C63.5942 116.565 65.8776 116.115 68.1576 115.741C69.2109 115.561 70.3709 115.361 71.6376 115.141C72.9042 114.928 74.1842 114.788 75.4776 114.721C76.7776 114.661 78.0442 114.695 79.2776 114.821C80.5109 114.941 81.6509 115.248 82.6976 115.741ZM87.8876 102.691C88.5676 102.751 89.1076 102.965 89.5076 103.331C89.9076 103.705 90.1542 104.138 90.2476 104.631C90.3409 105.125 90.2942 105.635 90.1076 106.161C89.9276 106.688 89.5876 107.135 89.0876 107.501C87.3009 108.615 85.3276 109.511 83.1676 110.191C81.0076 110.871 78.7842 111.395 76.4976 111.761C74.2109 112.135 71.9109 112.411 69.5976 112.591C67.2842 112.778 65.1076 112.901 63.0676 112.961C58.7476 113.148 54.4276 113.041 50.1076 112.641C45.7809 112.241 41.6442 111.145 37.6976 109.351C37.3242 109.171 37.1842 108.895 37.2776 108.521C37.3709 108.148 37.5709 107.931 37.8776 107.871C41.5842 107.191 45.2109 106.805 48.7576 106.711C52.3109 106.618 55.9376 106.448 59.6376 106.201V105.831C59.6376 105.158 59.6242 104.435 59.5976 103.661C59.5642 102.888 59.5776 102.101 59.6376 101.301C58.3442 101.175 57.1409 100.881 56.0276 100.421C54.9209 99.9545 54.0276 99.2912 53.3476 98.4312C53.1609 98.1779 53.1142 97.8979 53.2076 97.5912C53.3009 97.2845 53.5009 97.0679 53.8076 96.9412C55.9676 96.5745 57.9442 96.1745 59.7376 95.7412C59.7976 95.0612 59.8442 94.3679 59.8776 93.6612C59.9042 92.9479 59.9809 92.2212 60.1076 91.4812C57.7609 91.3545 55.5542 90.9845 53.4876 90.3712C51.4142 89.7512 49.6676 88.7312 48.2476 87.3112C47.9409 87.0045 47.8342 86.6512 47.9276 86.2512C48.0209 85.8445 48.2842 85.5812 48.7176 85.4612C50.5042 84.6612 52.4009 84.2445 54.4076 84.2112C56.4142 84.1779 58.3742 84.0712 60.2876 83.8912C60.4142 83.8912 60.6009 83.8745 60.8476 83.8412C61.0942 83.8079 61.3709 83.7612 61.6776 83.7012C62.2376 81.8479 63.0409 79.9945 64.0876 78.1412C64.2742 77.8345 64.5209 77.7279 64.8276 77.8212C65.1342 77.9145 65.3509 78.1145 65.4776 78.4212C65.5976 79.1012 65.7209 79.8112 65.8476 80.5512C65.9676 81.2912 66.0609 82.0945 66.1276 82.9612L74.2776 81.1112C75.5709 80.7979 76.6642 80.9512 77.5576 81.5712C78.4576 82.1912 79.0609 82.9779 79.3676 83.9312C79.6742 84.8912 79.6442 85.8645 79.2776 86.8512C78.9042 87.8379 78.0709 88.5479 76.7776 88.9812C75.3576 89.4745 73.7376 89.9379 71.9176 90.3712C70.0909 90.8045 68.1909 91.1112 66.2176 91.2912L66.4076 94.3512C67.3942 94.1045 68.3642 93.8879 69.3176 93.7012C70.2776 93.5145 71.2509 93.2679 72.2376 92.9612C73.2242 92.7145 74.0276 92.8245 74.6476 93.2912C75.2609 93.7512 75.6609 94.3512 75.8476 95.0912C76.0342 95.8312 75.9576 96.6045 75.6176 97.4112C75.2776 98.2112 74.6442 98.7645 73.7176 99.0712C72.8509 99.3845 71.8476 99.6779 70.7076 99.9512C69.5676 100.231 68.3809 100.495 67.1476 100.741C67.2676 101.481 67.3742 102.221 67.4676 102.961C67.5609 103.701 67.6676 104.445 67.7876 105.191V105.281C71.1276 104.721 74.4776 104.105 77.8376 103.431C81.2042 102.751 84.5542 102.505 87.8876 102.691Z" fill="#486FFF"/>
<path d="M170.95 103.151C172.123 103.151 173.096 103.538 173.87 104.311C174.636 105.078 175.113 105.941 175.3 106.901C175.486 107.855 175.363 108.795 174.93 109.721C174.496 110.648 173.663 111.268 172.43 111.581C168.17 112.688 163.416 113.398 158.17 113.711C152.923 114.018 147.583 113.801 142.15 113.061L139.74 116.021C139.186 116.701 138.553 117.505 137.84 118.431C137.133 119.358 136.453 120.331 135.8 121.351C135.153 122.365 134.583 123.398 134.09 124.451C133.596 125.498 133.35 126.455 133.35 127.321C133.29 129.175 133.77 130.425 134.79 131.071C135.803 131.718 137.096 131.995 138.67 131.901C140.25 131.808 141.996 131.425 143.91 130.751C145.823 130.071 147.69 129.298 149.51 128.431C151.33 127.565 152.996 126.731 154.51 125.931C156.023 125.131 157.12 124.545 157.8 124.171C157.493 123.125 157.323 122.121 157.29 121.161C157.256 120.208 157.486 119.358 157.98 118.611V118.711C158.353 118.091 158.786 117.845 159.28 117.971C160.02 118.031 160.713 118.261 161.36 118.661C162.013 119.061 162.616 119.555 163.17 120.141C163.723 120.728 164.233 121.345 164.7 121.991C165.16 122.645 165.576 123.248 165.95 123.801C166.443 124.481 166.906 125.128 167.34 125.741C167.773 126.361 168.266 126.981 168.82 127.601C169.44 128.281 170.026 128.898 170.58 129.451C171.133 130.005 171.566 130.715 171.88 131.581C172.186 132.381 172.17 133.278 171.83 134.271C171.49 135.258 170.95 135.935 170.21 136.301L169.93 136.491C169.25 136.798 168.493 137.028 167.66 137.181C166.826 137.335 166.07 137.165 165.39 136.671C164.216 135.871 163.23 134.978 162.43 133.991C161.63 133.005 160.92 131.925 160.3 130.751C158.82 131.798 157.06 132.878 155.02 133.991C152.98 135.098 150.82 136.101 148.54 137.001C146.253 137.895 143.936 138.571 141.59 139.031C139.243 139.498 137.066 139.621 135.06 139.401C133.053 139.188 131.293 138.525 129.78 137.411C128.273 136.305 127.21 134.608 126.59 132.321C126.096 130.655 126.05 128.958 126.45 127.231C126.85 125.498 127.466 123.798 128.3 122.131C129.133 120.465 130.123 118.891 131.27 117.411C132.41 115.931 133.503 114.605 134.55 113.431C134.736 113.185 134.94 112.938 135.16 112.691C135.373 112.445 135.633 112.198 135.94 111.951C132.546 111.145 129.353 110.095 126.36 108.801C123.366 107.501 120.696 105.925 118.35 104.071C118.103 103.825 117.98 103.531 117.98 103.191C117.98 102.858 118.193 102.658 118.62 102.591C120.72 102.345 122.85 102.251 125.01 102.311C127.176 102.378 129.34 102.505 131.5 102.691C133.66 102.871 135.836 103.085 138.03 103.331C140.216 103.578 142.393 103.735 144.56 103.801C149 103.921 153.396 103.828 157.75 103.521C162.103 103.215 166.503 103.091 170.95 103.151ZM164.1 95.0012C162.613 95.9279 160.836 96.5145 158.77 96.7612C156.703 97.0079 154.556 96.9612 152.33 96.6212C150.11 96.2812 147.873 95.6945 145.62 94.8612C143.366 94.0279 141.313 92.9779 139.46 91.7112C137.606 90.4446 136.016 89.0246 134.69 87.4512C133.363 85.8779 132.516 84.1646 132.15 82.3112C132.083 81.8779 132.206 81.4779 132.52 81.1112C132.826 80.7379 133.256 80.6146 133.81 80.7412C134.983 80.9879 136.143 81.3412 137.29 81.8012C138.43 82.2679 139.556 82.7612 140.67 83.2812C141.776 83.8079 142.903 84.3046 144.05 84.7712C145.19 85.2312 146.346 85.6146 147.52 85.9212C148.753 86.2346 150.033 86.4346 151.36 86.5212C152.686 86.6146 154 86.6945 155.3 86.7612C156.593 86.8212 157.873 86.8979 159.14 86.9912C160.406 87.0846 161.626 87.3146 162.8 87.6812C163.6 87.9279 164.28 88.3612 164.84 88.9812C165.393 89.5945 165.733 90.2746 165.86 91.0212C165.98 91.7612 165.9 92.5012 165.62 93.2412C165.346 93.9812 164.84 94.5679 164.1 95.0012Z" fill="#486FFF"/>
<path d="M254.291 127.881C255.338 128.375 256.341 129.068 257.301 129.961C258.255 130.855 258.885 131.858 259.191 132.971C259.378 133.651 259.348 134.315 259.102 134.961C258.855 135.608 258.468 136.165 257.941 136.631C257.421 137.091 256.835 137.368 256.181 137.461C255.535 137.555 254.905 137.385 254.291 136.951C253.611 136.458 253.025 135.901 252.531 135.281C252.038 134.668 251.511 134.051 250.951 133.431C250.458 132.818 249.825 132.185 249.051 131.531C248.285 130.885 247.745 130.191 247.431 129.451C247.311 129.018 247.281 128.571 247.341 128.111C247.401 127.645 247.678 127.288 248.171 127.041C249.165 126.548 250.201 126.441 251.281 126.721C252.361 126.995 253.365 127.381 254.291 127.881ZM210.761 126.301C210.948 126.055 211.241 125.915 211.641 125.881C212.041 125.855 212.335 126.025 212.521 126.391C213.075 127.878 213.198 129.375 212.891 130.881C212.585 132.395 211.998 133.801 211.131 135.101C210.698 135.781 210.111 136.521 209.371 137.321C208.631 138.128 207.815 138.808 206.921 139.361C206.021 139.915 205.108 140.255 204.181 140.381C203.255 140.501 202.361 140.255 201.501 139.641C200.515 138.961 199.941 137.971 199.781 136.671C199.628 135.378 200.171 134.391 201.411 133.711C202.271 133.218 203.148 132.818 204.041 132.511C204.941 132.198 205.791 131.701 206.591 131.021C207.458 130.348 208.198 129.608 208.811 128.801C209.431 128.001 210.081 127.168 210.761 126.301ZM251.602 112.501C251.048 113.981 250.108 115.095 248.781 115.841C247.448 116.581 245.965 117.105 244.331 117.411C242.698 117.718 241.015 117.918 239.281 118.011C237.555 118.105 236.045 118.181 234.751 118.241L232.061 118.431V119.351C232.061 120.591 232.031 122.045 231.971 123.711C231.905 125.378 231.905 127.075 231.971 128.801C232.031 130.528 232.185 132.181 232.431 133.761C232.678 135.335 233.111 136.645 233.731 137.691C234.345 138.745 234.528 139.701 234.281 140.561C234.035 141.428 233.571 142.108 232.891 142.601C232.211 143.095 231.395 143.358 230.441 143.391C229.481 143.418 228.571 143.155 227.711 142.601C226.538 141.801 225.735 140.645 225.301 139.131C224.868 137.618 224.621 135.998 224.561 134.271C224.501 132.538 224.548 130.825 224.701 129.131C224.855 127.431 224.961 125.965 225.021 124.731C225.081 123.738 225.128 122.701 225.161 121.621C225.195 120.541 225.271 119.448 225.391 118.341C222.611 118.215 219.881 117.798 217.201 117.091C214.515 116.378 211.968 115.311 209.561 113.891C208.941 113.525 208.738 112.968 208.951 112.221C209.171 111.481 209.651 111.111 210.391 111.111C213.171 111.425 215.841 111.658 218.401 111.811C220.961 111.965 223.568 111.978 226.221 111.851C226.535 110.251 226.938 108.741 227.431 107.321C227.925 105.901 228.605 104.571 229.471 103.331C229.718 102.965 230.011 102.828 230.351 102.921C230.691 103.015 230.921 103.245 231.041 103.611C231.475 104.845 231.751 106.141 231.871 107.501C231.998 108.861 232.091 110.221 232.151 111.581C233.385 111.515 234.681 111.421 236.041 111.301C237.401 111.175 238.728 111.005 240.021 110.791C241.321 110.571 242.511 110.291 243.591 109.951C244.671 109.618 245.581 109.171 246.321 108.611C246.941 108.178 247.621 108.008 248.361 108.101C249.101 108.195 249.748 108.441 250.301 108.841C250.861 109.248 251.278 109.775 251.551 110.421C251.831 111.068 251.848 111.761 251.602 112.501ZM256.141 92.3112C257.315 91.8779 258.302 91.9245 259.102 92.4512C259.908 92.9779 260.465 93.7045 260.771 94.6312C261.078 95.5579 261.061 96.5145 260.721 97.5012C260.381 98.4879 259.625 99.1979 258.452 99.6312C257.158 100.125 255.631 100.758 253.871 101.531C252.111 102.305 250.321 102.981 248.501 103.561C246.681 104.148 244.875 104.535 243.081 104.721C241.288 104.908 239.715 104.661 238.361 103.981C237.868 103.735 237.465 103.335 237.151 102.781C236.845 102.221 236.691 101.695 236.691 101.201C236.691 100.155 236.845 99.3679 237.151 98.8412C237.465 98.3145 237.775 97.5579 238.081 96.5712C238.448 95.2779 238.665 94.0745 238.731 92.9612C238.791 91.8479 238.651 90.8612 238.311 90.0012C237.971 89.1345 237.368 88.4245 236.501 87.8712C235.641 87.3112 234.438 86.9712 232.891 86.8512C231.038 86.6645 229.155 86.6645 227.241 86.8512C226.748 88.7045 226.055 90.5412 225.161 92.3612C224.268 94.1812 223.235 95.8779 222.061 97.4512C220.888 99.0245 219.575 100.461 218.121 101.761C216.675 103.055 215.178 104.105 213.631 104.911C212.458 105.525 211.348 105.631 210.301 105.231C209.248 104.831 208.445 104.215 207.891 103.381C207.331 102.548 207.115 101.608 207.241 100.561C207.368 99.5079 208.015 98.6112 209.181 97.8712C210.975 96.6979 212.688 95.5079 214.321 94.3012C215.961 93.1012 217.398 91.5745 218.632 89.7212L219.831 87.8712C217.985 88.2379 216.118 88.6079 214.231 88.9812C212.351 89.3479 210.485 89.6879 208.631 90.0012C208.258 90.1212 207.918 90.0745 207.611 89.8612C207.305 89.6412 207.075 89.3645 206.921 89.0312C206.761 88.6912 206.715 88.3345 206.781 87.9612C206.841 87.5879 207.088 87.3112 207.521 87.1312C209.621 86.1379 211.968 85.1945 214.561 84.3012C217.155 83.4079 219.838 82.6845 222.611 82.1312C222.858 81.6312 223.091 81.1212 223.311 80.6012C223.525 80.0745 223.785 79.5645 224.091 79.0712C224.158 79.0712 224.191 79.0412 224.191 78.9812C224.191 78.9145 224.221 78.8212 224.281 78.7012C224.408 78.3945 224.655 77.9945 225.021 77.5012C225.395 76.9412 225.935 76.6912 226.641 76.7512C227.355 76.8179 227.801 77.2212 227.981 77.9612C228.108 78.4545 228.171 78.9945 228.171 79.5812C228.171 80.1679 228.171 80.7379 228.171 81.2912C230.458 81.1045 232.681 81.1512 234.841 81.4312C237.001 81.7112 239.008 82.3145 240.861 83.2412C242.281 83.9212 243.455 84.7545 244.382 85.7412C245.308 86.7279 245.895 88.0245 246.141 89.6312C246.388 91.0512 246.185 92.4245 245.531 93.7512C244.885 95.0779 244.315 96.3579 243.821 97.5912C244.808 97.2845 245.888 96.8845 247.061 96.3912C248.235 95.8979 249.395 95.3879 250.541 94.8612C251.681 94.3345 252.745 93.8412 253.731 93.3812C254.718 92.9145 255.521 92.5579 256.141 92.3112Z" fill="#486FFF"/>
<path d="M337.163 137.881C337.47 138.561 337.423 139.255 337.023 139.961C336.623 140.675 336.177 141.215 335.683 141.581C334.017 142.695 332.133 143.235 330.033 143.201C327.933 143.175 325.88 142.775 323.873 142.001C321.867 141.228 320.03 140.161 318.363 138.801C316.697 137.448 315.4 135.998 314.473 134.451C314.167 133.898 314.26 133.435 314.753 133.061C315.247 132.695 315.71 132.725 316.143 133.151C317.13 134.145 318.317 134.978 319.703 135.651C321.097 136.331 322.533 136.795 324.013 137.041C325.493 137.288 326.99 137.321 328.503 137.141C330.017 136.955 331.39 136.521 332.623 135.841C333.55 135.288 334.4 135.241 335.173 135.701C335.947 136.168 336.58 136.831 337.073 137.691C337.073 137.691 337.103 137.755 337.163 137.881ZM309.843 119.081C309.903 118.648 310.15 118.415 310.583 118.381C311.017 118.355 311.327 118.495 311.513 118.801C312.193 119.848 312.7 120.958 313.033 122.131C313.373 123.305 313.577 124.525 313.643 125.791C313.703 127.058 313.64 128.308 313.453 129.541C313.267 130.775 313.02 131.948 312.713 133.061C312.407 134.115 311.99 135.211 311.463 136.351C310.937 137.491 310.273 138.508 309.473 139.401C308.667 140.301 307.74 140.921 306.693 141.261C305.647 141.601 304.473 141.431 303.173 140.751C302.307 140.258 301.75 139.548 301.503 138.621C301.257 137.695 301.38 136.798 301.873 135.931C302.187 135.318 302.56 134.901 302.993 134.681C303.42 134.468 303.973 134.298 304.653 134.171L305.023 133.801C305.09 133.435 305.323 133.005 305.723 132.511C306.123 132.011 306.447 131.608 306.693 131.301C307.867 129.328 308.593 127.338 308.873 125.331C309.147 123.325 309.47 121.241 309.843 119.081ZM302.433 127.131C302.867 128.431 302.727 129.515 302.013 130.381C301.307 131.241 300.397 131.811 299.283 132.091C298.17 132.371 297.09 132.278 296.043 131.811C294.997 131.351 294.38 130.441 294.193 129.081C293.633 125.008 293.663 121.025 294.283 117.131C294.343 116.638 294.45 116.051 294.603 115.371C294.763 114.691 294.95 114.015 295.163 113.341C295.377 112.661 295.64 112.011 295.953 111.391C296.26 110.771 296.66 110.278 297.153 109.911C296.293 109.605 295.613 109.035 295.113 108.201C294.62 107.368 294.467 106.425 294.653 105.371C294.84 104.138 295.073 102.888 295.353 101.621C295.627 100.355 295.827 99.1046 295.953 97.8712C296.013 97.5646 296.043 97.3012 296.043 97.0812C296.043 96.8679 296.043 96.6079 296.043 96.3012C294.377 97.5946 292.603 98.6279 290.723 99.4012C288.837 100.175 286.907 100.311 284.933 99.8112C283.633 99.5046 282.69 98.7946 282.103 97.6812C281.517 96.5746 281.317 95.4012 281.503 94.1612C281.503 94.1012 281.52 94.0579 281.553 94.0312C281.58 93.9979 281.593 93.9179 281.593 93.7912C281.72 93.1179 282.03 92.5479 282.523 92.0812C283.017 91.6212 283.573 91.2679 284.193 91.0212C285.053 90.7079 285.917 90.5679 286.783 90.6012C287.65 90.6346 288.547 90.4346 289.473 90.0012C291.013 89.3812 292.523 88.5146 294.003 87.4012C294.19 87.2212 294.7 86.7446 295.533 85.9712C296.367 85.1979 297.23 84.3779 298.123 83.5112C299.023 82.6512 299.813 81.8646 300.493 81.1512C301.167 80.4446 301.473 80.0279 301.413 79.9012C301.107 79.7212 300.97 79.4446 301.003 79.0712C301.03 78.6979 301.197 78.4512 301.503 78.3312C302.43 77.8379 303.263 77.7912 304.003 78.1912C304.75 78.5912 305.213 79.3179 305.393 80.3712C305.52 81.0446 305.507 81.7679 305.353 82.5412C305.2 83.3146 304.967 84.0879 304.653 84.8612C304.347 85.6346 304.007 86.3746 303.633 87.0812C303.267 87.7946 302.897 88.4279 302.523 88.9812C302.09 89.6612 301.66 90.2946 301.233 90.8812C300.8 91.4679 300.337 92.0679 299.843 92.6812C300.21 93.4879 300.487 94.3212 300.673 95.1812C300.86 96.0479 301.047 96.8812 301.233 97.6812C301.54 99.1012 301.787 100.521 301.973 101.941C302.16 103.361 302.22 104.781 302.153 106.201C302.153 108.055 301.26 109.321 299.473 110.001C299.227 110.001 299.07 110.031 299.003 110.091C299.13 110.465 299.193 110.681 299.193 110.741C299.193 111.055 299.21 111.365 299.243 111.671C299.27 111.978 299.283 112.285 299.283 112.591C301.443 111.238 303.807 110.315 306.373 109.821C308.933 109.328 311.51 108.988 314.103 108.801C315.217 108.735 316.437 108.671 317.763 108.611C319.09 108.551 320.433 108.568 321.793 108.661C323.147 108.755 324.473 108.971 325.773 109.311C327.067 109.651 328.177 110.221 329.103 111.021C330.837 112.501 331.67 114.198 331.603 116.111C331.543 118.025 330.973 119.908 329.893 121.761C328.813 123.615 327.423 125.281 325.723 126.761C324.03 128.248 322.44 129.268 320.953 129.821C320.4 130.068 319.767 130.068 319.053 129.821C318.347 129.575 317.807 129.205 317.433 128.711L316.693 127.881C316.2 127.321 315.983 126.718 316.043 126.071C316.11 125.425 316.39 124.855 316.883 124.361C317.437 123.801 318.007 123.351 318.593 123.011C319.18 122.671 319.783 122.348 320.403 122.041C321.017 121.735 321.633 121.425 322.253 121.111C322.873 120.805 323.46 120.375 324.013 119.821C324.447 119.388 324.923 118.925 325.443 118.431C325.97 117.938 326.327 117.428 326.513 116.901C326.7 116.375 326.653 115.818 326.373 115.231C326.093 114.645 325.4 114.015 324.293 113.341C323.733 113.028 322.9 112.871 321.793 112.871C320.68 112.871 319.783 112.841 319.103 112.781C317.377 112.655 315.693 112.671 314.053 112.831C312.42 112.985 310.8 113.185 309.193 113.431C307.587 113.678 305.983 113.925 304.383 114.171C302.777 114.418 301.14 114.571 299.473 114.631C299.78 116.791 300.18 118.921 300.673 121.021C301.167 123.121 301.753 125.158 302.433 127.131ZM314.473 95.0012C313.053 94.5679 311.74 94.0112 310.533 93.3312C309.333 92.6512 308.393 91.7879 307.713 90.7412C307.527 90.4346 307.48 90.1412 307.573 89.8612C307.667 89.5812 307.867 89.4112 308.173 89.3512C309.227 89.0446 310.323 88.9212 311.463 88.9812C312.603 89.0412 313.73 89.1346 314.843 89.2612C315.71 84.8146 317.283 80.9246 319.563 77.5912C319.81 77.2779 320.137 77.1679 320.543 77.2612C320.943 77.3546 321.113 77.6179 321.053 78.0512C320.8 79.9646 320.473 81.8479 320.073 83.7012C319.673 85.5546 319.413 87.4379 319.293 89.3512C321.947 89.2246 324.6 88.9479 327.253 88.5212C328.367 88.3346 329.217 88.5646 329.803 89.2112C330.39 89.8579 330.697 90.6312 330.723 91.5312C330.757 92.4246 330.51 93.2712 329.983 94.0712C329.457 94.8779 328.64 95.3712 327.533 95.5512C326.42 95.7379 325.17 95.8612 323.783 95.9212C322.39 95.9879 320.983 95.9579 319.563 95.8312C319.937 97.6246 320.557 99.0146 321.423 100.001C322.283 100.988 323.33 101.681 324.563 102.081C325.803 102.488 327.163 102.645 328.643 102.551C330.123 102.458 331.667 102.165 333.273 101.671C333.767 101.545 334.307 101.545 334.893 101.671C335.48 101.791 335.927 102.068 336.233 102.501C336.727 103.055 337.007 103.518 337.073 103.891C337.133 104.258 337.1 104.815 336.973 105.561C336.913 106.055 336.653 106.501 336.193 106.901C335.727 107.301 335.247 107.565 334.753 107.691C332.967 108.185 331.147 108.508 329.293 108.661C327.44 108.815 325.663 108.705 323.963 108.331C322.27 107.965 320.727 107.271 319.333 106.251C317.947 105.231 316.82 103.765 315.953 101.851C315.46 100.805 315.107 99.7079 314.893 98.5612C314.673 97.4212 314.533 96.2346 314.473 95.0012Z" fill="#486FFF"/>
<path d="M413.555 78.3312H413.645C413.459 78.3912 413.365 78.4379 413.365 78.4712C413.365 78.4979 413.429 78.4512 413.555 78.3312ZM415.685 85.4612C414.945 85.1545 414.359 84.6745 413.925 84.0212C413.492 83.3745 413.122 82.7112 412.815 82.0312C412.629 81.4779 412.505 80.8912 412.445 80.2712C412.385 79.6579 412.602 79.1045 413.095 78.6112C413.215 78.4845 413.369 78.3912 413.555 78.3312C413.802 78.2712 414.019 78.2245 414.205 78.1912C414.392 78.1579 414.575 78.1412 414.755 78.1412L415.775 78.5112C415.842 78.5779 415.935 78.6112 416.055 78.6112C416.115 78.6712 416.179 78.7012 416.245 78.7012C416.305 78.7012 416.272 78.6712 416.145 78.6112C416.459 78.7312 416.739 78.8212 416.985 78.8812C417.232 78.9479 417.415 79.0112 417.535 79.0712C418.709 79.2579 419.605 79.8145 420.225 80.7412C420.779 81.6012 420.915 82.4345 420.635 83.2412C420.362 84.0412 419.885 84.6879 419.205 85.1812C419.205 85.2412 419.189 85.2712 419.155 85.2712C419.129 85.2712 419.115 85.3045 419.115 85.3712C418.622 85.7379 418.049 85.8912 417.395 85.8312C416.749 85.7712 416.179 85.6479 415.685 85.4612ZM405.965 120.371C407.879 119.945 409.745 119.545 411.565 119.171C413.385 118.798 415.192 118.488 416.985 118.241C417.292 118.181 417.692 118.245 418.185 118.431C418.245 117.751 418.275 117.088 418.275 116.441C418.275 115.795 418.275 115.131 418.275 114.451C417.909 114.878 417.385 115.248 416.705 115.561C415.039 116.241 413.309 116.811 411.515 117.271C409.729 117.738 407.909 118.125 406.055 118.431C406.055 118.738 406.055 119.061 406.055 119.401C406.055 119.741 406.025 120.065 405.965 120.371ZM390.585 122.601C393.425 122.661 396.329 122.381 399.295 121.761L399.575 118.801C396.795 118.801 393.922 118.368 390.955 117.501C390.835 118.368 390.745 119.218 390.685 120.051C390.619 120.885 390.585 121.735 390.585 122.601ZM405.775 106.391C405.835 107.258 405.899 108.155 405.965 109.081C406.025 110.001 406.055 110.925 406.055 111.851L415.125 110.001C416.239 109.941 417.135 110.188 417.815 110.741C417.755 110.555 417.709 110.355 417.675 110.141C417.642 109.928 417.565 109.698 417.445 109.451C417.072 108.031 416.469 106.905 415.635 106.071C414.802 105.238 413.845 104.651 412.765 104.311C411.685 103.971 410.529 103.848 409.295 103.941C408.062 104.028 406.859 104.258 405.685 104.631C405.685 104.938 405.699 105.231 405.725 105.511C405.759 105.791 405.775 106.085 405.775 106.391ZM420.505 103.611C422.292 106.205 423.465 109.091 424.025 112.271C424.579 115.451 424.702 118.615 424.395 121.761C424.269 123.121 424.082 124.635 423.835 126.301C423.589 127.968 423.249 129.635 422.815 131.301C422.382 132.968 421.825 134.558 421.145 136.071C420.472 137.585 419.639 138.865 418.645 139.911C417.225 141.151 415.682 141.368 414.015 140.561C413.835 140.501 413.682 140.441 413.555 140.381C413.429 140.315 413.305 140.251 413.185 140.191C412.505 139.885 412.012 139.408 411.705 138.761C411.392 138.108 411.282 137.445 411.375 136.771C411.469 136.091 411.715 135.471 412.115 134.911C412.522 134.358 413.095 133.988 413.835 133.801C414.202 133.741 414.555 133.355 414.895 132.641C415.235 131.935 415.545 131.118 415.825 130.191C416.105 129.265 416.369 128.278 416.615 127.231C416.862 126.178 417.075 125.251 417.255 124.451C415.655 125.378 413.775 125.995 411.615 126.301C409.449 126.608 407.379 126.825 405.405 126.951C405.032 130.158 404.475 133.245 403.735 136.211C403.489 137.258 402.982 137.968 402.215 138.341C401.442 138.715 400.652 138.791 399.845 138.571C399.045 138.358 398.369 137.911 397.815 137.231C397.255 136.551 397.069 135.655 397.255 134.541L398.455 127.411C397.222 127.411 395.972 127.351 394.705 127.231C393.445 127.105 392.229 126.825 391.055 126.391C391.175 126.951 391.329 127.491 391.515 128.011C391.702 128.538 391.885 129.048 392.065 129.541C392.132 129.668 392.195 129.808 392.255 129.961C392.315 130.115 392.375 130.285 392.435 130.471C392.869 131.518 392.855 132.411 392.395 133.151C391.929 133.898 391.279 134.425 390.445 134.731C389.612 135.038 388.732 135.098 387.805 134.911C386.885 134.731 386.145 134.208 385.585 133.341C384.105 130.995 383.382 128.495 383.415 125.841C383.442 123.188 383.765 120.565 384.385 117.971C384.632 117.045 384.925 115.978 385.265 114.771C385.605 113.565 386.052 112.391 386.605 111.251C387.159 110.111 387.822 109.095 388.595 108.201C389.369 107.301 390.312 106.698 391.425 106.391C391.852 106.331 392.189 106.518 392.435 106.951C392.869 108.185 392.932 109.435 392.625 110.701C392.319 111.961 391.979 113.211 391.605 114.451C393.025 114.325 394.432 114.155 395.825 113.941C397.212 113.721 398.615 113.458 400.035 113.151C400.095 112.105 400.142 111.071 400.175 110.051C400.202 109.031 400.215 107.998 400.215 106.951C399.229 107.445 398.259 107.921 397.305 108.381C396.345 108.848 395.342 109.235 394.295 109.541C393.802 109.728 393.462 109.618 393.275 109.211C393.089 108.811 393.149 108.458 393.455 108.151C395.249 105.805 397.472 103.798 400.125 102.131C400.065 101.265 400.019 100.368 399.985 99.4412C399.959 98.5145 399.882 97.5912 399.755 96.6712C399.569 96.7312 399.199 96.7612 398.645 96.7612C397.719 96.8212 396.699 96.8045 395.585 96.7112C394.479 96.6179 393.399 96.3879 392.345 96.0212C391.299 95.6479 390.372 95.1379 389.565 94.4912C388.765 93.8445 388.212 92.9945 387.905 91.9412C387.779 91.6345 387.839 91.3579 388.085 91.1112C388.332 90.8645 388.612 90.8012 388.925 90.9212C390.652 91.4812 392.365 91.7145 394.065 91.6212C395.759 91.5279 397.439 91.2345 399.105 90.7412C398.985 89.8745 398.862 89.0412 398.735 88.2412C398.615 87.4345 398.462 86.6012 398.275 85.7412C398.215 85.3679 398.355 85.0579 398.695 84.8112C399.035 84.5645 399.359 84.5945 399.665 84.9012C400.959 86.2012 402.009 87.6845 402.815 89.3512C404.109 88.7979 405.359 88.2112 406.565 87.5912C407.765 86.9712 408.952 86.3212 410.125 85.6412C410.932 85.2145 411.689 85.1079 412.395 85.3212C413.109 85.5345 413.665 85.9212 414.065 86.4812C414.465 87.0345 414.665 87.6979 414.665 88.4712C414.665 89.2445 414.389 89.9379 413.835 90.5512C412.722 91.7912 411.362 92.8579 409.755 93.7512C408.155 94.6445 406.459 95.3379 404.665 95.8312C404.912 97.1312 405.099 98.4279 405.225 99.7212C407.999 98.7345 410.759 98.4712 413.505 98.9312C416.252 99.3979 418.585 100.958 420.505 103.611ZM372.255 125.101C372.189 125.781 372.155 126.398 372.155 126.951C372.155 127.505 372.219 127.998 372.345 128.431C373.459 127.751 374.292 126.888 374.845 125.841C375.279 125.035 375.879 124.541 376.645 124.361C377.419 124.175 378.132 124.218 378.785 124.491C379.432 124.771 379.955 125.235 380.355 125.881C380.755 126.535 380.862 127.291 380.675 128.151C380.369 129.451 379.629 130.718 378.455 131.951C377.282 133.185 375.985 134.125 374.565 134.771C373.145 135.425 371.755 135.628 370.395 135.381C369.042 135.135 367.995 134.145 367.255 132.411C366.755 131.365 366.552 130.238 366.645 129.031C366.739 127.831 366.909 126.611 367.155 125.371C364.195 125.065 361.882 123.678 360.215 121.211C360.029 120.898 360.042 120.588 360.255 120.281C360.475 119.975 360.739 119.851 361.045 119.911C362.345 119.971 363.612 120.001 364.845 120.001C366.079 120.001 367.312 119.878 368.545 119.631C369.165 117.531 369.969 115.648 370.955 113.981C370.089 113.861 369.285 113.661 368.545 113.381C367.805 113.101 367.159 112.655 366.605 112.041C366.419 111.795 366.325 111.518 366.325 111.211C366.325 110.898 366.479 110.681 366.785 110.561C367.652 110.068 368.532 109.711 369.425 109.491C370.319 109.278 371.229 109.015 372.155 108.701C373.082 108.395 373.995 107.948 374.895 107.361C375.789 106.775 376.759 106.421 377.805 106.301C378.919 106.115 379.799 106.421 380.445 107.221C381.092 108.028 381.169 108.985 380.675 110.091C380.369 110.711 379.939 111.238 379.385 111.671C378.825 112.105 378.205 112.475 377.525 112.781C376.852 113.088 376.159 113.335 375.445 113.521C374.739 113.708 374.075 113.831 373.455 113.891C373.329 114.571 373.252 115.281 373.225 116.021C373.192 116.761 373.115 117.501 372.995 118.241C374.229 117.688 375.432 117.101 376.605 116.481C377.779 115.868 378.982 115.345 380.215 114.911C380.955 114.665 381.649 114.725 382.295 115.091C382.949 115.465 383.445 115.975 383.785 116.621C384.125 117.275 384.249 117.955 384.155 118.661C384.062 119.375 383.705 119.945 383.085 120.371C381.725 121.365 380.089 122.308 378.175 123.201C376.262 124.095 374.289 124.728 372.255 125.101ZM369.755 103.151C368.889 105.185 367.715 107.005 366.235 108.611C364.749 110.218 363.019 111.085 361.045 111.211C359.999 111.331 359.072 111.068 358.265 110.421C357.465 109.775 356.909 108.988 356.595 108.061C356.289 107.135 356.259 106.191 356.505 105.231C356.752 104.278 357.369 103.521 358.355 102.961C359.409 102.408 360.412 101.698 361.365 100.831C362.325 99.9712 363.145 99.0779 363.825 98.1512C364.072 97.7779 364.425 97.1612 364.885 96.3012C365.352 95.4345 365.692 94.5379 365.905 93.6112C366.125 92.6845 366.172 91.8512 366.045 91.1112C365.925 90.3712 365.462 89.9079 364.655 89.7212C364.289 89.5945 364.089 89.3479 364.055 88.9812C364.022 88.6079 364.192 88.3612 364.565 88.2412C365.739 87.8079 366.759 87.8379 367.625 88.3312C368.485 88.8245 369.179 89.5512 369.705 90.5112C370.232 91.4645 370.619 92.5279 370.865 93.7012C371.112 94.8745 371.235 95.9245 371.235 96.8512C371.235 97.0379 371.235 97.2379 371.235 97.4512C371.235 97.6712 371.202 97.9045 371.135 98.1512H372.715C374.075 98.0245 375.279 97.6845 376.325 97.1312C377.379 96.5779 378.522 96.1445 379.755 95.8312C380.309 95.7112 380.862 95.7579 381.415 95.9712C381.975 96.1912 382.425 96.5012 382.765 96.9012C383.105 97.3012 383.322 97.7779 383.415 98.3312C383.502 98.8912 383.362 99.4479 382.995 100.001C382.442 100.801 381.639 101.495 380.585 102.081C379.539 102.668 378.395 103.101 377.155 103.381C375.922 103.661 374.659 103.785 373.365 103.751C372.065 103.718 370.862 103.518 369.755 103.151Z" fill="#486FFF"/>
<path d="M413.555 78.3312H413.645C413.459 78.3912 413.365 78.4379 413.365 78.4712C413.365 78.4979 413.429 78.4512 413.555 78.3312ZM413.555 78.3312C413.369 78.3912 413.215 78.4845 413.095 78.6112C412.602 79.1045 412.385 79.6579 412.445 80.2712C412.505 80.8912 412.629 81.4779 412.815 82.0312C413.122 82.7112 413.492 83.3745 413.925 84.0212C414.359 84.6745 414.945 85.1545 415.685 85.4612C416.179 85.6479 416.749 85.7712 417.395 85.8312C418.049 85.8912 418.622 85.7379 419.115 85.3712C419.115 85.3045 419.129 85.2712 419.155 85.2712C419.189 85.2712 419.205 85.2412 419.205 85.1812C419.885 84.6879 420.362 84.0412 420.635 83.2412C420.915 82.4345 420.779 81.6012 420.225 80.7412C419.605 79.8145 418.709 79.2579 417.535 79.0712C417.415 79.0112 417.232 78.9479 416.985 78.8812C416.739 78.8212 416.459 78.7312 416.145 78.6112C416.272 78.6712 416.305 78.7012 416.245 78.7012C416.179 78.7012 416.115 78.6712 416.055 78.6112C415.935 78.6112 415.842 78.5779 415.775 78.5112L414.755 78.1412C414.575 78.1412 414.392 78.1579 414.205 78.1912C414.019 78.2245 413.802 78.2712 413.555 78.3312ZM21.3378 138.039C20.5799 138.039 19.822 137.787 19.064 137.281C6.8108 128.692 0.621025 118.965 0.999991 108.606C1.50528 92.1845 18.3061 79.9313 22.8537 76.8996C25.0012 72.0993 27.0223 63.6358 28.6645 57.446C30.1804 51.3825 31.0646 48.0982 31.8225 46.3297C33.5911 43.0453 36.2438 41.1505 39.1492 41.4031C42.5599 41.5294 45.2127 44.3085 47.2338 49.3614C50.3919 57.6986 52.792 59.3408 55.4447 59.2145C57.8449 58.8355 63.6557 49.993 65.8031 46.7086C67.4453 44.1822 68.8349 42.0347 70.0981 40.6452C72.6245 37.7398 75.151 38.2451 76.2879 38.4977C79.9512 39.6346 81.7197 44.0559 82.8566 54.4143C83.2356 57.6986 84.1198 60.0988 85.5094 61.1093C86.0147 61.4883 86.8989 61.9936 88.9201 61.7409C90.9412 61.4883 96.1204 57.446 100.668 54.0353C109.258 47.4666 119.869 39.1293 131.87 35.9713C153.976 30.0341 170.019 38.3714 180.124 45.1928C183.914 47.7192 187.577 51.2562 190.988 54.5406C198.441 61.7409 205.389 68.436 215.242 68.3097C226.232 68.1834 236.717 58.7092 246.444 40.1399C247.201 38.624 248.086 37.1082 248.97 35.5923C243.664 20.4337 237.98 6.03297 237.854 5.90664C237.096 3.88549 238.106 1.6117 240.127 0.727445C242.149 -0.0304869 244.422 0.980089 245.307 3.00124C245.307 3.12756 249.728 14.3702 254.528 27.5077C261.476 18.9178 271.076 12.2227 285.856 13.2333C293.814 13.7386 299.878 16.644 304.173 21.8232C310.994 30.1605 310.741 42.2874 309.857 48.7298C308.089 63.1305 293.056 70.9624 279.792 70.2045C264.886 69.3203 257.181 56.9407 252.76 45.6981C241.77 65.9096 229.264 76.268 215.621 76.3943C202.483 76.6469 193.515 67.9307 185.683 60.3514C182.272 57.067 179.114 54.0353 175.956 51.8878C166.355 45.4454 152.839 38.624 134.143 43.6769C123.785 46.456 113.805 54.1616 105.721 60.3514C99.1521 65.5306 94.3519 69.1939 90.057 69.6992C86.5199 70.2045 83.2356 69.3203 80.8355 67.4254C77.8037 65.0253 75.7826 60.8567 75.2773 55.2985C75.0246 52.3931 74.6457 50.372 74.2667 48.8561C73.7614 49.4877 73.3825 50.2456 72.8772 51.0036C66.5611 59.8461 61.6345 66.7938 55.8237 67.0465C45.718 67.6781 41.6757 57.1934 39.7808 52.1405C39.4019 51.2562 39.1492 50.4983 38.8966 50.1193C38.3913 51.3825 37.2544 55.6775 36.3701 59.3408C34.4753 66.7938 32.2015 76.0153 29.5487 81.4472L29.0435 82.4577L28.0329 83.0893C27.9066 83.2157 9.33724 94.711 8.95827 108.985C8.70563 116.565 13.6322 123.891 23.7379 130.839C25.5064 132.102 26.0117 134.502 24.7485 136.397C23.8643 137.408 22.601 138.039 21.3378 138.039ZM257.434 36.4766C257.56 36.8555 257.686 37.3608 257.812 37.7398C263.371 54.0353 270.192 61.4883 279.792 62.1199C289.519 62.7515 300.383 57.446 301.52 47.5929C302.151 42.4137 302.53 32.8132 297.604 26.7498C294.825 23.3391 290.656 21.4442 284.972 21.0653C271.582 20.181 263.371 27.5077 257.434 36.4766ZM44.7252 160.665L47.6652 163.605C48.2986 162.759 48.6152 161.779 48.6152 160.665C48.6152 159.285 48.1286 158.109 47.1552 157.135C46.1752 156.162 44.9952 155.675 43.6152 155.675C42.2352 155.675 41.0619 156.162 40.0952 157.135C39.1152 158.109 38.6252 159.285 38.6252 160.665C38.6252 162.045 39.1152 163.222 40.0952 164.195C41.0619 165.175 42.2352 165.665 43.6152 165.665C44.6086 165.665 45.4952 165.412 46.2752 164.905L43.3852 162.005L44.7252 160.665ZM49.3752 168.005L47.6452 166.275C46.4852 167.135 45.1419 167.565 43.6152 167.565C41.7152 167.565 40.0886 166.892 38.7352 165.545C37.3952 164.199 36.7252 162.572 36.7252 160.665C36.7252 158.765 37.3952 157.139 38.7352 155.785C40.0886 154.439 41.7152 153.765 43.6152 153.765C45.5219 153.765 47.1486 154.439 48.4952 155.785C49.8419 157.139 50.5152 158.765 50.5152 160.665C50.5152 162.305 50.0186 163.739 49.0252 164.965L50.7152 166.655L49.3752 168.005ZM61.9159 167.325V154.005H60.0059V167.325H61.9159ZM73.6619 154.005H71.7719V167.325H73.6819V157.425L80.3519 167.325H82.2419V154.005H80.3319V163.905L73.6619 154.005ZM105.459 159.715H98.1492V161.615H103.539C103.366 162.595 102.906 163.455 102.159 164.195C101.179 165.175 99.9992 165.665 98.6192 165.665C97.2392 165.665 96.0659 165.175 95.0992 164.195C94.1192 163.222 93.6292 162.045 93.6292 160.665C93.6292 159.285 94.1192 158.109 95.0992 157.135C96.0659 156.162 97.2392 155.675 98.6192 155.675C100.173 155.675 101.449 156.269 102.449 157.455L103.909 156.235C102.529 154.589 100.766 153.765 98.6192 153.765C96.7192 153.765 95.0925 154.439 93.7392 155.785C92.3992 157.139 91.7292 158.765 91.7292 160.665C91.7292 162.572 92.3992 164.199 93.7392 165.545C95.0925 166.892 96.7192 167.565 98.6192 167.565C100.526 167.565 102.153 166.892 103.499 165.545C104.846 164.199 105.519 162.572 105.519 160.665C105.519 160.345 105.499 160.029 105.459 159.715ZM119.97 161.305V167.325H121.88V161.305L127.58 154.005H125.18L120.93 159.445L116.68 154.005H114.27L119.97 161.305ZM141.929 167.565C143.382 167.565 144.619 167.145 145.639 166.305C146.659 165.472 147.169 164.465 147.169 163.285V154.005H145.259V163.285C145.259 163.939 144.936 164.499 144.289 164.965C143.636 165.432 142.849 165.665 141.929 165.665C141.009 165.665 140.226 165.432 139.579 164.965C138.932 164.499 138.609 163.939 138.609 163.285V154.005H136.699V163.285C136.699 164.465 137.209 165.472 138.229 166.305C139.256 167.145 140.489 167.565 141.929 167.565ZM158.916 154.005H157.026V167.325H158.936V157.425L165.606 167.325H167.496V154.005H165.586V163.905L158.916 154.005ZM199.484 167.565C201.624 167.565 203.384 166.745 204.764 165.105L203.304 163.875C202.304 165.069 201.03 165.665 199.484 165.665C198.104 165.665 196.927 165.175 195.954 164.195C194.974 163.222 194.484 162.045 194.484 160.665C194.484 159.285 194.974 158.109 195.954 157.135C196.927 156.162 198.104 155.675 199.484 155.675C201.03 155.675 202.304 156.269 203.304 157.455L204.764 156.235C203.384 154.589 201.624 153.765 199.484 153.765C197.577 153.765 195.95 154.439 194.604 155.785C193.257 157.139 192.584 158.765 192.584 160.665C192.584 162.572 193.257 164.199 194.604 165.545C195.95 166.892 197.577 167.565 199.484 167.565ZM220.781 153.765C222.681 153.765 224.308 154.439 225.661 155.785C227.001 157.139 227.671 158.765 227.671 160.665C227.671 162.572 227.001 164.199 225.661 165.545C224.308 166.892 222.681 167.565 220.781 167.565C218.874 167.565 217.248 166.892 215.901 165.545C214.554 164.199 213.881 162.572 213.881 160.665C213.881 158.765 214.554 157.139 215.901 155.785C217.248 154.439 218.874 153.765 220.781 153.765ZM220.781 155.675C219.401 155.675 218.224 156.162 217.251 157.135C216.271 158.109 215.781 159.285 215.781 160.665C215.781 162.045 216.271 163.222 217.251 164.195C218.224 165.175 219.401 165.665 220.781 165.665C222.161 165.665 223.338 165.175 224.311 164.195C225.284 163.222 225.771 162.045 225.771 160.665C225.771 159.285 225.284 158.109 224.311 157.135C223.338 156.162 222.161 155.675 220.781 155.675ZM240.832 167.325V155.905H236.792V154.005H246.782V155.905H242.732V167.325H240.832ZM259.937 167.325V155.905H255.897V154.005H265.887V155.905H261.837V167.325H259.937ZM284.373 163.765H278.213L276.703 167.325H274.633L280.283 154.005H282.293L287.943 167.325H285.883L284.373 163.765ZM279.023 161.855H283.563L281.293 156.505L279.023 161.855ZM310.422 159.715H303.112V161.615H308.502C308.328 162.595 307.868 163.455 307.122 164.195C306.142 165.175 304.962 165.665 303.582 165.665C302.202 165.665 301.028 165.175 300.062 164.195C299.082 163.222 298.592 162.045 298.592 160.665C298.592 159.285 299.082 158.109 300.062 157.135C301.028 156.162 302.202 155.675 303.582 155.675C305.135 155.675 306.412 156.269 307.412 157.455L308.872 156.235C307.492 154.589 305.728 153.765 303.582 153.765C301.682 153.765 300.055 154.439 298.702 155.785C297.362 157.139 296.692 158.765 296.692 160.665C296.692 162.572 297.362 164.199 298.702 165.545C300.055 166.892 301.682 167.565 303.582 167.565C305.488 167.565 307.115 166.892 308.462 165.545C309.808 164.199 310.482 162.572 310.482 160.665C310.482 160.345 310.462 160.029 310.422 159.715ZM319.973 154.005H329.492V155.905H321.883V159.715H329.492V161.615H321.883V165.425H329.492V167.325H319.973V154.005ZM81.4976 129.631L82.0576 130.101C82.2376 129.235 82.3609 128.415 82.4276 127.641C82.4876 126.875 82.5176 126.151 82.5176 125.471V125.371C82.0842 125.805 81.6509 126.055 81.2176 126.121C79.3642 126.675 77.3742 127.215 75.2476 127.741C73.1142 128.261 70.9542 128.661 68.7676 128.941C66.5742 129.221 64.3976 129.298 62.2376 129.171C60.0776 129.051 58.0409 128.621 56.1276 127.881C56.1276 128.555 56.1409 129.231 56.1676 129.911C56.2009 130.591 56.2476 131.271 56.3076 131.951C58.5942 132.138 60.8476 132.061 63.0676 131.721C65.2942 131.381 67.5476 131.025 69.8276 130.651C70.6342 130.531 71.5442 130.331 72.5576 130.051C73.5776 129.771 74.6276 129.541 75.7076 129.361C76.7876 129.175 77.8376 129.081 78.8576 129.081C79.8776 129.081 80.7576 129.265 81.4976 129.631ZM73.4376 119.081C70.4776 119.388 67.5142 119.898 64.5476 120.611C61.5876 121.318 58.6242 121.735 55.6576 121.861C55.7842 122.535 55.8609 123.165 55.8876 123.751C55.9209 124.338 55.9676 124.941 56.0276 125.561C57.8209 125.128 59.6742 124.788 61.5876 124.541C63.5009 124.295 65.3842 124.018 67.2376 123.711C69.3976 123.278 71.5109 122.798 73.5776 122.271C75.6442 121.745 77.7609 121.268 79.9276 120.841C80.6009 120.715 81.1242 120.745 81.4976 120.931C81.0042 120.005 80.0776 119.388 78.7176 119.081C77.8576 118.895 76.9776 118.818 76.0776 118.851C75.1842 118.878 74.3042 118.955 73.4376 119.081ZM82.6976 115.741C84.6176 116.608 86.0542 118.045 87.0076 120.051C87.9676 122.058 88.5842 124.235 88.8576 126.581C89.1376 128.928 89.1242 131.288 88.8176 133.661C88.5042 136.041 88.0709 138.001 87.5176 139.541C86.9642 141.028 86.1142 141.955 84.9676 142.321C83.8276 142.695 82.7476 142.695 81.7276 142.321C80.7076 141.955 79.9209 141.261 79.3676 140.241C78.8142 139.221 78.8776 138.031 79.5576 136.671L80.4776 134.731C80.4176 134.791 80.2642 134.821 80.0176 134.821C76.2509 135.561 72.3909 136.148 68.4376 136.581C64.4909 137.015 60.6642 136.705 56.9576 135.651L57.2376 136.951C57.6642 138.371 57.5409 139.561 56.8676 140.521C56.1876 141.475 55.2909 142.105 54.1776 142.411C53.0642 142.725 51.9542 142.665 50.8476 142.231C49.7342 141.798 48.9609 140.901 48.5276 139.541C48.0942 138.121 47.8476 136.548 47.7876 134.821C47.7276 133.095 47.8209 131.351 48.0676 129.591C48.3142 127.831 48.7142 126.131 49.2676 124.491C49.8276 122.858 50.5376 121.425 51.3976 120.191C51.7709 119.631 52.3276 119.291 53.0676 119.171C53.8076 119.045 54.4242 119.231 54.9176 119.731C56.8909 118.491 59.0209 117.611 61.3076 117.091C63.5942 116.565 65.8776 116.115 68.1576 115.741C69.2109 115.561 70.3709 115.361 71.6376 115.141C72.9042 114.928 74.1842 114.788 75.4776 114.721C76.7776 114.661 78.0442 114.695 79.2776 114.821C80.5109 114.941 81.6509 115.248 82.6976 115.741ZM87.8876 102.691C88.5676 102.751 89.1076 102.965 89.5076 103.331C89.9076 103.705 90.1542 104.138 90.2476 104.631C90.3409 105.125 90.2942 105.635 90.1076 106.161C89.9276 106.688 89.5876 107.135 89.0876 107.501C87.3009 108.615 85.3276 109.511 83.1676 110.191C81.0076 110.871 78.7842 111.395 76.4976 111.761C74.2109 112.135 71.9109 112.411 69.5976 112.591C67.2842 112.778 65.1076 112.901 63.0676 112.961C58.7476 113.148 54.4276 113.041 50.1076 112.641C45.7809 112.241 41.6442 111.145 37.6976 109.351C37.3242 109.171 37.1842 108.895 37.2776 108.521C37.3709 108.148 37.5709 107.931 37.8776 107.871C41.5842 107.191 45.2109 106.805 48.7576 106.711C52.3109 106.618 55.9376 106.448 59.6376 106.201V105.831C59.6376 105.158 59.6242 104.435 59.5976 103.661C59.5642 102.888 59.5776 102.101 59.6376 101.301C58.3442 101.175 57.1409 100.881 56.0276 100.421C54.9209 99.9545 54.0276 99.2912 53.3476 98.4312C53.1609 98.1779 53.1142 97.8979 53.2076 97.5912C53.3009 97.2845 53.5009 97.0679 53.8076 96.9412C55.9676 96.5745 57.9442 96.1745 59.7376 95.7412C59.7976 95.0612 59.8442 94.3679 59.8776 93.6612C59.9042 92.9479 59.9809 92.2212 60.1076 91.4812C57.7609 91.3545 55.5542 90.9845 53.4876 90.3712C51.4142 89.7512 49.6676 88.7312 48.2476 87.3112C47.9409 87.0045 47.8342 86.6512 47.9276 86.2512C48.0209 85.8445 48.2842 85.5812 48.7176 85.4612C50.5042 84.6612 52.4009 84.2445 54.4076 84.2112C56.4142 84.1779 58.3742 84.0712 60.2876 83.8912C60.4142 83.8912 60.6009 83.8745 60.8476 83.8412C61.0942 83.8079 61.3709 83.7612 61.6776 83.7012C62.2376 81.8479 63.0409 79.9945 64.0876 78.1412C64.2742 77.8345 64.5209 77.7279 64.8276 77.8212C65.1342 77.9145 65.3509 78.1145 65.4776 78.4212C65.5976 79.1012 65.7209 79.8112 65.8476 80.5512C65.9676 81.2912 66.0609 82.0945 66.1276 82.9612L74.2776 81.1112C75.5709 80.7979 76.6642 80.9512 77.5576 81.5712C78.4576 82.1912 79.0609 82.9779 79.3676 83.9312C79.6742 84.8912 79.6442 85.8645 79.2776 86.8512C78.9042 87.8379 78.0709 88.5479 76.7776 88.9812C75.3576 89.4745 73.7376 89.9379 71.9176 90.3712C70.0909 90.8045 68.1909 91.1112 66.2176 91.2912L66.4076 94.3512C67.3942 94.1045 68.3642 93.8879 69.3176 93.7012C70.2776 93.5145 71.2509 93.2679 72.2376 92.9612C73.2242 92.7145 74.0276 92.8245 74.6476 93.2912C75.2609 93.7512 75.6609 94.3512 75.8476 95.0912C76.0342 95.8312 75.9576 96.6045 75.6176 97.4112C75.2776 98.2112 74.6442 98.7645 73.7176 99.0712C72.8509 99.3845 71.8476 99.6779 70.7076 99.9512C69.5676 100.231 68.3809 100.495 67.1476 100.741C67.2676 101.481 67.3742 102.221 67.4676 102.961C67.5609 103.701 67.6676 104.445 67.7876 105.191V105.281C71.1276 104.721 74.4776 104.105 77.8376 103.431C81.2042 102.751 84.5542 102.505 87.8876 102.691ZM170.95 103.151C172.123 103.151 173.096 103.538 173.87 104.311C174.636 105.078 175.113 105.941 175.3 106.901C175.486 107.855 175.363 108.795 174.93 109.721C174.496 110.648 173.663 111.268 172.43 111.581C168.17 112.688 163.416 113.398 158.17 113.711C152.923 114.018 147.583 113.801 142.15 113.061L139.74 116.021C139.186 116.701 138.553 117.505 137.84 118.431C137.133 119.358 136.453 120.331 135.8 121.351C135.153 122.365 134.583 123.398 134.09 124.451C133.596 125.498 133.35 126.455 133.35 127.321C133.29 129.175 133.77 130.425 134.79 131.071C135.803 131.718 137.096 131.995 138.67 131.901C140.25 131.808 141.996 131.425 143.91 130.751C145.823 130.071 147.69 129.298 149.51 128.431C151.33 127.565 152.996 126.731 154.51 125.931C156.023 125.131 157.12 124.545 157.8 124.171C157.493 123.125 157.323 122.121 157.29 121.161C157.256 120.208 157.486 119.358 157.98 118.611V118.711C158.353 118.091 158.786 117.845 159.28 117.971C160.02 118.031 160.713 118.261 161.36 118.661C162.013 119.061 162.616 119.555 163.17 120.141C163.723 120.728 164.233 121.345 164.7 121.991C165.16 122.645 165.576 123.248 165.95 123.801C166.443 124.481 166.906 125.128 167.34 125.741C167.773 126.361 168.266 126.981 168.82 127.601C169.44 128.281 170.026 128.898 170.58 129.451C171.133 130.005 171.566 130.715 171.88 131.581C172.186 132.381 172.17 133.278 171.83 134.271C171.49 135.258 170.95 135.935 170.21 136.301L169.93 136.491C169.25 136.798 168.493 137.028 167.66 137.181C166.826 137.335 166.07 137.165 165.39 136.671C164.216 135.871 163.23 134.978 162.43 133.991C161.63 133.005 160.92 131.925 160.3 130.751C158.82 131.798 157.06 132.878 155.02 133.991C152.98 135.098 150.82 136.101 148.54 137.001C146.253 137.895 143.936 138.571 141.59 139.031C139.243 139.498 137.066 139.621 135.06 139.401C133.053 139.188 131.293 138.525 129.78 137.411C128.273 136.305 127.21 134.608 126.59 132.321C126.096 130.655 126.05 128.958 126.45 127.231C126.85 125.498 127.466 123.798 128.3 122.131C129.133 120.465 130.123 118.891 131.27 117.411C132.41 115.931 133.503 114.605 134.55 113.431C134.736 113.185 134.94 112.938 135.16 112.691C135.373 112.445 135.633 112.198 135.94 111.951C132.546 111.145 129.353 110.095 126.36 108.801C123.366 107.501 120.696 105.925 118.35 104.071C118.103 103.825 117.98 103.531 117.98 103.191C117.98 102.858 118.193 102.658 118.62 102.591C120.72 102.345 122.85 102.251 125.01 102.311C127.176 102.378 129.34 102.505 131.5 102.691C133.66 102.871 135.836 103.085 138.03 103.331C140.216 103.578 142.393 103.735 144.56 103.801C149 103.921 153.396 103.828 157.75 103.521C162.103 103.215 166.503 103.091 170.95 103.151ZM164.1 95.0012C162.613 95.9279 160.836 96.5145 158.77 96.7612C156.703 97.0079 154.556 96.9612 152.33 96.6212C150.11 96.2812 147.873 95.6945 145.62 94.8612C143.366 94.0279 141.313 92.9779 139.46 91.7112C137.606 90.4446 136.016 89.0246 134.69 87.4512C133.363 85.8779 132.516 84.1646 132.15 82.3112C132.083 81.8779 132.206 81.4779 132.52 81.1112C132.826 80.7379 133.256 80.6146 133.81 80.7412C134.983 80.9879 136.143 81.3412 137.29 81.8012C138.43 82.2679 139.556 82.7612 140.67 83.2812C141.776 83.8079 142.903 84.3046 144.05 84.7712C145.19 85.2312 146.346 85.6146 147.52 85.9212C148.753 86.2346 150.033 86.4346 151.36 86.5212C152.686 86.6146 154 86.6945 155.3 86.7612C156.593 86.8212 157.873 86.8979 159.14 86.9912C160.406 87.0846 161.626 87.3146 162.8 87.6812C163.6 87.9279 164.28 88.3612 164.84 88.9812C165.393 89.5945 165.733 90.2746 165.86 91.0212C165.98 91.7612 165.9 92.5012 165.62 93.2412C165.346 93.9812 164.84 94.5679 164.1 95.0012ZM254.291 127.881C255.338 128.375 256.341 129.068 257.301 129.961C258.255 130.855 258.885 131.858 259.191 132.971C259.378 133.651 259.348 134.315 259.102 134.961C258.855 135.608 258.468 136.165 257.941 136.631C257.421 137.091 256.835 137.368 256.181 137.461C255.535 137.555 254.905 137.385 254.291 136.951C253.611 136.458 253.025 135.901 252.531 135.281C252.038 134.668 251.511 134.051 250.951 133.431C250.458 132.818 249.825 132.185 249.051 131.531C248.285 130.885 247.745 130.191 247.431 129.451C247.311 129.018 247.281 128.571 247.341 128.111C247.401 127.645 247.678 127.288 248.171 127.041C249.165 126.548 250.201 126.441 251.281 126.721C252.361 126.995 253.365 127.381 254.291 127.881ZM210.761 126.301C210.948 126.055 211.241 125.915 211.641 125.881C212.041 125.855 212.335 126.025 212.521 126.391C213.075 127.878 213.198 129.375 212.891 130.881C212.585 132.395 211.998 133.801 211.131 135.101C210.698 135.781 210.111 136.521 209.371 137.321C208.631 138.128 207.815 138.808 206.921 139.361C206.021 139.915 205.108 140.255 204.181 140.381C203.255 140.501 202.361 140.255 201.501 139.641C200.515 138.961 199.941 137.971 199.781 136.671C199.628 135.378 200.171 134.391 201.411 133.711C202.271 133.218 203.148 132.818 204.041 132.511C204.941 132.198 205.791 131.701 206.591 131.021C207.458 130.348 208.198 129.608 208.811 128.801C209.431 128.001 210.081 127.168 210.761 126.301ZM251.602 112.501C251.048 113.981 250.108 115.095 248.781 115.841C247.448 116.581 245.965 117.105 244.331 117.411C242.698 117.718 241.015 117.918 239.281 118.011C237.555 118.105 236.045 118.181 234.751 118.241L232.061 118.431V119.351C232.061 120.591 232.031 122.045 231.971 123.711C231.905 125.378 231.905 127.075 231.971 128.801C232.031 130.528 232.185 132.181 232.431 133.761C232.678 135.335 233.111 136.645 233.731 137.691C234.345 138.745 234.528 139.701 234.281 140.561C234.035 141.428 233.571 142.108 232.891 142.601C232.211 143.095 231.395 143.358 230.441 143.391C229.481 143.418 228.571 143.155 227.711 142.601C226.538 141.801 225.735 140.645 225.301 139.131C224.868 137.618 224.621 135.998 224.561 134.271C224.501 132.538 224.548 130.825 224.701 129.131C224.855 127.431 224.961 125.965 225.021 124.731C225.081 123.738 225.128 122.701 225.161 121.621C225.195 120.541 225.271 119.448 225.391 118.341C222.611 118.215 219.881 117.798 217.201 117.091C214.515 116.378 211.968 115.311 209.561 113.891C208.941 113.525 208.738 112.968 208.951 112.221C209.171 111.481 209.651 111.111 210.391 111.111C213.171 111.425 215.841 111.658 218.401 111.811C220.961 111.965 223.568 111.978 226.221 111.851C226.535 110.251 226.938 108.741 227.431 107.321C227.925 105.901 228.605 104.571 229.471 103.331C229.718 102.965 230.011 102.828 230.351 102.921C230.691 103.015 230.921 103.245 231.041 103.611C231.475 104.845 231.751 106.141 231.871 107.501C231.998 108.861 232.091 110.221 232.151 111.581C233.385 111.515 234.681 111.421 236.041 111.301C237.401 111.175 238.728 111.005 240.021 110.791C241.321 110.571 242.511 110.291 243.591 109.951C244.671 109.618 245.581 109.171 246.321 108.611C246.941 108.178 247.621 108.008 248.361 108.101C249.101 108.195 249.748 108.441 250.301 108.841C250.861 109.248 251.278 109.775 251.551 110.421C251.831 111.068 251.848 111.761 251.602 112.501ZM256.141 92.3112C257.315 91.8779 258.302 91.9245 259.102 92.4512C259.908 92.9779 260.465 93.7045 260.771 94.6312C261.078 95.5579 261.061 96.5145 260.721 97.5012C260.381 98.4879 259.625 99.1979 258.452 99.6312C257.158 100.125 255.631 100.758 253.871 101.531C252.111 102.305 250.321 102.981 248.501 103.561C246.681 104.148 244.875 104.535 243.081 104.721C241.288 104.908 239.715 104.661 238.361 103.981C237.868 103.735 237.465 103.335 237.151 102.781C236.845 102.221 236.691 101.695 236.691 101.201C236.691 100.155 236.845 99.3679 237.151 98.8412C237.465 98.3145 237.775 97.5579 238.081 96.5712C238.448 95.2779 238.665 94.0745 238.731 92.9612C238.791 91.8479 238.651 90.8612 238.311 90.0012C237.971 89.1345 237.368 88.4245 236.501 87.8712C235.641 87.3112 234.438 86.9712 232.891 86.8512C231.038 86.6645 229.155 86.6645 227.241 86.8512C226.748 88.7045 226.055 90.5412 225.161 92.3612C224.268 94.1812 223.235 95.8779 222.061 97.4512C220.888 99.0245 219.575 100.461 218.121 101.761C216.675 103.055 215.178 104.105 213.631 104.911C212.458 105.525 211.348 105.631 210.301 105.231C209.248 104.831 208.445 104.215 207.891 103.381C207.331 102.548 207.115 101.608 207.241 100.561C207.368 99.5079 208.015 98.6112 209.181 97.8712C210.975 96.6979 212.688 95.5079 214.321 94.3012C215.961 93.1012 217.398 91.5745 218.632 89.7212L219.831 87.8712C217.985 88.2379 216.118 88.6079 214.231 88.9812C212.351 89.3479 210.485 89.6879 208.631 90.0012C208.258 90.1212 207.918 90.0745 207.611 89.8612C207.305 89.6412 207.075 89.3645 206.921 89.0312C206.761 88.6912 206.715 88.3345 206.781 87.9612C206.841 87.5879 207.088 87.3112 207.521 87.1312C209.621 86.1379 211.968 85.1945 214.561 84.3012C217.155 83.4079 219.838 82.6845 222.611 82.1312C222.858 81.6312 223.091 81.1212 223.311 80.6012C223.525 80.0745 223.785 79.5645 224.091 79.0712C224.158 79.0712 224.191 79.0412 224.191 78.9812C224.191 78.9145 224.221 78.8212 224.281 78.7012C224.408 78.3945 224.655 77.9945 225.021 77.5012C225.395 76.9412 225.935 76.6912 226.641 76.7512C227.355 76.8179 227.801 77.2212 227.981 77.9612C228.108 78.4545 228.171 78.9945 228.171 79.5812C228.171 80.1679 228.171 80.7379 228.171 81.2912C230.458 81.1045 232.681 81.1512 234.841 81.4312C237.001 81.7112 239.008 82.3145 240.861 83.2412C242.281 83.9212 243.455 84.7545 244.382 85.7412C245.308 86.7279 245.895 88.0245 246.141 89.6312C246.388 91.0512 246.185 92.4245 245.531 93.7512C244.885 95.0779 244.315 96.3579 243.821 97.5912C244.808 97.2845 245.888 96.8845 247.061 96.3912C248.235 95.8979 249.395 95.3879 250.541 94.8612C251.681 94.3345 252.745 93.8412 253.731 93.3812C254.718 92.9145 255.521 92.5579 256.141 92.3112ZM337.163 137.881C337.47 138.561 337.423 139.255 337.023 139.961C336.623 140.675 336.177 141.215 335.683 141.581C334.017 142.695 332.133 143.235 330.033 143.201C327.933 143.175 325.88 142.775 323.873 142.001C321.867 141.228 320.03 140.161 318.363 138.801C316.697 137.448 315.4 135.998 314.473 134.451C314.167 133.898 314.26 133.435 314.753 133.061C315.247 132.695 315.71 132.725 316.143 133.151C317.13 134.145 318.317 134.978 319.703 135.651C321.097 136.331 322.533 136.795 324.013 137.041C325.493 137.288 326.99 137.321 328.503 137.141C330.017 136.955 331.39 136.521 332.623 135.841C333.55 135.288 334.4 135.241 335.173 135.701C335.947 136.168 336.58 136.831 337.073 137.691C337.073 137.691 337.103 137.755 337.163 137.881ZM309.843 119.081C309.903 118.648 310.15 118.415 310.583 118.381C311.017 118.355 311.327 118.495 311.513 118.801C312.193 119.848 312.7 120.958 313.033 122.131C313.373 123.305 313.577 124.525 313.643 125.791C313.703 127.058 313.64 128.308 313.453 129.541C313.267 130.775 313.02 131.948 312.713 133.061C312.407 134.115 311.99 135.211 311.463 136.351C310.937 137.491 310.273 138.508 309.473 139.401C308.667 140.301 307.74 140.921 306.693 141.261C305.647 141.601 304.473 141.431 303.173 140.751C302.307 140.258 301.75 139.548 301.503 138.621C301.257 137.695 301.38 136.798 301.873 135.931C302.187 135.318 302.56 134.901 302.993 134.681C303.42 134.468 303.973 134.298 304.653 134.171L305.023 133.801C305.09 133.435 305.323 133.005 305.723 132.511C306.123 132.011 306.447 131.608 306.693 131.301C307.867 129.328 308.593 127.338 308.873 125.331C309.147 123.325 309.47 121.241 309.843 119.081ZM302.433 127.131C302.867 128.431 302.727 129.515 302.013 130.381C301.307 131.241 300.397 131.811 299.283 132.091C298.17 132.371 297.09 132.278 296.043 131.811C294.997 131.351 294.38 130.441 294.193 129.081C293.633 125.008 293.663 121.025 294.283 117.131C294.343 116.638 294.45 116.051 294.603 115.371C294.763 114.691 294.95 114.015 295.163 113.341C295.377 112.661 295.64 112.011 295.953 111.391C296.26 110.771 296.66 110.278 297.153 109.911C296.293 109.605 295.613 109.035 295.113 108.201C294.62 107.368 294.467 106.425 294.653 105.371C294.84 104.138 295.073 102.888 295.353 101.621C295.627 100.355 295.827 99.1046 295.953 97.8712C296.013 97.5646 296.043 97.3012 296.043 97.0812C296.043 96.8679 296.043 96.6079 296.043 96.3012C294.377 97.5946 292.603 98.6279 290.723 99.4012C288.837 100.175 286.907 100.311 284.933 99.8112C283.633 99.5046 282.69 98.7946 282.103 97.6812C281.517 96.5746 281.317 95.4012 281.503 94.1612C281.503 94.1012 281.52 94.0579 281.553 94.0312C281.58 93.9979 281.593 93.9179 281.593 93.7912C281.72 93.1179 282.03 92.5479 282.523 92.0812C283.017 91.6212 283.573 91.2679 284.193 91.0212C285.053 90.7079 285.917 90.5679 286.783 90.6012C287.65 90.6346 288.547 90.4346 289.473 90.0012C291.013 89.3812 292.523 88.5146 294.003 87.4012C294.19 87.2212 294.7 86.7446 295.533 85.9712C296.367 85.1979 297.23 84.3779 298.123 83.5112C299.023 82.6512 299.813 81.8646 300.493 81.1512C301.167 80.4446 301.473 80.0279 301.413 79.9012C301.107 79.7212 300.97 79.4446 301.003 79.0712C301.03 78.6979 301.197 78.4512 301.503 78.3312C302.43 77.8379 303.263 77.7912 304.003 78.1912C304.75 78.5912 305.213 79.3179 305.393 80.3712C305.52 81.0446 305.507 81.7679 305.353 82.5412C305.2 83.3146 304.967 84.0879 304.653 84.8612C304.347 85.6346 304.007 86.3746 303.633 87.0812C303.267 87.7946 302.897 88.4279 302.523 88.9812C302.09 89.6612 301.66 90.2946 301.233 90.8812C300.8 91.4679 300.337 92.0679 299.843 92.6812C300.21 93.4879 300.487 94.3212 300.673 95.1812C300.86 96.0479 301.047 96.8812 301.233 97.6812C301.54 99.1012 301.787 100.521 301.973 101.941C302.16 103.361 302.22 104.781 302.153 106.201C302.153 108.055 301.26 109.321 299.473 110.001C299.227 110.001 299.07 110.031 299.003 110.091C299.13 110.465 299.193 110.681 299.193 110.741C299.193 111.055 299.21 111.365 299.243 111.671C299.27 111.978 299.283 112.285 299.283 112.591C301.443 111.238 303.807 110.315 306.373 109.821C308.933 109.328 311.51 108.988 314.103 108.801C315.217 108.735 316.437 108.671 317.763 108.611C319.09 108.551 320.433 108.568 321.793 108.661C323.147 108.755 324.473 108.971 325.773 109.311C327.067 109.651 328.177 110.221 329.103 111.021C330.837 112.501 331.67 114.198 331.603 116.111C331.543 118.025 330.973 119.908 329.893 121.761C328.813 123.615 327.423 125.281 325.723 126.761C324.03 128.248 322.44 129.268 320.953 129.821C320.4 130.068 319.767 130.068 319.053 129.821C318.347 129.575 317.807 129.205 317.433 128.711L316.693 127.881C316.2 127.321 315.983 126.718 316.043 126.071C316.11 125.425 316.39 124.855 316.883 124.361C317.437 123.801 318.007 123.351 318.593 123.011C319.18 122.671 319.783 122.348 320.403 122.041C321.017 121.735 321.633 121.425 322.253 121.111C322.873 120.805 323.46 120.375 324.013 119.821C324.447 119.388 324.923 118.925 325.443 118.431C325.97 117.938 326.327 117.428 326.513 116.901C326.7 116.375 326.653 115.818 326.373 115.231C326.093 114.645 325.4 114.015 324.293 113.341C323.733 113.028 322.9 112.871 321.793 112.871C320.68 112.871 319.783 112.841 319.103 112.781C317.377 112.655 315.693 112.671 314.053 112.831C312.42 112.985 310.8 113.185 309.193 113.431C307.587 113.678 305.983 113.925 304.383 114.171C302.777 114.418 301.14 114.571 299.473 114.631C299.78 116.791 300.18 118.921 300.673 121.021C301.167 123.121 301.753 125.158 302.433 127.131ZM314.473 95.0012C313.053 94.5679 311.74 94.0112 310.533 93.3312C309.333 92.6512 308.393 91.7879 307.713 90.7412C307.527 90.4346 307.48 90.1412 307.573 89.8612C307.667 89.5812 307.867 89.4112 308.173 89.3512C309.227 89.0446 310.323 88.9212 311.463 88.9812C312.603 89.0412 313.73 89.1346 314.843 89.2612C315.71 84.8146 317.283 80.9246 319.563 77.5912C319.81 77.2779 320.137 77.1679 320.543 77.2612C320.943 77.3546 321.113 77.6179 321.053 78.0512C320.8 79.9646 320.473 81.8479 320.073 83.7012C319.673 85.5546 319.413 87.4379 319.293 89.3512C321.947 89.2246 324.6 88.9479 327.253 88.5212C328.367 88.3346 329.217 88.5646 329.803 89.2112C330.39 89.8579 330.697 90.6312 330.723 91.5312C330.757 92.4246 330.51 93.2712 329.983 94.0712C329.457 94.8779 328.64 95.3712 327.533 95.5512C326.42 95.7379 325.17 95.8612 323.783 95.9212C322.39 95.9879 320.983 95.9579 319.563 95.8312C319.937 97.6246 320.557 99.0146 321.423 100.001C322.283 100.988 323.33 101.681 324.563 102.081C325.803 102.488 327.163 102.645 328.643 102.551C330.123 102.458 331.667 102.165 333.273 101.671C333.767 101.545 334.307 101.545 334.893 101.671C335.48 101.791 335.927 102.068 336.233 102.501C336.727 103.055 337.007 103.518 337.073 103.891C337.133 104.258 337.1 104.815 336.973 105.561C336.913 106.055 336.653 106.501 336.193 106.901C335.727 107.301 335.247 107.565 334.753 107.691C332.967 108.185 331.147 108.508 329.293 108.661C327.44 108.815 325.663 108.705 323.963 108.331C322.27 107.965 320.727 107.271 319.333 106.251C317.947 105.231 316.82 103.765 315.953 101.851C315.46 100.805 315.107 99.7079 314.893 98.5612C314.673 97.4212 314.533 96.2346 314.473 95.0012ZM405.965 120.371C407.879 119.945 409.745 119.545 411.565 119.171C413.385 118.798 415.192 118.488 416.985 118.241C417.292 118.181 417.692 118.245 418.185 118.431C418.245 117.751 418.275 117.088 418.275 116.441C418.275 115.795 418.275 115.131 418.275 114.451C417.909 114.878 417.385 115.248 416.705 115.561C415.039 116.241 413.309 116.811 411.515 117.271C409.729 117.738 407.909 118.125 406.055 118.431C406.055 118.738 406.055 119.061 406.055 119.401C406.055 119.741 406.025 120.065 405.965 120.371ZM390.585 122.601C393.425 122.661 396.329 122.381 399.295 121.761L399.575 118.801C396.795 118.801 393.922 118.368 390.955 117.501C390.835 118.368 390.745 119.218 390.685 120.051C390.619 120.885 390.585 121.735 390.585 122.601ZM405.775 106.391C405.835 107.258 405.899 108.155 405.965 109.081C406.025 110.001 406.055 110.925 406.055 111.851L415.125 110.001C416.239 109.941 417.135 110.188 417.815 110.741C417.755 110.555 417.709 110.355 417.675 110.141C417.642 109.928 417.565 109.698 417.445 109.451C417.072 108.031 416.469 106.905 415.635 106.071C414.802 105.238 413.845 104.651 412.765 104.311C411.685 103.971 410.529 103.848 409.295 103.941C408.062 104.028 406.859 104.258 405.685 104.631C405.685 104.938 405.699 105.231 405.725 105.511C405.759 105.791 405.775 106.085 405.775 106.391ZM420.505 103.611C422.292 106.205 423.465 109.091 424.025 112.271C424.579 115.451 424.702 118.615 424.395 121.761C424.269 123.121 424.082 124.635 423.835 126.301C423.589 127.968 423.249 129.635 422.815 131.301C422.382 132.968 421.825 134.558 421.145 136.071C420.472 137.585 419.639 138.865 418.645 139.911C417.225 141.151 415.682 141.368 414.015 140.561C413.835 140.501 413.682 140.441 413.555 140.381C413.429 140.315 413.305 140.251 413.185 140.191C412.505 139.885 412.012 139.408 411.705 138.761C411.392 138.108 411.282 137.445 411.375 136.771C411.469 136.091 411.715 135.471 412.115 134.911C412.522 134.358 413.095 133.988 413.835 133.801C414.202 133.741 414.555 133.355 414.895 132.641C415.235 131.935 415.545 131.118 415.825 130.191C416.105 129.265 416.369 128.278 416.615 127.231C416.862 126.178 417.075 125.251 417.255 124.451C415.655 125.378 413.775 125.995 411.615 126.301C409.449 126.608 407.379 126.825 405.405 126.951C405.032 130.158 404.475 133.245 403.735 136.211C403.489 137.258 402.982 137.968 402.215 138.341C401.442 138.715 400.652 138.791 399.845 138.571C399.045 138.358 398.369 137.911 397.815 137.231C397.255 136.551 397.069 135.655 397.255 134.541L398.455 127.411C397.222 127.411 395.972 127.351 394.705 127.231C393.445 127.105 392.229 126.825 391.055 126.391C391.175 126.951 391.329 127.491 391.515 128.011C391.702 128.538 391.885 129.048 392.065 129.541C392.132 129.668 392.195 129.808 392.255 129.961C392.315 130.115 392.375 130.285 392.435 130.471C392.869 131.518 392.855 132.411 392.395 133.151C391.929 133.898 391.279 134.425 390.445 134.731C389.612 135.038 388.732 135.098 387.805 134.911C386.885 134.731 386.145 134.208 385.585 133.341C384.105 130.995 383.382 128.495 383.415 125.841C383.442 123.188 383.765 120.565 384.385 117.971C384.632 117.045 384.925 115.978 385.265 114.771C385.605 113.565 386.052 112.391 386.605 111.251C387.159 110.111 387.822 109.095 388.595 108.201C389.369 107.301 390.312 106.698 391.425 106.391C391.852 106.331 392.189 106.518 392.435 106.951C392.869 108.185 392.932 109.435 392.625 110.701C392.319 111.961 391.979 113.211 391.605 114.451C393.025 114.325 394.432 114.155 395.825 113.941C397.212 113.721 398.615 113.458 400.035 113.151C400.095 112.105 400.142 111.071 400.175 110.051C400.202 109.031 400.215 107.998 400.215 106.951C399.229 107.445 398.259 107.921 397.305 108.381C396.345 108.848 395.342 109.235 394.295 109.541C393.802 109.728 393.462 109.618 393.275 109.211C393.089 108.811 393.149 108.458 393.455 108.151C395.249 105.805 397.472 103.798 400.125 102.131C400.065 101.265 400.019 100.368 399.985 99.4412C399.959 98.5145 399.882 97.5912 399.755 96.6712C399.569 96.7312 399.199 96.7612 398.645 96.7612C397.719 96.8212 396.699 96.8045 395.585 96.7112C394.479 96.6179 393.399 96.3879 392.345 96.0212C391.299 95.6479 390.372 95.1379 389.565 94.4912C388.765 93.8445 388.212 92.9945 387.905 91.9412C387.779 91.6345 387.839 91.3579 388.085 91.1112C388.332 90.8645 388.612 90.8012 388.925 90.9212C390.652 91.4812 392.365 91.7145 394.065 91.6212C395.759 91.5279 397.439 91.2345 399.105 90.7412C398.985 89.8745 398.862 89.0412 398.735 88.2412C398.615 87.4345 398.462 86.6012 398.275 85.7412C398.215 85.3679 398.355 85.0579 398.695 84.8112C399.035 84.5645 399.359 84.5945 399.665 84.9012C400.959 86.2012 402.009 87.6845 402.815 89.3512C404.109 88.7979 405.359 88.2112 406.565 87.5912C407.765 86.9712 408.952 86.3212 410.125 85.6412C410.932 85.2145 411.689 85.1079 412.395 85.3212C413.109 85.5345 413.665 85.9212 414.065 86.4812C414.465 87.0345 414.665 87.6979 414.665 88.4712C414.665 89.2445 414.389 89.9379 413.835 90.5512C412.722 91.7912 411.362 92.8579 409.755 93.7512C408.155 94.6445 406.459 95.3379 404.665 95.8312C404.912 97.1312 405.099 98.4279 405.225 99.7212C407.999 98.7345 410.759 98.4712 413.505 98.9312C416.252 99.3979 418.585 100.958 420.505 103.611ZM372.255 125.101C372.189 125.781 372.155 126.398 372.155 126.951C372.155 127.505 372.219 127.998 372.345 128.431C373.459 127.751 374.292 126.888 374.845 125.841C375.279 125.035 375.879 124.541 376.645 124.361C377.419 124.175 378.132 124.218 378.785 124.491C379.432 124.771 379.955 125.235 380.355 125.881C380.755 126.535 380.862 127.291 380.675 128.151C380.369 129.451 379.629 130.718 378.455 131.951C377.282 133.185 375.985 134.125 374.565 134.771C373.145 135.425 371.755 135.628 370.395 135.381C369.042 135.135 367.995 134.145 367.255 132.411C366.755 131.365 366.552 130.238 366.645 129.031C366.739 127.831 366.909 126.611 367.155 125.371C364.195 125.065 361.882 123.678 360.215 121.211C360.029 120.898 360.042 120.588 360.255 120.281C360.475 119.975 360.739 119.851 361.045 119.911C362.345 119.971 363.612 120.001 364.845 120.001C366.079 120.001 367.312 119.878 368.545 119.631C369.165 117.531 369.969 115.648 370.955 113.981C370.089 113.861 369.285 113.661 368.545 113.381C367.805 113.101 367.159 112.655 366.605 112.041C366.419 111.795 366.325 111.518 366.325 111.211C366.325 110.898 366.479 110.681 366.785 110.561C367.652 110.068 368.532 109.711 369.425 109.491C370.319 109.278 371.229 109.015 372.155 108.701C373.082 108.395 373.995 107.948 374.895 107.361C375.789 106.775 376.759 106.421 377.805 106.301C378.919 106.115 379.799 106.421 380.445 107.221C381.092 108.028 381.169 108.985 380.675 110.091C380.369 110.711 379.939 111.238 379.385 111.671C378.825 112.105 378.205 112.475 377.525 112.781C376.852 113.088 376.159 113.335 375.445 113.521C374.739 113.708 374.075 113.831 373.455 113.891C373.329 114.571 373.252 115.281 373.225 116.021C373.192 116.761 373.115 117.501 372.995 118.241C374.229 117.688 375.432 117.101 376.605 116.481C377.779 115.868 378.982 115.345 380.215 114.911C380.955 114.665 381.649 114.725 382.295 115.091C382.949 115.465 383.445 115.975 383.785 116.621C384.125 117.275 384.249 117.955 384.155 118.661C384.062 119.375 383.705 119.945 383.085 120.371C381.725 121.365 380.089 122.308 378.175 123.201C376.262 124.095 374.289 124.728 372.255 125.101ZM369.755 103.151C368.889 105.185 367.715 107.005 366.235 108.611C364.749 110.218 363.019 111.085 361.045 111.211C359.999 111.331 359.072 111.068 358.265 110.421C357.465 109.775 356.909 108.988 356.595 108.061C356.289 107.135 356.259 106.191 356.505 105.231C356.752 104.278 357.369 103.521 358.355 102.961C359.409 102.408 360.412 101.698 361.365 100.831C362.325 99.9712 363.145 99.0779 363.825 98.1512C364.072 97.7779 364.425 97.1612 364.885 96.3012C365.352 95.4345 365.692 94.5379 365.905 93.6112C366.125 92.6845 366.172 91.8512 366.045 91.1112C365.925 90.3712 365.462 89.9079 364.655 89.7212C364.289 89.5945 364.089 89.3479 364.055 88.9812C364.022 88.6079 364.192 88.3612 364.565 88.2412C365.739 87.8079 366.759 87.8379 367.625 88.3312C368.485 88.8245 369.179 89.5512 369.705 90.5112C370.232 91.4645 370.619 92.5279 370.865 93.7012C371.112 94.8745 371.235 95.9245 371.235 96.8512C371.235 97.0379 371.235 97.2379 371.235 97.4512C371.235 97.6712 371.202 97.9045 371.135 98.1512H372.715C374.075 98.0245 375.279 97.6845 376.325 97.1312C377.379 96.5779 378.522 96.1445 379.755 95.8312C380.309 95.7112 380.862 95.7579 381.415 95.9712C381.975 96.1912 382.425 96.5012 382.765 96.9012C383.105 97.3012 383.322 97.7779 383.415 98.3312C383.502 98.8912 383.362 99.4479 382.995 100.001C382.442 100.801 381.639 101.495 380.585 102.081C379.539 102.668 378.395 103.101 377.155 103.381C375.922 103.661 374.659 103.785 373.365 103.751C372.065 103.718 370.862 103.518 369.755 103.151Z" stroke="#486FFF" stroke-width="0.154"/>
</svg>
