<svg width="64" height="64" viewBox="0 0 64 64" fill="none" xmlns="http://www.w3.org/2000/svg">
<path d="M63.5 13C63.9311 13.5 64 14.5 63.6914 15.4329C63.306 16.1556 62.8883 16.5425 62.3755 16.8488C59.2599 18.7094 56.5361 19.9092 54.5101 20.1595C52.3434 20.4867 50.3357 19.9156 48.8667 18.703C47.0121 17.1631 45.7757 14.4877 45.4635 10.9204C45.3105 9.05975 45.0779 7.76373 44.8453 6.78848C44.5332 7.19269 44.3067 7.68031 43.9946 8.16788L43.9316 8.26027C40.0994 13.888 37.0953 18.2996 33.5585 18.4592C27.3764 18.8634 24.8974 12.133 23.7406 8.89291C23.5142 8.32832 23.355 7.84068 23.202 7.59689C22.8899 8.40534 22.192 11.1642 21.6534 13.5125C20.4966 18.2988 19.101 24.2143 17.479 27.6982L17.4484 27.7624C17.2709 28.1409 16.9893 28.4617 16.6466 28.6863L16.5058 28.7825C15.6978 29.3407 5.10266 36.5202 4.87614 45.3615C4.72314 50.2248 7.73461 54.9213 13.9228 59.3804C14.9327 60.1375 15.2694 61.5363 14.6818 62.704C14.6022 62.8708 14.4859 63.0248 14.3574 63.1531C13.831 63.6792 13.1393 64 12.4538 64C11.9947 64 11.5296 63.8396 11.0644 63.5124C3.56631 58.0074 -0.22249 51.7646 0.0100968 45.1177C0.297777 35.1665 9.49131 27.602 12.8761 25.1383C13.2373 24.8752 13.5127 24.5095 13.6779 24.086C14.8899 20.9358 16.0284 15.9762 16.9649 12.2806C17.8585 8.54643 18.391 6.45484 18.844 5.28713C18.8807 5.19089 18.9235 5.10107 18.9725 5.01124C20.0559 2.9902 21.6473 1.8289 23.3856 1.9893C25.4728 2.07271 27.0949 3.85636 28.3313 7.09644C29.7452 11.0102 30.9143 12.6271 32.0711 13.1788C32.8485 13.5445 33.7605 13.3456 34.3971 12.749C36.1047 11.1449 38.6326 7.10286 39.6977 5.3962L39.7717 5.27699C40.7434 3.71161 41.5714 2.37793 42.3235 1.50811C43.8721 -0.358956 45.4146 -0.0317396 46.1123 0.128661C48.3526 0.860082 49.436 3.69596 50.1337 10.343C50.3664 12.4538 50.905 13.9936 51.7557 14.6416C52.0618 14.8855 52.6066 15.2063 53.8429 15.0459C54.7366 14.9304 57.1972 14.2053 59.5476 12.9863C60.5 12.4924 61.1109 12.3 61.5 12.3C61.8891 12.3 62.9922 12.411 63.5 13Z" fill="url(#paint0_linear_70_45)"/>
<path d="M43.2724 37.543C44.2337 34.7297 48.1206 34.6445 49.2603 37.2873L49.3568 37.5446L50.654 41.3385C50.9514 42.2085 51.4317 43.0047 52.0628 43.6734C52.6941 44.342 53.4612 44.8674 54.3127 45.2144L54.6615 45.3446L58.4552 46.6403C61.2683 47.6016 61.3535 51.4888 58.7124 52.6285L58.4552 52.725L54.6615 54.0223C53.7912 54.3194 52.9947 54.7997 52.3258 55.431C51.6569 56.0622 51.1313 56.8295 50.7842 57.6812L50.654 58.0284L49.3584 61.8239C48.3971 64.6372 44.5102 64.7224 43.3721 62.0811L43.2724 61.8239L41.9767 58.03C41.6796 57.1597 41.1993 56.3631 40.5682 55.6942C39.937 55.0253 39.1697 54.4996 38.3181 54.1525L37.9709 54.0223L34.1772 52.7266C31.3624 51.7653 31.2772 47.8781 33.92 46.74L34.1772 46.6403L37.9709 45.3446C38.8409 45.0473 39.637 44.5668 40.3056 43.9356C40.9742 43.3045 41.4997 42.5372 41.8465 41.6857L41.9767 41.3385L43.2724 37.543ZM59.1754 32C59.4761 32 59.7708 32.0844 60.0261 32.2435C60.2812 32.4026 60.4866 32.6302 60.6189 32.9002L60.6961 33.0883L61.2587 34.7377L62.9096 35.3004C63.211 35.4028 63.4751 35.5923 63.6686 35.8451C63.8622 36.0978 63.9765 36.4022 63.9967 36.7199C64.017 37.0376 63.9426 37.3541 63.7828 37.6294C63.623 37.9047 63.3852 38.1264 63.0993 38.2664L62.9096 38.3435L61.2603 38.9062L60.6977 40.5572C60.5951 40.8585 60.4054 41.1226 60.1526 41.3159C59.8999 41.5093 59.5952 41.6233 59.2778 41.6435C58.9601 41.6636 58.6436 41.589 58.3684 41.4291C58.0932 41.2692 57.8717 41.0312 57.7318 40.7453L57.6547 40.5572L57.092 38.9078L55.4411 38.3451C55.1397 38.2427 54.8756 38.0532 54.6821 37.8005C54.4885 37.5478 54.3744 37.2433 54.354 36.9256C54.3337 36.608 54.4082 36.2914 54.568 36.0161C54.7277 35.7408 54.9656 35.5191 55.2515 35.3791L55.4411 35.302L57.0904 34.7393L57.6531 33.0883C57.7614 32.7707 57.9665 32.495 58.2395 32.2998C58.5126 32.1046 58.8397 31.9998 59.1754 32Z" fill="url(#paint1_linear_70_45)"/>
<defs>
<linearGradient id="paint0_linear_70_45" x1="1.52259e-07" y1="12.7239" x2="63.9446" y2="51.1715" gradientUnits="userSpaceOnUse">
<stop stop-color="#486FFF"/>
<stop offset="1" stop-color="#6A8DFF"/>
</linearGradient>
<linearGradient id="paint1_linear_70_45" x1="32" y1="38.362" x2="64" y2="57.638" gradientUnits="userSpaceOnUse">
<stop stop-color="#486FFF"/>
<stop offset="1" stop-color="#6A8DFF"/>
</linearGradient>
</defs>
</svg>
