<svg width="64" height="64" viewBox="0 0 64 64" fill="none" xmlns="http://www.w3.org/2000/svg">
<g clip-path="url(#clip0_66_49)">
<path d="M63.3915 15.7709C63.3915 15.7709 63.4772 15.6682 63.5078 15.6297C63.5384 15.5912 63.5996 15.495 63.6118 15.4822C63.7037 15.3474 63.7771 15.1998 63.8506 15.0523C63.8689 15.0138 63.8934 14.956 63.8995 14.9368C63.9301 14.8534 63.9423 14.7636 63.973 14.6737C63.9791 14.6481 63.9853 14.6352 63.9914 14.6224C63.9914 14.616 63.9914 14.6096 63.9914 14.5904C63.9975 14.4941 64.0036 14.3979 63.9975 14.3016C63.9975 14.2824 63.9853 14.1541 63.9853 14.0963C63.973 14.045 63.9546 13.9359 63.9546 13.9231C63.9362 13.8397 63.9118 13.7562 63.8873 13.6728C63.8873 13.66 63.8873 13.6536 63.8873 13.6471C63.8873 13.6407 63.8812 13.6344 63.8751 13.6216C63.8383 13.5509 63.7955 13.474 63.7587 13.4034C63.7526 13.3841 63.7159 13.3328 63.6914 13.3007C63.6363 13.2237 63.569 13.1596 63.5078 13.089C62.8222 12.8259 62.1918 12.7169 61.4451 12.7297C60.7963 12.7426 60.1781 12.8709 59.5476 12.9863C57.1972 14.2053 54.7366 14.9304 53.8429 15.0459C52.6066 15.2063 52.0618 14.8855 51.7557 14.6416C50.905 13.9936 50.3664 12.4538 50.1337 10.343C49.436 3.69596 48.3526 0.860082 46.1123 0.128661C45.4146 -0.0317396 43.8721 -0.358956 42.3235 1.50811C41.5523 2.39993 40.7015 3.77937 39.6977 5.3962C38.6326 7.10286 36.1047 11.1449 34.3971 12.749C33.7605 13.3456 32.8485 13.5445 32.0711 13.1788C30.9143 12.6271 29.7452 11.0102 28.3313 7.09644C27.0949 3.85636 25.4728 2.07271 23.3856 1.9893C21.6473 1.8289 20.0559 2.9902 18.9725 5.01124C18.9235 5.10107 18.8807 5.19089 18.844 5.28713C18.391 6.45484 17.8585 8.54643 16.9649 12.2806C16.0284 15.9762 14.8899 20.9358 13.6779 24.086C13.5127 24.5095 13.2373 24.8752 12.8761 25.1383C9.49131 27.602 0.297777 35.1665 0.0100968 45.1177C-0.22249 51.7646 3.56631 58.0074 11.0644 63.5124C11.5296 63.8396 11.9947 64 12.4538 64C13.1393 64 13.831 63.6792 14.3574 63.1531C14.4859 63.0248 14.6022 62.8707 14.6818 62.704C15.2694 61.5363 14.9327 60.1376 13.9228 59.3804C7.73461 54.9213 4.72314 50.2248 4.87614 45.3615C5.10266 36.5202 15.6978 29.3407 16.5058 28.7825L16.6466 28.6863C16.9893 28.4617 17.2709 28.1409 17.4484 27.7624L17.479 27.6982C19.101 24.2143 20.4966 18.2988 21.6534 13.5125C22.192 11.1642 22.8899 8.40534 23.202 7.59689C23.355 7.84068 23.5142 8.32832 23.7406 8.89291C24.8974 12.133 27.3764 18.8634 33.5585 18.4592C37.1147 18.2988 40.1323 13.8397 43.9946 8.16788C44.3067 7.68031 44.5332 7.19269 44.8453 6.78848C45.0779 7.76373 45.3105 9.05975 45.4635 10.9204C45.7757 14.4877 47.0121 17.1631 48.8667 18.703C50.3357 19.9156 52.3434 20.4867 54.5101 20.1595C56.5361 19.9092 59.2599 18.7094 62.3755 16.8488C62.7182 16.5023 63.0671 16.1558 63.3854 15.7773L63.3915 15.7709Z" fill="url(#paint0_linear_66_49)"/>
<path d="M43.2724 37.543C44.2337 34.7297 48.1206 34.6445 49.2603 37.2873L49.3568 37.5446L50.654 41.3385C50.9514 42.2085 51.4317 43.0047 52.0628 43.6734C52.6941 44.342 53.4612 44.8674 54.3127 45.2144L54.6615 45.3446L58.4552 46.6403C61.2683 47.6016 61.3535 51.4888 58.7124 52.6285L58.4552 52.725L54.6615 54.0223C53.7912 54.3194 52.9947 54.7997 52.3258 55.431C51.6569 56.0622 51.1313 56.8295 50.7842 57.6812L50.654 58.0284L49.3584 61.8239C48.3971 64.6372 44.5102 64.7224 43.3721 62.0811L43.2724 61.8239L41.9767 58.03C41.6796 57.1597 41.1993 56.3631 40.5682 55.6942C39.937 55.0253 39.1697 54.4996 38.3181 54.1525L37.9709 54.0223L34.1772 52.7266C31.3624 51.7653 31.2772 47.8781 33.92 46.74L34.1772 46.6403L37.9709 45.3446C38.8409 45.0473 39.637 44.5668 40.3056 43.9356C40.9742 43.3045 41.4997 42.5372 41.8465 41.6857L41.9767 41.3385L43.2724 37.543ZM59.1754 32C59.4761 32 59.7708 32.0844 60.0261 32.2435C60.2812 32.4026 60.4866 32.6302 60.6189 32.9002L60.6961 33.0883L61.2587 34.7377L62.9096 35.3004C63.211 35.4028 63.4751 35.5923 63.6686 35.8451C63.8622 36.0978 63.9765 36.4022 63.9967 36.7199C64.017 37.0376 63.9426 37.3541 63.7828 37.6294C63.623 37.9047 63.3852 38.1264 63.0993 38.2664L62.9096 38.3435L61.2603 38.9062L60.6977 40.5572C60.5951 40.8585 60.4054 41.1226 60.1526 41.3159C59.8999 41.5093 59.5952 41.6233 59.2778 41.6435C58.9601 41.6636 58.6436 41.589 58.3684 41.4291C58.0932 41.2692 57.8717 41.0312 57.7318 40.7453L57.6547 40.5572L57.092 38.9078L55.4411 38.3451C55.1397 38.2427 54.8756 38.0532 54.6821 37.8005C54.4885 37.5478 54.3744 37.2433 54.354 36.9256C54.3337 36.608 54.4082 36.2914 54.568 36.0161C54.7277 35.7408 54.9656 35.5191 55.2515 35.3791L55.4411 35.302L57.0904 34.7393L57.6531 33.0883C57.7614 32.7707 57.9665 32.495 58.2395 32.2998C58.5126 32.1046 58.8397 31.9998 59.1754 32Z" fill="url(#paint1_linear_66_49)"/>
</g>
<defs>
<linearGradient id="paint0_linear_66_49" x1="32" y1="0" x2="32" y2="64" gradientUnits="userSpaceOnUse">
<stop stop-color="#486FFF"/>
<stop offset="1" stop-color="#5A8DFF"/>
</linearGradient>
<linearGradient id="paint1_linear_66_49" x1="48" y1="32" x2="48" y2="64" gradientUnits="userSpaceOnUse">
<stop stop-color="#486FFF"/>
<stop offset="1" stop-color="#5A8DFF"/>
</linearGradient>
<clipPath id="clip0_66_49">
<rect width="64" height="64" fill="white"/>
</clipPath>
</defs>
</svg>
