<svg width="24" height="24" viewBox="0 0 24 24" fill="none" xmlns="http://www.w3.org/2000/svg">
<g id="ai">
<path id="Vector" d="M9.10701 5.448C9.70501 3.698 12.123 3.645 12.832 5.289L12.892 5.449L13.699 7.809C13.884 8.35023 14.1828 8.84551 14.5754 9.26142C14.9681 9.67734 15.4453 10.0042 15.975 10.22L16.192 10.301L18.552 11.107C20.302 11.705 20.355 14.123 18.712 14.832L18.552 14.892L16.192 15.699C15.6506 15.8838 15.1551 16.1826 14.739 16.5753C14.3229 16.9679 13.9959 17.4452 13.78 17.975L13.699 18.191L12.893 20.552C12.295 22.302 9.87701 22.355 9.16901 20.712L9.10701 20.552L8.30101 18.192C8.11619 17.6506 7.81738 17.1551 7.42475 16.739C7.03212 16.3229 6.55481 15.9959 6.02501 15.78L5.80901 15.699L3.44901 14.893C1.69801 14.295 1.64501 11.877 3.28901 11.169L3.44901 11.107L5.80901 10.301C6.35025 10.1161 6.84552 9.81719 7.26144 9.42457C7.67735 9.03195 8.00422 8.55469 8.22001 8.025L8.30101 7.809L9.10701 5.448ZM19 2C19.1871 2 19.3704 2.05248 19.5292 2.15147C19.6879 2.25046 19.8157 2.392 19.898 2.56L19.946 2.677L20.296 3.703L21.323 4.053C21.5105 4.1167 21.6748 4.23462 21.7952 4.39182C21.9156 4.54902 21.9867 4.73842 21.9993 4.93602C22.0119 5.13362 21.9656 5.33053 21.8662 5.50179C21.7668 5.67304 21.6189 5.81094 21.441 5.898L21.323 5.946L20.297 6.296L19.947 7.323C19.8832 7.51043 19.7652 7.6747 19.6079 7.79499C19.4507 7.91529 19.2612 7.98619 19.0637 7.99872C18.8661 8.01125 18.6692 7.96484 18.498 7.86538C18.3268 7.76591 18.189 7.61787 18.102 7.44L18.054 7.323L17.704 6.297L16.677 5.947C16.4895 5.8833 16.3252 5.76538 16.2048 5.60819C16.0844 5.45099 16.0134 5.26158 16.0007 5.06398C15.9881 4.86638 16.0344 4.66947 16.1338 4.49821C16.2332 4.32696 16.3812 4.18906 16.559 4.102L16.677 4.054L17.703 3.704L18.053 2.677C18.1204 2.47943 18.248 2.30791 18.4178 2.1865C18.5877 2.06509 18.7912 1.99987 19 2Z" fill="url(#paint0_linear_14812_3529)"/>
</g>
<defs>
<linearGradient id="paint0_linear_14812_3529" x1="2.09464" y1="11.9528" x2="22.0013" y2="11.9528" gradientUnits="userSpaceOnUse">
<stop stop-color="#00C479"/>
<stop offset="1" stop-color="#00BFAC"/>
</linearGradient>
</defs>
</svg>
