<svg width="24" height="24" viewBox="0 0 24 24" fill="none" xmlns="http://www.w3.org/2000/svg">
<path d="M8.45429 4.15722C9.17526 2.04726 12.0904 1.98336 12.9452 3.96551L13.0176 4.15842L13.9905 7.00385C14.2136 7.6564 14.5738 8.25356 15.0471 8.75502C15.5206 9.25649 16.0959 9.65058 16.7345 9.91077L16.9961 10.0084L19.8414 10.9802C21.9512 11.7012 22.0151 14.6166 20.0343 15.4714L19.8414 15.5437L16.9961 16.5167C16.3434 16.7395 15.746 17.0998 15.2444 17.5733C14.7427 18.0466 14.3485 18.6221 14.0882 19.2609L13.9905 19.5213L13.0188 22.3679C12.2978 24.4779 9.38263 24.5418 8.52904 22.5609L8.45429 22.3679L7.48256 19.5225C7.25974 18.8698 6.89948 18.2723 6.42612 17.7707C5.95276 17.269 5.3773 16.8747 4.73856 16.6144L4.47814 16.5167L1.63287 15.545C-0.478178 14.8239 -0.542075 11.9086 1.43997 11.055L1.63287 10.9802L4.47814 10.0084C5.13068 9.78549 5.72779 9.4251 6.22923 8.95172C6.73066 8.47835 7.12474 7.90292 7.38491 7.26428L7.48256 7.00385L8.45429 4.15722ZM20.3815 2.33861e-07C20.6071 2.33861e-07 20.8281 0.0632747 21.0195 0.182626C21.2109 0.301977 21.365 0.47263 21.4642 0.675186L21.522 0.816252L21.944 2.05329L23.1822 2.47528C23.4082 2.55208 23.6063 2.69426 23.7515 2.88379C23.8966 3.07333 23.9824 3.30168 23.9976 3.53993C24.0127 3.77817 23.9569 4.01558 23.8371 4.22207C23.7172 4.42854 23.5389 4.59481 23.3245 4.69978L23.1822 4.75765L21.9452 5.17964L21.5233 6.41788C21.4463 6.64387 21.3041 6.84192 21.1144 6.98696C20.9249 7.132 20.6964 7.21748 20.4583 7.23259C20.2201 7.2477 19.9827 7.19174 19.7763 7.07183C19.5699 6.9519 19.4038 6.77341 19.2989 6.55895L19.241 6.41788L18.819 5.18085L17.5809 4.75886C17.3548 4.68205 17.1567 4.53988 17.0116 4.35036C16.8664 4.16082 16.7808 3.93245 16.7655 3.69421C16.7503 3.45596 16.8061 3.21855 16.926 3.01207C17.0458 2.80559 17.2242 2.63933 17.4386 2.53436L17.5809 2.47649L18.8178 2.05449L19.2398 0.816252C19.3211 0.578044 19.4749 0.371244 19.6796 0.224861C19.8844 0.0784786 20.1298 -0.000156506 20.3815 2.33861e-07Z" fill="url(#paint0_linear_65_35)"/>
<defs>
<linearGradient id="paint0_linear_65_35" x1="9.43968e-06" y1="12" x2="24" y2="12" gradientUnits="userSpaceOnUse">
<stop stop-color="#486FFF"/>
<stop offset="1" stop-color="#5A8DFF"/>
</linearGradient>
</defs>
</svg>
