<svg width="20" height="20" viewBox="0 0 20 20" fill="none" xmlns="http://www.w3.org/2000/svg">
<g id="Frame">
<g id="Group">
<path id="Vector" fill-rule="evenodd" clip-rule="evenodd" d="M10 11.7683L14.4192 16.1875C14.6537 16.422 14.9717 16.5537 15.3033 16.5537C15.635 16.5537 15.953 16.422 16.1875 16.1875C16.422 15.953 16.5537 15.6349 16.5537 15.3033C16.5537 14.9717 16.422 14.6536 16.1875 14.4191L11.7667 9.99997L16.1867 5.5808C16.3027 5.46469 16.3948 5.32686 16.4576 5.17518C16.5203 5.02349 16.5526 4.86092 16.5526 4.69676C16.5526 4.53259 16.5202 4.37004 16.4573 4.21839C16.3945 4.06673 16.3024 3.92894 16.1863 3.81289C16.0701 3.69683 15.9323 3.60478 15.7806 3.54199C15.6289 3.47921 15.4664 3.44691 15.3022 3.44695C15.138 3.44699 14.9755 3.47936 14.8238 3.54222C14.6722 3.60508 14.5344 3.69719 14.4183 3.8133L10 8.23247L5.58083 3.8133C5.46558 3.69386 5.3277 3.59857 5.17522 3.53299C5.02275 3.46741 4.85874 3.43285 4.69277 3.43133C4.52679 3.42981 4.36218 3.46136 4.20853 3.52414C4.05488 3.58691 3.91527 3.67966 3.79785 3.79697C3.68043 3.91428 3.58755 4.05381 3.52463 4.2074C3.4617 4.36099 3.43 4.52557 3.43136 4.69154C3.43273 4.85752 3.46713 5.02156 3.53257 5.17409C3.59801 5.32663 3.69317 5.4646 3.8125 5.57997L8.23333 9.99997L3.81333 14.42C3.694 14.5353 3.59884 14.6733 3.5334 14.8258C3.46796 14.9784 3.43356 15.1424 3.4322 15.3084C3.43083 15.4744 3.46254 15.639 3.52546 15.7925C3.58838 15.9461 3.68127 16.0857 3.79869 16.203C3.91611 16.3203 4.05572 16.413 4.20936 16.4758C4.36301 16.5386 4.52763 16.5701 4.6936 16.5686C4.85957 16.5671 5.02358 16.5325 5.17605 16.467C5.32853 16.4014 5.46641 16.3061 5.58167 16.1866L10 11.7683Z" fill="#FEE522"/>
</g>
</g>
</svg>
