<svg width="63" height="36" viewBox="0 0 63 36" fill="none" xmlns="http://www.w3.org/2000/svg">
<g id="_&#233;&#154;&#148;&#231;&#166;&#187;&#230;&#168;&#161;&#229;&#188;&#143;" clip-path="url(#clip0_361_138)">
<path id="Vector" d="M62.2163 8.05862C61.9978 8.05862 61.8126 7.98118 61.6558 7.82146C61.4991 7.66174 61.4231 7.47298 61.4231 7.25518C61.4231 7.03738 61.4991 6.84378 61.6558 6.6889C61.8126 6.53402 61.9978 6.45174 62.2163 6.45174C62.4348 6.45174 62.6153 6.52918 62.7673 6.6889C62.9192 6.84378 63 7.03738 63 7.25518C63 7.47298 62.924 7.66658 62.7673 7.82146C62.6153 7.98118 62.43 8.05862 62.2163 8.05862ZM62.2163 6.5437C62.0216 6.5437 61.8601 6.61146 61.7223 6.75182C61.5846 6.89218 61.5181 7.06158 61.5181 7.25518C61.5181 7.44878 61.5846 7.61818 61.7223 7.7537C61.8601 7.88922 62.0263 7.96182 62.2163 7.96182C62.4063 7.96182 62.5725 7.89406 62.7055 7.7537C62.8433 7.61818 62.9097 7.44878 62.9097 7.25518C62.9097 7.06158 62.8433 6.89218 62.7055 6.75182C62.5678 6.61146 62.4063 6.5437 62.2163 6.5437ZM62.5963 7.75854H62.4253L62.316 7.5117C62.259 7.3907 62.202 7.32778 62.1356 7.32778H62.0453V7.75854H61.9028V6.7373H62.1878C62.3018 6.7373 62.392 6.7615 62.4538 6.8099C62.5155 6.8583 62.5488 6.92606 62.5488 7.01318C62.5488 7.08578 62.525 7.14386 62.4823 7.19226C62.4395 7.24066 62.3778 7.27454 62.297 7.2939C62.354 7.30842 62.4063 7.37134 62.4633 7.4875L62.5915 7.76338L62.5963 7.75854ZM62.0453 6.8583V7.20678H62.1925C62.335 7.20678 62.4015 7.1487 62.4015 7.03254C62.4015 6.96962 62.3825 6.92606 62.3445 6.89702C62.3065 6.86798 62.2448 6.8583 62.1688 6.8583H62.0453Z" fill="white"/>
<path id="Vector_2" d="M45.7346 19.1369V19.1277H45.7301C45.7301 19.1277 45.7301 19.1323 45.7346 19.1369Z" fill="white"/>
<g id="Group">
<path id="Vector_3" d="M58.4973 16.6593L58.4878 16.6061C58.445 16.398 58.3073 16.2286 58.1126 16.1511L58.0746 16.1366C58.0746 16.1366 58.0651 16.1366 58.0603 16.1318C57.9131 16.0785 57.7136 16.035 57.4618 15.9817C57.2719 15.9382 57.0534 15.8898 56.8871 15.8414L56.7209 15.793V15.7591C56.7209 15.5074 56.7114 15.2606 56.6591 15.0573C56.5926 14.7717 56.3504 14.5588 56.0559 14.5346C55.9894 14.5297 55.9182 14.5346 55.8469 14.5491C55.8232 14.5539 55.7994 14.5588 55.7757 14.5684L53.8141 15.004C53.8426 14.9266 53.8616 14.8588 53.8901 14.7669C54.0468 14.3313 53.8521 14.0312 53.7571 13.9199C53.4673 13.5811 52.9164 13.0051 52.4699 12.9712C52.4129 12.9664 52.3512 12.9712 52.2942 12.9761C52.2704 12.9761 52.2419 12.9858 52.2182 12.9954L52.1754 13.0051C51.9807 13.0584 51.8287 13.1939 51.7385 13.3778L51.5437 13.1261L51.5247 13.0971C51.482 13.039 51.4345 12.9809 51.3727 12.9374L51.3205 12.8986C51.216 12.8164 51.0877 12.768 50.9595 12.7583C50.798 12.7438 50.6365 12.7873 50.5035 12.8841L50.4703 12.9083C50.3515 12.9906 50.1711 13.16 50.1236 13.2084L50.0808 13.2471C49.9906 13.3294 49.8766 13.4359 49.6771 13.6779C49.6723 13.6876 49.6628 13.6924 49.6581 13.7021C49.4301 14.007 49.4396 14.4232 49.6771 14.7088C49.6961 14.733 49.7151 14.7524 49.7341 14.7717C49.7721 14.8104 49.8338 14.8588 49.9193 14.9024L50.2708 15.0912H50.1806C50.1806 15.0912 50.1758 15.096 50.1711 15.096C50.0381 15.1057 49.8433 15.096 49.6676 15.0912H49.6248C49.3636 15.0766 49.1309 15.0621 48.9409 15.096C48.9124 15.1008 48.8791 15.1105 48.8506 15.1202L48.8079 15.1347C48.7461 15.1541 48.6892 15.1831 48.6369 15.2218C48.6274 15.2025 48.6179 15.188 48.6037 15.1686L48.5562 15.096C48.4897 14.9944 48.4042 14.9072 48.3092 14.8443C48.3947 14.733 48.4612 14.6314 48.5182 14.5442C48.5562 14.4813 48.5752 14.462 48.5799 14.4571C48.8506 14.1328 48.9171 13.6924 48.7509 13.3197C48.4659 12.6373 47.7772 12.6082 47.2167 12.584L46.8843 12.5647C46.8558 12.3953 46.7893 12.2114 46.6515 12.0419C46.6373 12.0226 45.1696 10.3383 44.1294 10.6335C43.702 10.7497 43.3932 11.1175 43.3457 11.5579C43.3315 11.6935 43.3172 11.8483 43.3125 12.0274C41.3414 11.5483 40.5197 11.7999 40.5197 11.7999C40.2299 10.5028 39.85 10.1785 39.85 10.1785C39.641 9.96075 39.3322 9.86879 39.033 9.94139L38.8858 9.98011C38.6958 10.0285 38.3396 10.1737 38.1876 10.2463L38.0926 10.285C37.9311 10.3528 37.6936 10.4544 37.2329 10.7206C37.2186 10.7303 37.2044 10.74 37.1901 10.7497C36.8672 10.9675 36.6867 11.3159 36.6819 11.6789C36.6392 11.6789 36.6012 11.6741 36.5584 11.6693C36.0217 11.6257 35.561 11.5821 35.2285 11.6112C35.0053 11.6257 34.7963 11.7177 34.63 11.8532C34.4353 11.587 34.1503 11.3982 33.8131 11.3353C33.7086 11.3159 33.6089 11.3111 33.4949 11.3208L33.0436 11.3547L32.6304 11.374C32.6067 11.2143 32.5544 11.0594 32.4689 10.9191C32.2742 10.5948 31.9465 10.3867 31.5665 10.3576C31.5617 10.3576 30.2556 10.2657 29.5526 10.2173C29.2961 10.1979 29.0681 10.3721 29.0111 10.6287L28.8734 11.2433C28.8449 11.374 28.8117 11.5047 28.7784 11.6354H28.7262L27.686 11.6886L27.0163 11.7322C26.983 11.7322 26.9498 11.7419 26.9165 11.7515C26.7313 11.5773 26.4986 11.4757 26.2706 11.4611C26.1613 11.4515 26.0473 11.4611 25.9428 11.4853L17.5311 12.3662C15.6835 12.4679 17.2461 14.4136 17.3886 14.6507L17.2129 14.5152C17.0704 14.399 16.9232 14.2829 16.7949 14.1861C16.7332 14.1377 16.6714 14.0941 16.6239 14.0602C16.5764 14.0264 16.5337 13.9925 16.5004 13.9683L16.4149 13.9054L16.13 13.6924C15.9827 13.5811 15.807 13.5085 15.6312 13.4794C15.503 13.4601 15.3748 13.4601 15.2465 13.4794C15.1705 13.494 15.0945 13.5133 15.0233 13.5472C14.952 13.5762 14.8808 13.615 14.819 13.6585C14.7858 13.6779 14.7573 13.7021 14.7241 13.7263C14.6338 13.7989 14.5531 13.8908 14.4913 13.9876L14.2966 14.2877L14.2301 14.3894L13.4606 15.58C13.4891 15.4638 13.5129 15.3477 13.5366 15.2412C13.5509 15.1734 13.5651 15.1057 13.5794 15.0379C13.5889 14.9847 13.6031 14.9314 13.6126 14.883L13.6316 14.7911L13.6839 14.5442C13.7219 14.3458 13.7124 14.1474 13.6601 13.9634C13.6221 13.8424 13.5699 13.7263 13.4939 13.6198C13.3846 13.4649 13.2374 13.3342 13.0617 13.2471L12.8384 13.1358L12.7577 13.0971C12.6437 13.039 12.5154 12.9809 12.354 12.918C12.3017 12.8986 12.2447 12.8744 12.1877 12.8502C12.0642 12.8018 11.9122 12.7486 11.746 12.7002C11.461 12.6179 11.1285 12.5405 10.7818 12.4776C10.7296 12.4679 10.6821 12.4582 10.6346 12.4534C10.3971 12.4146 10.1691 12.3904 9.96011 12.3759H9.86511L9.60863 12.3517C9.47564 12.342 9.34265 12.3566 9.21915 12.3953C9.15741 12.4146 9.09566 12.4388 9.03866 12.463C8.92467 12.5211 8.81543 12.5937 8.72519 12.6857C8.58744 12.8212 8.48295 12.9954 8.42595 13.1939L8.35471 13.4456L8.33096 13.5375C8.33096 13.5375 8.33096 13.5375 8.33096 13.5424C8.10772 14.3361 7.69925 16.064 7.36202 17.6031C7.34777 17.5934 7.33827 17.5838 7.32877 17.5741L7.31452 17.5596C7.27653 17.5257 7.23853 17.4918 7.20053 17.4579C6.9773 17.2692 6.75881 17.061 6.54507 16.8481C6.33134 16.6351 6.1176 16.4076 5.90861 16.1898L5.88012 16.1608L5.67588 15.9478C5.67588 15.9478 5.66638 15.9382 5.66163 15.9333L4.5027 14.7378C4.5027 14.7378 4.5027 14.733 4.49795 14.733C4.49795 14.733 4.49795 14.733 4.4932 14.7282C4.4932 14.7282 4.48845 14.7233 4.4837 14.7185L4.38871 14.6265L4.15123 14.3894C4.06573 14.3022 3.96599 14.2345 3.86149 14.1812C3.757 14.128 3.64301 14.0893 3.52901 14.0699C3.45777 14.0602 3.38652 14.0554 3.31053 14.0554C3.08729 14.0602 2.87831 14.1328 2.69782 14.2587C2.67882 14.2684 2.66457 14.2829 2.64557 14.2926C2.58857 14.3361 2.53633 14.3845 2.48883 14.4378L2.26559 14.6894L2.18485 14.7814C1.99486 14.9895 1.80012 15.217 1.62439 15.4251L1.39165 15.6962C1.3394 15.7542 1.28716 15.8172 1.22541 15.8898C1.15892 15.9672 1.09242 16.0495 1.01642 16.1414C0.916681 16.2624 0.807438 16.398 0.683945 16.5625C0.641198 16.6206 0.593701 16.6835 0.546204 16.7464L0.441711 16.8916L0.284971 17.1046C0.232724 17.1772 0.189977 17.2498 0.151979 17.3321C0.13773 17.366 0.123481 17.3998 0.109232 17.4289C0.042736 17.608 0.0142378 17.7967 0.0284869 17.9855C0.0332366 18.0871 0.0522354 18.1936 0.0854833 18.2952C0.13298 18.4453 0.204226 18.5856 0.29922 18.7066C0.422712 18.8712 0.588951 19.0019 0.77419 19.089C0.821687 19.1132 0.869184 19.1277 0.916681 19.1471L1.16841 19.2294L1.3299 19.2826C1.53889 19.3552 1.74313 19.4472 1.93312 19.5633C2.50308 19.9166 3.05879 20.3861 3.59076 20.8411L3.80925 21.025L4.02773 21.2089L4.08473 21.2573C4.08473 21.2573 4.08948 21.2622 4.09423 21.267C4.14648 21.3106 4.19872 21.3638 4.25097 21.4122L4.39346 21.5381L5.3434 22.3996C5.38615 22.4335 5.42889 22.4673 5.47164 22.4964C5.56189 22.5545 5.65688 22.6029 5.75662 22.6319C5.80887 22.6464 5.86112 22.6609 5.91336 22.6706C5.94661 22.6755 5.97986 22.6803 6.01311 22.6803C6.04636 22.6803 6.0796 22.6803 6.11285 22.6803C6.0796 22.7868 6.0416 22.8933 6.00836 22.9949C5.88487 23.3627 5.77087 23.6967 5.67588 23.9581C5.24841 25.1293 4.17972 27.6703 3.66676 28.7303C3.66676 28.7303 3.66676 28.74 3.66201 28.7448L3.60026 28.8755L3.43402 29.2288C3.36278 29.3837 3.32478 29.5483 3.32478 29.7177C3.32478 29.7177 3.32478 29.7225 3.32478 29.7273C3.32478 29.8967 3.35803 30.0662 3.42927 30.2259C3.50052 30.3856 3.60501 30.5211 3.7285 30.6324C3.76175 30.6615 3.795 30.6857 3.82825 30.7099C3.89474 30.7583 3.97074 30.797 4.05148 30.8309C4.08948 30.8454 4.13223 30.8599 4.17022 30.8744L4.53595 30.9809L4.66894 31.0196C5.08217 31.1358 5.66163 31.2568 6.26959 31.3536C6.33609 31.3633 6.39783 31.373 6.45958 31.3826C6.8443 31.4407 7.09129 31.4649 7.25278 31.4746C7.31927 31.4746 7.37152 31.4794 7.41427 31.4794C7.43802 31.4794 7.45702 31.4794 7.47126 31.4794C7.47126 31.4794 7.50451 31.4794 7.51876 31.4794H7.52826C7.54251 31.4794 7.55676 31.4794 7.57101 31.4794H7.57576C7.75625 31.4649 7.93673 31.431 8.11247 31.3826H8.11722H8.13147L8.13622 31.3778C8.13622 31.3778 8.14572 31.3778 8.15047 31.3778C8.16472 31.3778 8.17897 31.3681 8.19322 31.3633H8.20272L8.25496 31.3439L8.39746 31.2955C8.5162 31.2568 8.63019 31.1987 8.72993 31.1213C8.79643 31.0729 8.85818 31.0148 8.91042 30.9519C8.96267 30.889 9.01492 30.8212 9.05291 30.7438C9.07191 30.705 9.09091 30.6663 9.10991 30.6276L9.16691 30.4872L9.55163 29.5531C9.55163 29.5531 9.57063 29.5096 9.58013 29.4902C9.58963 29.4708 9.59438 29.4515 9.60388 29.4321C9.61338 29.4079 9.62288 29.3885 9.63238 29.3595L9.65138 29.3111L9.67037 29.2627C9.68937 29.2143 9.70837 29.1611 9.72262 29.1127C9.81762 28.8319 9.93636 28.4689 10.0504 28.0769C10.1453 27.7623 10.2403 27.4332 10.3306 27.1089C10.3781 26.9492 10.4208 26.7895 10.4636 26.6394C10.5681 26.2571 10.6583 25.9183 10.7201 25.6714L10.7581 25.5311L13.6886 27.893C13.6886 27.893 13.7124 27.9123 13.7361 27.9317C13.8454 28.0188 14.0876 28.2221 14.3821 28.4496C14.5008 28.5415 14.6291 28.6383 14.7573 28.7351C14.7621 28.7351 14.7858 28.7593 14.8285 28.7884C14.8713 28.8174 14.9283 28.861 14.9995 28.9142C15.0328 28.9384 15.0755 28.9675 15.1135 28.9965C15.5648 29.3256 16.3295 29.8677 16.7522 30.0516C16.7617 30.0516 16.7712 30.0613 16.7807 30.0613C16.7807 30.0613 16.7807 30.0613 16.7854 30.0613C16.8234 30.0758 16.8614 30.0904 16.9042 30.1C16.9469 30.1097 16.9849 30.1194 17.0229 30.1242C17.1512 30.1436 17.2841 30.1436 17.4171 30.1194C17.5501 30.0952 17.6736 30.0468 17.7924 29.9742L17.9728 29.8677L18.0393 29.829L18.0536 29.8193C18.0773 29.8048 18.1058 29.7854 18.1296 29.7709L18.1391 29.7612L18.2578 29.6741L18.2721 29.6644C18.2721 29.6644 18.3101 29.6354 18.3291 29.616C18.3433 29.6015 18.3623 29.5918 18.3766 29.5773L18.3908 29.5628H18.3956C18.3956 29.5628 18.4146 29.5386 18.4241 29.5338C18.4573 29.5047 18.4906 29.4708 18.5238 29.4321C18.7803 29.1562 19.1603 28.6625 19.5023 28.1689C19.5213 28.1398 19.545 28.1108 19.5687 28.0769C19.5782 28.0624 19.5925 28.043 19.6067 28.0237C19.621 28.0091 19.6305 27.9898 19.6447 27.9704C19.6637 27.9462 19.678 27.922 19.697 27.8978C19.7065 27.8881 19.7112 27.8736 19.7207 27.8639C19.792 27.7623 19.868 27.6558 19.9487 27.5397C19.9487 27.5397 19.9535 27.53 19.9582 27.53C19.9867 27.4913 20.0105 27.4525 20.039 27.4138C20.039 27.409 20.0485 27.3993 20.0532 27.3945C20.0817 27.3557 20.1055 27.3122 20.134 27.2735L20.4047 27.3896C20.5472 27.4525 20.8274 27.5493 21.4734 27.772C21.7109 27.8543 21.9246 27.9269 22.0291 27.9656C22.1383 28.0043 22.2856 28.0527 22.4661 28.0672C22.5943 28.0769 22.7225 28.0672 22.8413 28.0479C23.3685 27.9462 23.644 27.5784 23.7342 27.4622C23.8672 27.288 23.9955 27.1041 24.1237 26.9153C24.195 26.8088 24.2662 26.7023 24.3374 26.6007C24.5464 26.3006 24.7839 25.9618 24.9977 25.5456C25.1069 25.3278 25.2066 25.0906 25.2969 24.8535C25.5676 25.1923 25.9618 25.6859 26.0473 25.8021C26.2468 26.0635 26.5271 26.2183 26.8405 26.2474C27.154 26.2716 27.439 26.1554 27.6337 26.0005L30.4503 23.8032L30.588 24.142L31.0725 25.3084C31.1153 25.4149 31.2245 25.4827 31.3385 25.4778L32.0985 25.4488C32.5402 25.4439 32.9249 25.4294 33.2431 25.4052C33.5186 25.3859 33.7418 25.3568 33.9271 25.3229C34.2691 25.2649 34.5683 25.1681 34.8295 25.0229C35.0243 24.9115 35.352 24.7325 35.6037 24.3695C35.7272 24.2001 35.9267 23.9193 36.0265 23.4402C36.0312 23.4111 36.0407 23.3676 36.0502 23.3192C36.0645 23.4595 36.1072 23.5902 36.1784 23.7064L36.2069 23.7548C36.2069 23.7548 36.2212 23.779 36.2307 23.7887C36.3969 24.0258 36.6059 24.1275 36.7199 24.1807H36.7342C36.7342 24.1807 36.7627 24.2001 36.7769 24.2097C36.8719 24.2485 36.9716 24.2823 37.0761 24.3114C37.3136 24.3695 37.5986 24.4033 37.7933 24.4179C37.9976 24.4372 38.2778 24.4517 38.4631 24.4275C38.5818 24.413 38.6958 24.384 38.824 24.3404C39.4842 24.1033 39.6362 23.5515 39.6885 23.3676C39.6885 23.3579 39.698 23.3385 39.698 23.3337C39.7312 23.2611 39.793 23.1062 39.9307 22.69C40.0447 22.8981 40.2252 23.0627 40.4722 23.174C41.0516 23.4305 42.2486 23.445 42.2486 23.445C42.41 23.445 42.562 23.4063 42.6998 23.3337C42.752 23.537 42.8518 23.7306 43.0228 23.8951C43.0275 23.9 43.037 23.9097 43.0418 23.9145C43.227 24.0839 43.4597 24.1855 43.7067 24.2097C43.8445 24.2194 43.9822 24.2097 44.1152 24.171C44.1484 24.1613 44.1817 24.1565 44.2244 24.1468C44.5569 24.0791 45.1079 23.9629 45.6683 23.3095C45.8488 23.5612 46.0863 23.7161 46.3713 23.7596C46.4235 23.7693 46.8178 23.8225 47.2215 23.8371C47.8437 23.8613 48.4659 23.8225 48.7984 23.3579C48.8174 23.3337 48.8316 23.3047 48.8459 23.2805C49.1879 23.3724 49.4776 23.4353 49.7626 23.4934C50.418 23.6193 51.2207 23.7354 51.691 23.7838L51.8144 23.7983C51.9284 23.8129 52.0234 23.8225 52.0994 23.8322C52.2752 23.8564 52.5412 23.9 52.8024 23.9435C52.9591 23.9677 53.1301 23.9968 53.3106 24.0258C53.3724 24.1323 53.4626 24.2146 53.5766 24.2678L53.6811 24.3162C54.0183 24.4711 54.2036 24.534 54.3413 24.5776H54.3603L54.4363 24.6066C54.574 24.655 54.7925 24.7228 54.9065 24.747L54.973 24.7615C55.0015 24.7663 55.0252 24.7712 55.0537 24.776C55.1867 24.7857 55.3197 24.7518 55.4337 24.6792C55.5715 24.5921 55.6665 24.4517 55.6997 24.2872C55.6997 24.2872 56.6876 21.3299 56.8396 20.7782L56.9014 20.5846V20.5749L56.9204 20.512C56.9489 20.4152 56.9536 20.3087 56.9346 20.2119C57.1769 20.028 57.3004 19.8295 57.3953 19.6408L57.4428 19.5536C57.5758 19.3262 57.5806 19.0503 57.4523 18.8276C57.2386 18.4453 56.8016 18.4066 56.4787 18.3824C56.4407 18.3824 56.3979 18.3775 56.3504 18.3727H56.3362L56.2839 18.3678C56.2174 18.363 56.1984 18.3582 56.1889 18.3582L56.1177 18.3436C56.3077 18.3049 56.4597 18.2759 56.5689 18.2614C56.5689 18.2614 56.5784 18.2614 56.5831 18.2614L56.7494 18.2323C57.0771 18.1742 57.3099 18.1307 57.4808 18.0581C57.5283 18.0436 57.5711 18.0242 57.6091 18C57.6091 18 57.6091 18 57.6138 18C57.7896 17.8984 58.0461 17.6322 58.0936 17.5789C58.3643 17.2934 58.54 17.0368 58.5163 16.7319C58.5163 16.7077 58.5115 16.6835 58.5068 16.6593H58.4973ZM22.0908 21.9011C22.0766 21.9495 22.0338 22.0366 21.9958 22.1092C21.9483 22.206 21.8961 22.3125 21.8534 22.4286C21.6729 22.8933 21.3404 23.4595 20.8417 24.1565C20.7799 24.2436 20.7182 24.3259 20.6612 24.413L20.6517 24.4275C20.4569 24.7034 20.2527 24.989 20.0152 25.2745L19.8062 25.1874L19.6732 25.1342L19.4643 25.0374L19.3503 24.9841C19.241 24.9357 19.127 24.8777 19.0035 24.8244C18.1628 24.4275 17.0894 23.8855 16.2867 23.2998L16.1347 23.1885C15.921 23.0336 15.7357 22.8981 15.541 22.7432C15.3463 22.5883 15.142 22.4093 14.895 22.1673C14.895 22.1673 14.9093 22.1479 14.9283 22.114C14.9568 22.0705 15.0043 21.993 15.066 21.9059C15.0803 21.8817 15.0993 21.8575 15.1135 21.8333C15.142 21.7946 15.1705 21.751 15.2038 21.7026L15.2133 21.6881C15.2608 21.6203 15.313 21.5429 15.3653 21.4655C15.3653 21.4655 15.3748 21.4558 15.3748 21.4509C15.408 21.4025 15.4413 21.3541 15.4793 21.3057C15.5505 21.2041 15.6312 21.0976 15.7167 20.9814C15.8022 20.8701 15.8925 20.7491 15.9875 20.6281C16.035 20.5652 16.0825 20.5023 16.1347 20.4394C16.2345 20.3135 16.3437 20.1828 16.4529 20.0522C16.6382 19.815 16.8377 19.5682 17.0419 19.3262C17.1464 19.2052 17.2509 19.089 17.3554 18.9728C17.4599 18.8615 17.5691 18.7502 17.6784 18.6486C17.7591 18.5711 17.8494 18.4985 17.9396 18.4308C18.0298 18.363 18.1296 18.3001 18.2293 18.2468L18.3766 18.1646L18.5571 18.0629L18.6568 18.0097C18.6568 18.0097 18.6853 17.9952 18.6996 17.9855C18.6521 18.15 18.6378 18.3388 18.6853 18.5518C18.7613 18.9002 18.9988 19.1858 19.3313 19.3358C19.4263 19.3794 19.5023 19.4036 19.583 19.4278C19.659 19.452 19.716 19.4714 19.8442 19.544C20.077 19.6795 20.3192 19.8489 20.5282 19.9941C20.6279 20.0618 20.7182 20.1296 20.8084 20.1877C20.9462 20.2796 21.0886 20.3958 21.2596 20.541C21.4069 20.6717 21.5541 20.8072 21.7061 20.9476L21.7774 21.0105C21.8961 21.117 22.0101 21.2138 22.1241 21.3154C22.1478 21.3977 22.1716 21.4848 22.1953 21.5671C22.1621 21.6784 22.1241 21.7849 22.0861 21.8914L22.0908 21.9011Z" fill="white"/>
<path id="Vector_4" d="M6.07486 21.4993L6.28385 21.1557L6.36459 21.0202C6.60208 20.6233 6.84906 20.1877 7.02955 19.8682L7.20529 19.5536L7.25279 19.4714L7.37628 19.2584L7.20529 19.0793L7.13879 19.0116C7.02005 18.8857 6.86331 18.7454 6.74457 18.6437L6.71132 18.6147C6.61633 18.5324 6.54983 18.4695 6.49758 18.4211L6.47859 18.4066L6.45959 18.392C5.95612 17.971 5.4954 17.4821 5.04418 17.0078L5.01568 16.9788L4.81144 16.761L3.65251 15.5655L3.55752 15.4735L3.32004 15.2364L3.0968 15.488L3.01131 15.5848C2.83082 15.7784 2.64083 16.0011 2.47934 16.1995L2.2371 16.4802C2.03287 16.7174 1.80013 16.9836 1.4534 17.4579L1.34891 17.6031L1.19217 17.8161C1.13517 17.8935 1.17317 18 1.25867 18.029L1.5104 18.1113L1.67664 18.1646C1.97112 18.2614 2.2561 18.3969 2.51734 18.5566C3.16805 18.9583 3.75226 19.4568 4.31747 19.9408L4.81144 20.3571C4.92068 20.4491 5.01568 20.541 5.09642 20.6233C5.20092 20.7298 5.30066 20.8314 5.41465 20.9089C5.4954 20.9669 5.59514 21.0347 5.68539 21.1267L5.79938 21.238L6.08911 21.5187L6.07486 21.4993Z" fill="#D7000F"/>
<path id="Vector_5" d="M12.4679 19.6601L12.7054 19.936L12.7149 19.9554C12.9762 20.2603 13.3039 20.6378 13.6126 20.9766L13.7124 21.0831L14.0116 21.4074L14.2443 21.0347L14.3251 20.9088C14.4011 20.7878 14.4913 20.691 14.5673 20.6088C14.6623 20.5071 14.7383 20.391 14.819 20.27V20.2603C14.8903 20.1635 14.9568 20.0618 15.0375 19.965L15.4317 19.4665C15.8592 18.9196 16.3437 18.3049 16.8899 17.7919C17.1226 17.5741 17.3839 17.3805 17.6689 17.2256L17.8113 17.1433L18.0916 16.9884C18.1581 16.9497 18.1723 16.8529 18.1106 16.8045L17.8731 16.5867L17.7544 16.4754C17.2889 16.0495 16.9944 15.822 16.7569 15.6381L16.4767 15.4203C16.2059 15.1976 15.9162 14.9847 15.8022 14.9024L15.712 14.8346L15.427 14.6217L15.2323 14.9218L15.1658 15.0234L14.2491 16.4415L14.1018 16.6738L14.0971 16.6884V16.698C13.7646 17.2208 13.3941 17.8161 12.9762 18.3388L12.9667 18.3533L12.9572 18.3678C12.9144 18.4308 12.8574 18.5034 12.7862 18.6002V18.605L12.7672 18.634C12.6769 18.7502 12.5297 18.9486 12.4299 19.1084L12.3824 19.1858L12.2495 19.4036L12.4157 19.5972L12.4727 19.6601H12.4679Z" fill="#D7000F"/>
<path id="Vector_6" d="M18.8753 26.0538C17.9586 25.6279 16.6239 24.9841 15.6218 24.2581L15.4698 24.1468C14.9235 23.7548 14.4961 23.4402 13.7171 22.6367C13.2232 22.1237 12.126 21.0589 11.2853 20.2942L11.1 20.1296L11.5323 18.6292V18.6147L11.537 18.6002C11.5845 18.3824 11.6748 18.0097 11.8125 17.4386L11.8457 17.2982C12.0262 16.5528 12.3207 15.3041 12.4585 14.6362L12.4775 14.5491L12.5297 14.3022L12.3065 14.1909L12.2257 14.1522C12.1022 14.0893 11.9502 14.0215 11.7412 13.9392C11.4943 13.8376 11.024 13.7166 10.5538 13.6343C10.5111 13.6246 10.4683 13.6198 10.4256 13.6101C10.2213 13.5762 10.0314 13.5569 9.86037 13.5424H9.76537L9.50889 13.5182L9.43764 13.7698L9.4139 13.8618C9.05767 15.1347 8.16948 19.0745 7.94624 20.3184C7.72775 21.5284 7.0058 23.6483 6.74457 24.3598C6.30759 25.5553 5.21041 28.1592 4.68795 29.2434L4.6262 29.374L4.45996 29.7274L4.82569 29.8338L4.95868 29.8726C5.32441 29.9742 5.87537 30.0904 6.43109 30.1775C6.49283 30.1872 6.54983 30.1968 6.60682 30.2065C6.87756 30.2452 7.24328 30.2936 7.43802 30.2936H7.44277H7.44752H7.45702H7.46177H7.46652C7.58051 30.284 7.69451 30.2646 7.799 30.2356H7.818L7.8275 30.2307H7.837L7.88924 30.2114L8.03173 30.163L8.08873 30.0226L8.48296 29.074C8.50195 29.0256 8.5257 28.9772 8.54945 28.9142L8.5922 28.8078C8.88193 27.9946 9.3854 26.1651 9.59439 25.3665V25.3423L10.1264 23.5225L14.4058 26.9734C14.6243 27.1573 15.8782 28.1737 16.3675 28.406C16.5717 28.5028 16.7284 28.6238 16.8757 28.74L16.8852 28.7497V28.7545L16.9517 28.8078V28.8126L17.0134 28.8562L17.1844 28.9772L17.3649 28.8707L17.4314 28.832H17.4409L17.4504 28.8174L17.5691 28.7303L17.5834 28.7206L17.5976 28.7061H17.6024V28.6964C17.8921 28.4157 18.7043 27.3122 19.051 26.6878L19.1128 26.5765L19.2838 26.2667L18.9655 26.1215L18.8515 26.0683L18.8753 26.0538Z" fill="#D7000F"/>
</g>
<g id="Group_2">
<path id="Vector_7" d="M6.07486 21.4993L6.28385 21.1557L6.36459 21.0202C6.60208 20.6233 6.84906 20.1877 7.02955 19.8682L7.20529 19.5536L7.25279 19.4714L7.37628 19.2584L7.20529 19.0793L7.13879 19.0116C7.02005 18.8857 6.86331 18.7454 6.74457 18.6437L6.71132 18.6147C6.61633 18.5324 6.54983 18.4695 6.49758 18.4211L6.47859 18.4066L6.45959 18.392C5.95612 17.971 5.4954 17.4821 5.04418 17.0078L5.01568 16.9788L4.81144 16.761L3.65251 15.5655L3.55752 15.4735L3.32004 15.2364L3.0968 15.488L3.01131 15.5848C2.83082 15.7784 2.64083 16.0011 2.47934 16.1995L2.2371 16.4802C2.03287 16.7174 1.80013 16.9836 1.4534 17.4579L1.34891 17.6031L1.19217 17.8161C1.13517 17.8935 1.17317 18 1.25867 18.029L1.5104 18.1113L1.67664 18.1646C1.97112 18.2614 2.2561 18.3969 2.51734 18.5566C3.16805 18.9583 3.75226 19.4568 4.31747 19.9408L4.81144 20.3571C4.92068 20.4491 5.01568 20.541 5.09642 20.6233C5.20092 20.7298 5.30066 20.8314 5.41465 20.9089C5.4954 20.9669 5.59514 21.0347 5.68539 21.1267L5.79938 21.238L6.08911 21.5187L6.07486 21.4993Z" fill="#D7000F"/>
<path id="Vector_8" d="M12.468 19.6601L12.7055 19.936L12.715 19.9554C12.9762 20.2603 13.3039 20.6378 13.6126 20.9766L13.7124 21.0831L14.0116 21.4074L14.2444 21.0347L14.3251 20.9088C14.4011 20.7878 14.4913 20.691 14.5673 20.6088C14.6623 20.5071 14.7383 20.391 14.8191 20.27V20.2603C14.8903 20.1635 14.9568 20.0618 15.0376 19.965L15.4318 19.4665C15.8593 18.9196 16.3437 18.3049 16.8899 17.7919C17.1227 17.5741 17.3839 17.3805 17.6689 17.2256L17.8114 17.1433L18.0916 16.9884C18.1581 16.9497 18.1724 16.8529 18.1106 16.8045L17.8731 16.5867L17.7544 16.4754C17.2889 16.0495 16.9944 15.822 16.7569 15.6381L16.4767 15.4203C16.206 15.1976 15.9162 14.9847 15.8023 14.9024L15.712 14.8346L15.427 14.6217L15.2323 14.9218L15.1658 15.0234L14.2491 16.4415L14.1019 16.6738L14.0971 16.6884V16.698C13.7646 17.2208 13.3942 17.8161 12.9762 18.3388L12.9667 18.3533L12.9572 18.3678C12.9144 18.4308 12.8574 18.5034 12.7862 18.6002V18.605L12.7672 18.634C12.677 18.7502 12.5297 18.9486 12.43 19.1084L12.3825 19.1858L12.2495 19.4036L12.4157 19.5972L12.4727 19.6601H12.468Z" fill="#D7000F"/>
<path id="Vector_9" d="M18.8753 26.0538C17.9586 25.6279 16.6239 24.9841 15.6218 24.2581L15.4698 24.1468C14.9235 23.7548 14.4961 23.4402 13.7171 22.6367C13.2232 22.1237 12.126 21.0589 11.2853 20.2942L11.1 20.1296L11.5323 18.6292V18.6147L11.537 18.6002C11.5845 18.3824 11.6748 18.0097 11.8125 17.4386L11.8457 17.2982C12.0262 16.5528 12.3207 15.3041 12.4585 14.6362L12.4775 14.5491L12.5297 14.3022L12.3065 14.1909L12.2257 14.1522C12.1022 14.0893 11.9502 14.0215 11.7412 13.9392C11.4943 13.8376 11.024 13.7166 10.5538 13.6343C10.5111 13.6246 10.4683 13.6198 10.4256 13.6101C10.2213 13.5762 10.0314 13.5569 9.86037 13.5424H9.76537L9.50889 13.5182L9.43764 13.7698L9.4139 13.8618C9.05767 15.1347 8.16948 19.0745 7.94624 20.3184C7.72775 21.5284 7.0058 23.6483 6.74457 24.3598C6.30759 25.5553 5.21041 28.1592 4.68795 29.2434L4.6262 29.374L4.45996 29.7274L4.82569 29.8338L4.95868 29.8726C5.32441 29.9742 5.87537 30.0904 6.43109 30.1775C6.49283 30.1872 6.54983 30.1968 6.60682 30.2065C6.87756 30.2452 7.24328 30.2936 7.43802 30.2936H7.44277H7.44752H7.45702H7.46177H7.46652C7.58051 30.284 7.69451 30.2646 7.799 30.2356H7.818L7.8275 30.2307H7.837L7.88924 30.2114L8.03173 30.163L8.08873 30.0226L8.48296 29.074C8.50195 29.0256 8.5257 28.9772 8.54945 28.9142L8.5922 28.8078C8.88193 27.9946 9.3854 26.1651 9.59439 25.3665V25.3423L10.1264 23.5225L14.4058 26.9734C14.6243 27.1573 15.8782 28.1737 16.3675 28.406C16.5717 28.5028 16.7284 28.6238 16.8757 28.74L16.8852 28.7497V28.7545L16.9517 28.8078V28.8126L17.0134 28.8562L17.1844 28.9772L17.3649 28.8707L17.4314 28.832H17.4409L17.4504 28.8174L17.5691 28.7303L17.5834 28.7206L17.5976 28.7061H17.6024V28.6964C17.8921 28.4157 18.7043 27.3122 19.051 26.6878L19.1128 26.5765L19.2838 26.2667L18.9655 26.1215L18.8515 26.0683L18.8753 26.0538Z" fill="#D7000F"/>
</g>
<g id="Group_3">
<path id="Vector_10" d="M19.3978 15.8123C19.3693 15.8123 19.355 15.822 19.336 15.822C19.3075 15.8268 19.2743 15.8365 19.241 15.8317C19.1555 15.8268 19.1033 15.7591 19.0653 15.701C19.0083 15.6284 18.6948 15.2315 18.6426 15.1299C18.5761 14.9992 18.4051 14.6846 18.3386 14.5926C18.2578 14.4813 17.9681 13.7263 17.9111 13.5762L17.8636 13.4504L18.6331 13.3391L20.3097 13.0826L22.3093 12.8115L24.005 12.6663L24.9454 12.526L26.1043 12.3517C26.1043 12.3517 26.1518 12.3372 26.1851 12.342C26.2563 12.3469 26.3798 12.4001 26.3846 12.6615C26.3846 12.8938 26.3988 13.4165 26.4083 13.6585C26.4178 13.9683 26.4321 14.2877 26.4368 14.612C26.4368 14.9702 26.3893 15.4784 26.3418 15.972C26.3133 16.2624 26.2848 16.5335 26.2706 16.7513C26.2326 17.4144 26.1566 17.9177 26.0806 18.4453C26.0568 18.6244 26.0283 18.8035 26.0046 18.9971C25.9809 19.1616 25.9476 19.3262 25.9144 19.4907C25.8906 19.6117 25.8621 19.7279 25.8431 19.8441C25.8194 19.9989 25.7814 20.1296 25.7481 20.2506C25.7244 20.3329 25.7006 20.4152 25.6816 20.512C25.8146 20.6572 25.9381 20.7879 26.0568 20.9137C26.2373 21.0976 26.4036 21.2719 26.5746 21.48C26.9213 21.8962 27.3013 22.3996 27.5435 22.7335C27.5862 22.7916 27.8142 23.053 28.0327 23.3095C28.3557 23.6822 28.5694 23.929 28.6169 23.9968L28.6739 24.0791L27.0875 25.2987C27.0875 25.2987 27.0115 25.3713 26.9118 25.3617C26.869 25.3617 26.8025 25.3375 26.7456 25.2649C26.6173 25.1003 25.9096 24.2097 25.7576 24.021C25.7006 23.9532 25.6389 23.8806 25.5724 23.808C25.5106 23.7354 25.4489 23.6677 25.3871 23.5951C25.3064 23.4934 25.2114 23.4015 25.1259 23.3095C25.0737 23.2563 25.0214 23.2079 24.9739 23.1498C24.9217 23.2998 24.8694 23.445 24.8172 23.5902C24.7697 23.7209 24.7174 23.8564 24.6699 23.9968C24.5274 24.3937 24.3755 24.8051 24.1997 25.1535C24.0192 25.5117 23.8102 25.8069 23.6108 26.0973C23.5348 26.2038 23.4588 26.3151 23.3828 26.4265C23.2688 26.6007 23.1453 26.7701 23.0218 26.9298C22.9695 26.9976 22.8603 27.1428 22.6703 27.1815C22.6276 27.1912 22.5801 27.1912 22.5326 27.1863C22.4518 27.1815 22.3806 27.1573 22.3188 27.1331C22.2096 27.0944 21.9864 27.017 21.7441 26.9347C21.1979 26.7459 20.8559 26.6297 20.7372 26.5765L20.2575 26.3684L20.6042 25.9715C20.9034 25.6279 21.1409 25.2939 21.3689 24.9696C21.4306 24.8825 21.4924 24.7905 21.5589 24.7034C22.1051 23.9435 22.4708 23.3095 22.6798 22.7723C22.7131 22.69 22.7511 22.6077 22.7938 22.5157C22.8413 22.4141 22.8935 22.3076 22.9268 22.2108C23.0408 21.8769 23.15 21.5235 23.2498 21.1605C23.0408 20.9379 22.8555 20.783 22.6798 20.633C22.5753 20.5459 22.4756 20.4587 22.3711 20.3668L22.2998 20.3039C22.1431 20.1587 21.9864 20.0135 21.8296 19.8779C21.6349 19.7085 21.4639 19.5779 21.2976 19.4617C21.2122 19.4036 21.1219 19.3407 21.0317 19.2778C20.8037 19.1181 20.5424 18.9341 20.2717 18.7793C20.058 18.6583 19.9345 18.6195 19.8347 18.5905C19.7825 18.576 19.735 18.5566 19.6875 18.5373C19.5925 18.4937 19.5593 18.4259 19.545 18.3775C19.5165 18.242 19.6163 18.1065 19.7302 17.9661L20.1102 17.4773L20.7894 16.6932L21.2264 16.0446L21.9246 16.7222C22.0671 16.8578 22.2096 16.9836 22.3521 17.0998C22.5088 17.2353 22.6703 17.3708 22.8318 17.5354C23.0693 17.7725 23.2925 18.0048 23.5063 18.2323C23.6013 18.3291 23.6915 18.4308 23.7865 18.5276C23.8292 18.213 23.8672 17.8935 23.8957 17.5741C23.91 17.4144 23.9337 17.2595 23.9575 17.0998C23.9907 16.8868 24.0192 16.6642 24.0287 16.4367C24.0382 16.1995 24.0287 15.943 24.0145 15.6962C24.0097 15.5703 23.9907 15.2557 23.9907 15.1299L22.3473 15.2848L21.7774 15.3719L20.5852 15.5606L19.3883 15.8414" fill="#D7000F"/>
<g id="Group_4">
<path id="Vector_11" d="M32.3265 22.0414L32.2647 20.9911C32.2647 20.9185 32.1982 20.8604 32.127 20.8653L31.2768 20.933L30.3886 20.9814L29.4054 21.0879L28.2845 21.1799C28.2037 21.1847 28.142 21.267 28.1657 21.3493L28.4507 22.5448C28.4602 22.5932 28.5077 22.6222 28.5552 22.6174L29.7569 22.4722L31.158 22.3367L32.2077 22.1818C32.2742 22.1721 32.3265 22.1092 32.3217 22.0366L32.3265 22.0414Z" fill="#D7000F"/>
<path id="Vector_12" d="M35.295 22.1866L35.3045 22.0172C35.314 21.7897 35.3283 21.5526 35.3283 21.1557C35.3283 20.9621 35.3235 20.8847 35.314 20.7879C35.3093 20.7007 35.2998 20.5991 35.295 20.3668C35.295 20.1925 35.2808 20.0425 35.2618 19.7569C35.2475 19.4956 35.2285 19.2342 35.2238 19.0503L35.2048 18.5711C35.1953 18.3872 35.0528 18.2323 34.8723 18.2178C34.8533 18.2178 34.8343 18.2178 34.8153 18.2178L33.7751 18.2952L30.9823 18.6292L29.4956 18.7212L29.4149 17.2256L29.2106 15.9817L29.0824 14.1667L30.4171 14.1764L31.2815 14.1135L32.146 14.0506C32.146 14.1183 32.1555 14.1764 32.1602 14.2296C32.1697 14.3071 32.1745 14.3748 32.1792 14.4716C32.1792 14.6314 32.1887 14.8298 32.1935 15.0186C32.203 15.2702 32.2077 15.5026 32.203 15.6381C32.1792 16.2092 32.2267 16.5528 32.222 16.5577L32.1982 16.5819C32.1982 16.5819 32.1555 16.5964 32.108 16.6012C31.7945 16.6254 31.4858 16.6545 31.1295 16.6496L30.1463 16.6932L30.4693 17.2111L30.7258 17.6128L30.9015 17.9806C30.93 18.0387 30.9918 18.0774 31.0583 18.0678L31.3243 18.0387C31.5332 18.0387 31.7375 18.029 31.9322 18.0145C32.1935 17.9952 32.4404 17.9661 32.6732 17.9274C32.8869 17.8887 33.0722 17.8306 33.2194 17.758C33.3904 17.6709 33.5471 17.5305 33.6659 17.3514C33.8463 17.0998 33.9366 16.8723 33.9793 16.1995L33.9936 15.9866C34.0173 15.6816 34.0458 15.2606 34.0458 14.8637V14.8104C34.0458 14.3264 34.0458 13.6634 34.0268 13.039V12.705C34.0221 12.584 33.9793 12.463 33.8986 12.3711C33.7941 12.2549 33.6801 12.2162 33.5614 12.2259L33.0959 12.2598L32.127 12.3082L31.4098 12.405C31.5047 12.192 31.5997 11.9742 31.6852 11.7564L31.728 11.6451C31.7612 11.5628 31.7565 11.4708 31.709 11.3934C31.6615 11.3159 31.5855 11.2675 31.4952 11.2579L29.8091 11.1417L29.7426 11.4466C29.6571 11.8193 29.5526 12.192 29.4291 12.555L28.7404 12.5356L27.743 12.584L27.0828 12.6276C27.0305 12.6276 26.9783 12.6566 26.945 12.7002C26.9118 12.7438 26.8928 12.797 26.8975 12.8599L27.1018 14.0457L27.2585 15.4542L27.4153 17.2062L27.7192 19.3504L27.8047 20.3619C27.8142 20.4636 27.8902 20.5459 27.9947 20.5555H28.0185L29.6809 20.3474L30.9395 20.2603L32.2315 20.1006L33.3999 20.0231C33.3999 20.1732 33.3999 20.3087 33.3999 20.4394C33.3999 20.5604 33.3999 20.6717 33.3999 20.7927C33.4046 21.1218 33.3809 21.2719 33.3571 21.4219C33.3381 21.5235 33.3239 21.6203 33.3191 21.7607C33.3001 22.5496 33.2764 22.7577 33.2716 22.7965C33.2574 22.811 33.2479 22.8158 33.2479 22.8158C33.2479 22.8158 33.2146 22.8303 33.1101 22.84C32.6969 22.8691 32.2172 22.8884 31.69 22.8884H31.0345L31.0868 23.0385C31.0868 23.0385 31.2483 23.4692 31.4003 23.7935L31.6852 24.4808C31.709 24.5389 31.7707 24.5776 31.8325 24.5776L32.0747 24.5679C32.5069 24.5631 32.8774 24.5485 33.1766 24.5243C33.4236 24.505 33.6184 24.4808 33.7751 24.4566C34.0221 24.4179 34.2311 24.3501 34.4021 24.2533C34.5636 24.1613 34.7488 24.0597 34.8818 23.8661C34.9815 23.7306 35.0955 23.5709 35.1573 23.2756C35.219 22.9755 35.2903 22.5399 35.3045 22.1963L35.295 22.1866Z" fill="#D7000F"/>
</g>
<path id="Vector_13" d="M31.101 16.2721L31.6995 15.6768C31.7565 15.6429 31.6947 15.5897 31.6947 15.5897L31.633 15.5171C31.5237 15.3816 31.367 15.2267 31.1533 15.0428C30.9443 14.8685 30.74 14.704 30.5406 14.5636L30.4788 14.52C30.4171 14.4668 30.3791 14.5297 30.3791 14.5297L29.7901 15.0621C29.7901 15.0621 29.7141 15.1154 29.7759 15.1541L29.8946 15.246C30.0846 15.3961 30.2793 15.5606 30.4741 15.7349C30.6688 15.9091 30.816 16.0592 30.9205 16.185L31.0013 16.2818C31.0013 16.2818 31.0583 16.3254 31.101 16.2673V16.2721Z" fill="#D7000F"/>
</g>
<g id="Group_5">
<path id="Vector_14" d="M61.0479 8.7701C60.9576 8.50874 60.6964 8.42646 60.5587 8.3829H60.5397V8.37806C60.3687 8.32482 60.1977 8.2619 60.0457 8.20866C60.1217 8.08282 60.1977 7.94246 60.2784 7.79726L60.3782 7.61818C60.4922 7.4149 60.6014 7.21646 60.7344 7.06158C60.7344 7.06158 60.7439 7.0519 60.7439 7.04706C60.7534 7.03738 60.7629 7.02286 60.7724 7.01318L60.8294 6.9309C60.8294 6.9309 60.8579 6.89218 60.8674 6.86798C60.9481 6.7131 60.9386 6.53402 60.8437 6.38882C60.8104 6.34042 60.6442 6.09842 60.4352 5.9387C60.4114 5.91934 60.3924 5.89998 60.3639 5.88062C60.2547 5.78382 60.0884 5.63862 59.7417 5.44018C59.6562 5.37242 59.5422 5.3337 59.4187 5.34338C59.2335 5.36274 59.0958 5.44502 59.015 5.58538C59.0103 5.59506 59.0055 5.60474 59.0008 5.61442C58.977 5.66766 58.9628 5.72574 58.958 5.78382C58.9248 5.94354 58.882 6.10326 58.825 6.26298C58.7965 6.23394 58.7585 6.20974 58.7205 6.18554C58.4308 6.01614 57.6186 5.62894 57.2244 5.44502L56.9156 5.29498C56.5832 5.13526 56.2982 4.9949 55.98 4.82066L55.9467 4.80614L54.9778 4.35117C54.7878 4.25921 54.5503 4.32213 54.4363 4.50121C54.3413 4.64641 54.3033 4.85454 54.2653 5.14978C54.2558 5.2127 54.2511 5.27078 54.2416 5.3095C54.2321 5.35306 54.2368 5.39178 54.2036 5.4305C54.1703 5.47406 54.0991 5.44986 53.9376 5.41114C53.9091 5.4063 53.8758 5.39662 53.8473 5.38694L53.6716 5.3337C53.6004 5.30466 53.6289 5.23206 53.6526 5.18366L54.1181 4.19629C54.1798 4.08497 54.2416 3.96397 54.3033 3.83813C54.4031 3.63969 54.574 3.33961 54.6928 3.15085C54.6975 3.14117 54.707 3.13149 54.7165 3.12181C54.7973 3.01533 54.84 2.91853 54.878 2.80721C54.9018 2.72977 54.9588 2.46357 54.6928 2.25545C54.5978 2.15865 54.4791 2.09089 54.2653 1.97957C53.9613 1.81985 53.6621 1.68433 53.2916 1.53429L53.2299 1.51009C53.1681 1.48589 53.1016 1.45685 53.0399 1.43749C52.5982 1.18581 52.3987 1.45685 52.3464 1.54397C52.2229 1.75693 52.2087 1.98441 52.1897 2.18769C52.1849 2.27965 52.1755 2.37161 52.1612 2.42969C52.1422 2.50229 52.0995 2.58941 52.0567 2.67653L52.0377 2.72009C51.5865 2.59425 51.102 2.48777 50.6698 2.42485C50.8265 1.78597 51.0735 0.687285 50.2803 0.469485C49.9811 0.387205 49.6961 0.300085 49.3256 0.169404C49.3114 0.164564 49.2829 0.154884 49.2686 0.154884L49.1166 0.121004C49.1166 0.121004 49.0834 0.111324 49.0549 0.101644C48.7509 0.00968387 48.6369 -0.0193562 48.5087 0.00484387C48.3187 0.0387239 48.181 0.193604 48.162 0.387205C48.1192 0.832486 48.105 1.48589 48.1952 1.99409C48.219 2.11993 48.2142 2.29417 48.2142 2.45873C48.2142 2.57005 48.2142 2.67653 48.2142 2.77333C48.2142 2.87013 48.2284 2.97177 48.2379 3.07341C48.2522 3.21861 48.2664 3.35897 48.2569 3.47997C48.2522 3.57193 48.2379 3.63969 48.2237 3.71229C48.2 3.81393 48.1715 3.93977 48.1857 4.08981C48.1952 4.29793 48.1952 4.42377 48.1857 4.45281C48.162 4.56897 48.1715 4.66093 48.1762 4.72386C48.1762 4.73354 48.1762 4.74322 48.1762 4.75289C48.1762 4.77225 48.1715 4.79162 48.1667 4.81098C48.162 4.8497 48.1477 4.90778 48.1477 4.98038C47.8485 4.90294 47.5587 4.81582 47.2928 4.72386C47.2405 4.70449 47.2073 4.68997 47.1693 4.68029C47.041 4.63189 46.9175 4.58349 46.4283 4.45765L46.3903 4.44797C46.3001 4.41893 46.1576 4.38021 45.9486 4.38021C45.7871 4.38021 45.6399 4.46733 45.5591 4.6077C45.3881 4.90294 45.6161 5.41114 45.7681 5.68702C45.8014 5.7451 45.8299 5.81286 45.8631 5.8903C45.9296 6.05002 46.0151 6.2533 46.1861 6.50498C46.2098 6.5437 46.2431 6.57758 46.2811 6.60662L46.3096 6.63566C46.3476 6.67438 46.4141 6.72278 46.4616 6.74214C46.4616 6.74214 46.4663 6.74214 46.4711 6.74214C46.5471 6.77118 46.5756 6.77602 46.7608 6.78086H46.775C47.003 6.8099 47.288 6.8583 47.5825 6.91638C47.5492 7.0035 47.5397 7.10514 47.5682 7.1971C47.592 7.27938 47.611 7.33746 47.6252 7.3907C47.6917 7.62786 47.7202 7.70046 47.896 7.9715C47.9055 7.98602 47.9292 8.0199 47.9435 8.0441C47.9957 8.16026 48.067 8.25222 48.1382 8.31998C48.067 8.3587 48.0005 8.40226 47.896 8.47002L47.8532 8.49906C47.744 8.57166 47.6727 8.68782 47.6632 8.8185C47.649 9.04114 47.668 9.26378 47.687 9.46222C47.6965 9.57355 47.706 9.67519 47.706 9.75263C47.706 9.87847 47.7345 10.014 47.7582 10.1495C47.7725 10.2269 47.7915 10.3189 47.7915 10.3625C47.801 10.6819 48.0147 10.8465 48.2142 10.9384C48.3234 10.9868 48.4279 11.0159 48.4992 11.0304C48.5277 11.0352 48.5514 11.0449 48.5799 11.0497C48.8412 11.1272 49.4539 11.2433 50.0571 11.3547L50.3088 11.4031C50.6128 11.4612 50.7125 11.4805 50.8883 11.5096L50.931 11.5192C51.1353 11.5531 51.2018 11.5628 51.3015 11.5676C51.3395 11.5676 51.3822 11.5725 51.444 11.5822C51.5057 11.587 51.5485 11.5967 51.5912 11.6015C51.7147 11.6209 51.7955 11.6306 51.9807 11.6257C52.2514 11.6209 52.4034 11.4515 52.4889 11.3643C52.5032 11.3498 52.5127 11.3401 52.5269 11.3256C52.6267 11.2288 52.6742 11.1223 52.7217 11.0207L52.7549 10.9529C52.7882 10.8852 52.8119 10.8271 52.8309 10.7739C52.8309 10.7739 52.8879 10.648 53.0826 10.1543C53.0874 10.135 53.1159 10.1398 53.1159 10.1592C53.1254 10.3673 53.1586 10.9191 53.1681 10.9723C53.1871 11.1756 53.2631 11.3159 53.8188 11.5628C53.9138 11.6063 54.0278 11.6548 54.1561 11.708C54.3128 11.7709 54.5265 11.8338 54.7355 11.8919C54.878 11.9306 55.0253 11.9742 55.1155 12.0081L55.1583 12.0226C55.2723 12.0662 55.429 12.1242 55.619 12.1291C55.676 12.1291 55.7425 12.1194 55.809 12.1C55.8375 12.1436 55.866 12.1872 55.9087 12.221C56.0512 12.3372 56.075 12.3614 56.0845 12.3759C56.0987 12.3904 56.1082 12.405 56.1319 12.4243C56.1557 12.4485 56.1889 12.4776 56.2174 12.5066C56.3504 12.6373 56.5214 12.8018 56.7019 12.889C56.7019 12.889 56.7067 12.889 56.7114 12.889C57.0249 13.0342 57.2719 12.7825 57.4714 12.5792C57.5949 12.4534 57.7278 12.3082 57.7658 12.2598C57.8656 12.1388 57.9606 12.0226 58.0651 11.9064L58.0841 11.8822C58.1506 11.8 58.2171 11.7225 58.2836 11.6402C58.3738 11.5337 58.4641 11.4224 58.5543 11.3208C58.5828 11.2869 58.616 11.2579 58.6445 11.224C58.7775 11.0836 58.9485 10.9094 59.0245 10.6529C59.0815 10.4593 59.0008 10.2511 58.825 10.1447C58.939 9.99947 59.0435 9.82039 59.1528 9.63163C59.3617 9.73811 59.5897 9.83975 59.7655 9.90267C60.1074 10.0285 60.3877 9.78651 60.5919 9.60743C60.6204 9.58323 60.6442 9.56387 60.6679 9.54451C60.7724 9.45739 60.8579 9.3751 60.9909 9.19118C61.0811 9.07018 61.1049 8.91046 61.0574 8.76526L61.0479 8.7701Z" fill="white"/>
<g id="Group_6">
<path id="Vector_15" d="M51.216 7.08578C51.216 7.08578 51.2683 7.1003 51.2967 7.10998L51.4535 7.15354C51.4535 7.15354 51.6102 7.17774 51.6482 7.18258C52.1897 7.32294 53.0256 7.45362 53.3676 7.56978C53.3771 7.56978 53.6858 7.64722 53.6953 7.64238C53.8283 7.59398 53.9851 7.32294 54.0896 7.19226C54.4221 6.77602 54.4933 6.81474 54.0516 6.71794C53.4864 6.59694 52.1659 6.30654 52.0045 6.27266C51.9807 6.26782 51.5342 6.17102 51.5342 6.17102L51.3062 6.12746L50.8978 6.05002L50.665 6.00162L50.4751 5.95806L50.3611 5.92902L49.7246 5.80802C49.5061 5.7693 49.2829 5.73058 49.0596 5.66766C48.4564 5.5031 47.7487 5.34338 47.155 5.13525C46.9318 5.05781 46.946 5.03845 46.3286 4.87389C46.2383 4.84969 46.1433 4.81097 45.9628 4.81097C45.8393 4.81097 46.0911 5.37726 46.1481 5.4789C46.2716 5.70638 46.3096 5.92418 46.5423 6.26298C46.5423 6.26298 46.5518 6.26298 46.5565 6.26782L46.6278 6.34042C46.6278 6.34042 46.7845 6.3501 46.7893 6.3501H46.813C47.345 6.41302 48.1335 6.59694 48.6654 6.67922C49.0691 6.74214 49.5204 6.80506 49.9241 6.84378C49.9241 6.84378 49.9811 6.84862 50.0286 6.8583" fill="#D7000F"/>
<path id="Vector_16" d="M50.0428 6.83411V6.85347C50.0143 6.94543 49.8718 7.16807 49.8718 7.16807C49.8528 7.18743 49.8291 7.20679 49.8196 7.23583C49.8196 7.23583 49.7768 7.28907 49.7721 7.28907C49.7578 7.28907 49.7483 7.30359 49.7388 7.31811C49.6438 7.30359 49.3921 7.26487 49.3826 7.26003C49.2734 7.25035 49.0359 7.21163 48.9029 7.19227C48.7841 7.17775 47.9814 7.06643 47.9862 7.08095C48.1049 7.46815 48.0622 7.43911 48.2569 7.73435C48.2759 7.76339 48.3234 7.84083 48.3329 7.85051C48.4517 8.12155 48.6512 8.06831 48.9361 8.10703C49.3779 8.16511 50.1901 8.28611 50.6033 8.37807C50.7125 8.40227 51.2017 8.51843 51.292 8.57167C51.254 8.69751 51.1922 8.93467 51.0973 8.93467C50.7458 8.93467 50.1046 8.74107 49.8338 8.68783C49.5916 8.63943 49.3826 8.60071 49.0691 8.54747C48.9314 8.52327 48.7366 8.54747 48.5324 8.62007C48.3614 8.68299 48.3282 8.70719 48.1049 8.85723C48.0859 9.16215 48.1524 9.51063 48.1524 9.74779C48.1524 9.91235 48.2379 10.1786 48.2427 10.3431C48.2474 10.5319 48.5229 10.5658 48.7034 10.619C49.0311 10.711 50.0523 10.8997 50.3895 10.9626C50.7173 11.0256 50.8028 11.0401 51.0023 11.074C51.2872 11.1224 51.273 11.1127 51.4915 11.1369C51.7195 11.1611 51.748 11.1804 51.9664 11.1756C52.0709 11.1756 52.1232 11.0933 52.2134 11.0014C52.2704 10.9433 52.2989 10.8658 52.3559 10.7448C52.4367 10.5803 52.4367 10.5174 52.4604 10.4109C52.4699 10.3673 52.4414 10.4109 52.2657 10.3722C52.1184 10.3383 52.0234 10.3383 51.9807 10.3286C51.8145 10.2899 51.7575 10.3044 51.558 10.2415L50.8028 10.1205C50.5225 10.0769 49.3019 9.82039 49.3494 9.70423C49.4301 9.51063 49.3304 9.38963 49.4824 9.39931C49.6201 9.40415 50.2138 9.51063 50.3468 9.54451C50.57 9.60259 51.045 9.69455 51.2777 9.72843C51.6435 9.77683 51.6197 9.81071 51.8572 9.79619C51.9617 9.79135 52.0804 9.45739 52.2514 9.10891C52.4367 8.73623 52.8261 8.09735 52.7216 8.01507C52.5934 7.93763 52.4414 7.88439 52.2942 7.85051C52.0044 7.79243 51.2635 7.61335 51.0118 7.54559L51.0973 7.34715C51.0973 7.34715 51.2112 7.10515 51.254 7.01319" fill="#D7000F"/>
<path id="Vector_17" d="M48.6512 2.76849C48.6607 3.01533 48.7082 3.27185 48.6939 3.51869C48.6797 3.78973 48.6037 3.89622 48.6227 4.08014C48.6274 4.21082 48.6369 4.4625 48.6227 4.54478C48.6037 4.64642 48.6322 4.7287 48.6227 4.81098C48.5989 4.98038 48.5514 5.09654 48.6512 5.14494C49.0454 5.3337 49.4966 5.42566 49.7911 5.49342C50.1568 5.58054 50.7363 5.70638 51.1068 5.77898C51.4772 5.85642 51.8145 5.95806 52.3037 6.04518C52.3749 6.0597 52.5602 6.11778 52.6267 6.05486C52.8119 5.85642 53.0874 5.29498 53.2109 5.03846C53.3154 4.83034 53.3866 4.6077 53.4959 4.39958C53.6193 4.16726 53.7666 3.91558 53.9043 3.63485C54.0088 3.42189 54.1893 3.10729 54.3271 2.89917C54.365 2.84593 54.46 2.73461 54.479 2.67653C54.498 2.61845 54.441 2.61361 54.3983 2.56521C54.3603 2.52165 54.2701 2.47325 54.0801 2.37645C53.7618 2.21189 53.4674 2.07637 53.1491 1.95053C53.0589 1.91665 52.9686 1.87793 52.8736 1.84405C52.8546 1.83437 52.7454 1.76661 52.7359 1.78113C52.6124 1.98925 52.6599 2.31353 52.5934 2.56521C52.5554 2.70557 52.4889 2.83141 52.4272 2.96209C52.4272 2.96209 52.4272 2.96209 52.4272 2.96693C52.4272 2.96693 52.3797 3.20409 52.3797 3.21861C52.3417 3.25733 52.2087 3.22829 52.0899 3.19441C51.615 3.04921 51.0593 2.92337 50.57 2.86045C50.4323 2.84109 50.2803 2.82657 50.2376 2.77333C50.1901 2.72009 50.1758 2.69589 50.1853 2.62329C50.2423 2.30385 50.665 1.03093 50.1853 0.900248C49.8386 0.808288 49.5346 0.706648 49.1926 0.585648C49.1879 0.585648 49.0264 0.546928 49.0264 0.546928C48.9741 0.532408 48.6559 0.430767 48.6037 0.435607C48.5562 0.919609 48.5562 1.51009 48.6322 1.92633C48.6797 2.18285 48.6464 2.50713 48.6607 2.76365L48.6512 2.76849ZM50.0333 3.74617C50.0761 3.69777 50.2423 3.74617 50.3421 3.77038H50.3516C50.3516 3.77038 50.3563 3.77038 50.3611 3.77038L50.6888 3.80426L51.4487 3.95914C51.9095 4.06562 52.0424 4.0995 52.1089 4.12854C52.1422 4.1479 52.1517 4.15758 52.1517 4.15758C52.1517 4.15758 52.1517 4.16242 52.1517 4.16726C52.1327 4.21082 52.1232 4.23986 52.1137 4.25922C52.1137 4.27374 52.1089 4.28342 52.1089 4.28826C52.1089 4.29794 52.0899 4.3657 52.0614 4.45282C52.0329 4.53026 52.0045 4.62222 51.9665 4.69966C51.9475 4.74322 51.8857 4.85938 51.843 4.91262L51.8192 4.93198C51.7052 5.00458 51.387 4.93682 51.2113 4.86422C51.1828 4.85938 50.8123 4.78678 50.6935 4.76742C50.3658 4.71902 49.9573 4.66094 49.9573 4.45766C49.9573 4.44798 49.9573 4.44314 49.9526 4.43346C49.9193 4.24954 49.9526 3.94462 50.0001 3.81877C50.0096 3.78489 50.0238 3.76069 50.0428 3.74617H50.0333Z" fill="#D7000F"/>
<path id="Vector_18" d="M56.1414 11.1659C55.9705 11.1127 55.6475 10.982 55.467 10.9239C55.3198 10.8755 54.6975 10.7303 54.4363 10.5609C54.3698 10.5174 54.4458 10.4012 54.5456 10.2657C54.5456 10.2705 54.6595 10.2754 54.6548 10.2802C54.6548 10.2899 55.2343 10.4738 55.3055 10.498C55.4432 10.5464 55.6047 10.6238 55.8232 10.6529C55.8802 10.6577 55.9372 10.59 55.9752 10.527C56.1035 10.3092 56.2697 10.0721 56.3742 9.85428C56.4407 9.71876 56.4977 9.57839 56.5452 9.43319C56.4787 9.38963 56.3789 9.33639 56.3124 9.30251C56.1699 9.22507 56.1082 9.19603 55.9515 9.13795C55.448 8.94919 54.688 8.63459 54.1656 8.48939C54.0421 8.45551 54.1798 9.15731 54.2938 9.20087C54.7023 9.35575 54.8258 9.37995 55.0633 9.50095C55.1203 9.52999 55.3055 9.54452 55.372 9.5784C55.4575 9.62196 55.5952 9.68004 55.6285 9.69456C55.6237 9.70908 55.6142 9.72359 55.6047 9.74779C55.6 9.75747 55.5952 9.77199 55.5905 9.78167C55.562 9.83007 55.5382 9.85912 55.5097 9.86396C55.4907 9.8688 55.3483 9.8446 55.239 9.7962C55.1868 9.772 54.992 9.76232 54.8875 9.68972L54.4933 9.52515C54.4268 9.46707 54.3603 9.46223 54.2036 9.50095C54.0516 9.53483 53.9328 9.56387 53.8996 9.63647C53.8663 9.70907 53.8521 9.80588 53.7904 10.0382C53.7239 10.2899 53.5719 10.6771 53.5909 10.9384C53.5956 10.9917 54.0706 11.2095 54.2986 11.3014C54.5361 11.3982 55.0015 11.5096 55.2438 11.5967C55.3577 11.6354 55.4765 11.6886 55.619 11.6935C55.7377 11.6983 56.2222 11.4176 56.3172 11.2192C56.3267 11.1998 56.1604 11.1708 56.1414 11.1611V11.1659Z" fill="#D7000F"/>
<path id="Vector_19" d="M57.7516 10.0769C57.6186 10.0092 57.3764 9.91719 57.2291 9.84459C57.0961 9.77683 56.9679 9.70907 56.7446 9.62195C56.7114 9.60743 56.6782 9.70423 56.6449 9.75747C56.6354 9.77683 56.6307 9.78651 56.6212 9.81071C56.5784 9.91235 56.5072 10.0285 56.4597 10.1302C56.4502 10.164 56.8919 10.3673 56.9299 10.3818C57.0771 10.4544 57.3621 10.5464 57.4524 10.6916C57.4714 10.7448 57.1341 11.0691 57.0914 11.1175C56.9346 11.2966 56.7446 11.437 56.5689 11.5967C56.4549 11.6983 56.3124 11.829 56.1747 11.8919C56.3932 12.0662 56.3789 12.071 56.4169 12.1097C56.5357 12.221 56.7256 12.4292 56.8776 12.5018C56.9394 12.5308 57.3716 12.0516 57.4191 11.9936C57.5283 11.858 57.6328 11.737 57.7421 11.6064C57.9036 11.4176 58.0556 11.224 58.2171 11.0401C58.3548 10.8852 58.54 10.74 58.6018 10.5319C58.35 10.3818 58.0081 10.2173 57.7468 10.0866L57.7516 10.0769Z" fill="#D7000F"/>
<path id="Vector_20" d="M55.7995 8.73139C56.0464 8.79431 56.3884 8.85723 56.6354 8.91047C56.7731 8.93951 56.8586 8.97339 57.1721 8.96855C57.2196 8.96855 57.3051 8.81851 57.3336 8.77495C57.4001 8.68299 57.5996 8.47003 57.6803 8.36839C57.7373 8.29579 57.4951 8.31515 57.2434 8.23771C57.0581 8.18447 56.8729 8.13123 56.6876 8.07799C56.5784 8.04411 56.4644 8.02959 56.3504 7.99571C56.0369 7.91343 55.7615 7.77307 55.4527 7.68595C55.4622 7.66659 55.4955 7.57947 55.4955 7.57947C55.5477 7.46331 55.6332 7.25035 55.6855 7.12935C55.7567 6.97447 55.8849 6.70827 55.9799 6.56307L56.0797 6.59695C56.6829 6.78087 56.9774 6.95027 57.3336 7.05191C57.3336 7.05191 57.6091 7.17291 57.6043 7.17291L57.6993 7.20679C57.6993 7.20679 57.8466 7.27455 57.8513 7.27455C57.9796 7.27455 58.1031 7.12451 58.2123 7.05191C58.3405 6.96963 58.445 6.86799 58.559 6.76635C58.6303 6.70827 58.6683 6.63567 58.578 6.58243C58.2503 6.39367 57.0819 5.85158 56.8919 5.75962C56.5024 5.57086 56.1652 5.41114 55.7852 5.20302L54.8163 4.74806C54.745 4.85938 54.7118 5.26594 54.6833 5.41114C54.6453 5.58538 54.6405 5.68702 54.6168 5.9387C54.6025 6.05487 54.7355 6.0839 54.8448 6.12747C54.8875 6.14683 54.9018 6.11779 54.9208 6.15167C54.9493 6.20491 54.783 6.55339 54.764 6.61147C54.6833 6.88251 54.5645 7.29875 54.4458 7.55527C54.3603 7.73435 54.3745 7.71499 54.3175 7.89407C54.2178 8.20867 54.2083 8.18931 54.8448 8.41195C55.1535 8.52327 55.486 8.64911 55.8042 8.73139H55.7995Z" fill="#D7000F"/>
<path id="Vector_21" d="M60.4162 8.79431C60.2119 8.72655 60.0077 8.65395 59.8082 8.58135C59.699 8.54263 59.4947 8.47971 59.3855 8.43615C59.4092 8.40227 59.433 8.36355 59.452 8.32483C59.4662 8.29579 59.4805 8.27643 59.4852 8.27159C59.6277 8.09735 59.8462 7.66659 59.9602 7.46815C60.0979 7.22615 60.2309 6.97447 60.4114 6.76634L60.4209 6.75666L60.4827 6.67438C60.4874 6.6647 60.4922 6.65018 60.4827 6.6405C60.4399 6.57758 60.3069 6.3985 60.1692 6.29202C60.0362 6.19038 59.9269 6.04034 59.4662 5.7935C59.4662 5.7935 59.471 5.7935 59.4757 5.7935C59.4425 5.7935 59.414 5.79834 59.3997 5.82254C59.3997 5.82738 59.395 5.83706 59.395 5.84674V5.88062C59.3285 6.21942 59.2192 6.5437 59.0767 6.85346C58.825 7.38103 58.5163 7.89891 58.2313 8.40227C58.1458 8.55231 57.9416 8.91531 57.8608 9.07019C57.8181 9.15731 57.7753 9.23475 57.7183 9.31219C57.6328 9.42835 57.6233 9.44771 57.5093 9.54935C57.4761 9.58323 57.4524 9.60743 57.4429 9.62195C57.4334 9.64131 57.4286 9.65583 57.4334 9.66067C57.6566 9.82523 58.0841 9.92203 58.293 10.0382C58.407 10.1011 58.7585 9.42835 58.8868 9.22507C58.844 9.29767 58.8155 9.35091 58.9865 9.07987C59.243 9.22507 59.6562 9.42351 59.9032 9.51547C60.0267 9.55903 60.2357 9.34607 60.3829 9.22507C60.4542 9.16699 60.5112 9.11375 60.6299 8.95403C60.6774 8.88627 60.4827 8.83303 60.4114 8.81367L60.4162 8.79431Z" fill="#D7000F"/>
</g>
</g>
<path id="Vector_22" d="M49.4349 16.8723L49.4539 16.8916C49.4539 16.8916 49.4539 16.8916 49.4586 16.8965C49.5251 16.9497 49.6106 16.94 49.6486 16.9304H49.6676C49.7958 16.9158 49.8718 16.9062 50.0143 16.8868H50.0476C50.2138 16.8578 50.4608 16.819 50.9548 16.7561C51.0735 16.7416 51.121 16.7319 51.1828 16.7174L51.3395 16.6884C51.4012 16.6787 51.463 16.669 51.5247 16.6593L51.368 17.1191L51.3395 17.1966C51.2635 17.4047 51.1923 17.5838 51.2872 17.6951C51.3205 17.7338 51.3632 17.758 51.4155 17.7628C51.4297 17.7628 51.4487 17.7628 51.463 17.7628C51.501 17.758 51.5437 17.7532 51.6007 17.7532H51.6102H51.6197C51.767 17.7435 51.9522 17.7338 52.1564 17.6564C52.2847 17.608 52.3559 17.4337 52.4319 17.2111C52.4509 17.1482 52.4699 17.0804 52.4937 17.003V16.9788C52.5412 16.8336 52.5934 16.6593 52.6837 16.4173C52.7217 16.3157 52.7549 16.2092 52.7881 16.1076L52.8736 15.8317C53.0589 15.2799 53.1396 15.0476 53.1871 14.9218C53.2441 14.7669 53.2679 14.6991 53.3011 14.5733V14.5539C53.3249 14.5152 53.3676 14.4039 53.2869 14.3119C53.2821 14.3022 52.6029 13.5375 52.3797 13.5762C52.3797 13.5762 52.3749 13.5762 52.3702 13.5762L52.3227 13.5908C52.2989 13.6004 52.2752 13.615 52.2657 13.644L52.2514 13.6827C52.2087 13.7989 52.1754 13.9925 52.1422 14.2151V14.2442C52.1089 14.4281 52.0709 14.6846 52.0187 14.8782L51.8335 15.58C51.6625 15.6042 51.482 15.6284 51.292 15.6429L50.2043 15.7107C50.0333 15.7252 49.8196 15.7107 49.6249 15.7058H49.5821C49.3636 15.6913 49.1546 15.6816 49.0264 15.7058H49.0169L48.9694 15.7204C48.9409 15.73 48.9219 15.7494 48.9124 15.7736L48.9029 15.8075C48.8222 16.0204 49.4111 16.8578 49.4206 16.8674C49.4206 16.8674 49.4254 16.8723 49.4301 16.8771L49.4349 16.8723Z" fill="#D7000F"/>
<path id="Vector_23" d="M50.1473 14.3168C50.1473 14.3168 50.2043 14.3603 50.2471 14.3603C50.3468 14.3845 50.4323 14.4232 50.5083 14.4813C50.5083 14.4813 50.5131 14.4813 50.5178 14.4862C50.6318 14.5781 50.7458 14.6991 50.836 14.7911L50.8978 14.8588C50.8978 14.8588 51.1305 15.2025 51.1638 15.2315C51.1638 15.2315 51.1685 15.2412 51.1733 15.2412C51.1733 15.2412 51.178 15.246 51.1828 15.2509L51.2445 15.2993C51.2445 15.2993 51.273 15.3186 51.292 15.3186C51.3158 15.3186 51.3443 15.3138 51.3633 15.2944L51.4108 15.246C51.5057 15.1492 51.6197 14.9847 51.7242 14.8443L51.824 14.704C51.938 14.5442 51.7812 14.3748 51.6862 14.2684L51.6387 14.2151C51.5437 14.1183 51.4535 14.0022 51.3775 13.9005L51.0545 13.4891L51.026 13.4456C51.026 13.4456 51.0165 13.431 51.007 13.4262L50.9548 13.3875C50.9263 13.3633 50.8835 13.3633 50.8503 13.3875L50.8123 13.4165C50.76 13.4504 50.6176 13.5762 50.5368 13.6537L50.4846 13.7021C50.4086 13.7698 50.3136 13.8618 50.1331 14.0748C50.0761 14.1474 50.0808 14.2442 50.1331 14.3071C50.1331 14.3071 50.1378 14.3168 50.1426 14.3168H50.1473Z" fill="#D7000F"/>
<path id="Vector_24" d="M36.1215 14.4039C36.1595 14.4184 36.1927 14.4281 36.2307 14.4281C36.2735 14.4281 36.3162 14.4281 36.3495 14.4281L36.6962 14.4184H36.7104C36.9147 14.399 37.4514 14.37 38.3063 14.3361C38.4773 14.3264 38.5676 14.3264 38.6388 14.3264H38.6578C38.7623 14.3264 38.8431 14.3264 39.1138 14.3071C39.6932 14.2683 39.8072 14.278 39.9022 14.2829H39.9165C39.983 14.2877 40.0542 14.2925 40.2157 14.2829H40.249C40.7002 14.2587 41.0564 14.2296 41.1989 14.0893C41.4981 13.7989 41.6501 13.5085 41.7689 13.2761C41.8116 13.1939 41.8496 13.1116 41.8924 13.0487C41.9636 12.9422 41.9494 12.8309 41.9114 12.7728C41.8069 12.584 41.5504 12.584 40.9377 12.6276L40.7524 12.6373C40.4864 12.6469 40.3202 12.6518 40.1825 12.6615L39.9307 12.6711L39.8832 12.555C39.793 12.3517 39.717 12.1291 39.6505 11.9064L39.3608 11.0352L39.3418 10.9529L39.223 10.7593L39.071 10.7981C38.976 10.8223 38.6816 10.9384 38.5106 11.0159L38.3966 11.0643C38.2493 11.1272 38.0451 11.2143 37.6319 11.4515C37.5179 11.5289 37.4751 11.6644 37.5321 11.7854C37.5606 11.8387 37.5986 11.8725 37.6509 11.8919C37.8029 11.9887 37.9264 12.1145 38.0166 12.2549C38.0878 12.3662 38.1496 12.4921 38.2113 12.6131L37.8836 12.5889C37.4514 12.5889 36.9289 12.5453 36.4682 12.5066C35.9647 12.463 35.5325 12.4243 35.2713 12.4485C35.181 12.4533 35.1003 12.5114 35.067 12.5985C34.9245 12.9615 35.998 14.3022 36.0075 14.3119C36.036 14.3458 36.0692 14.37 36.1167 14.3942L36.1215 14.4039Z" fill="#D7000F"/>
<path id="Vector_25" d="M47.5777 21.8043L47.5635 21.7849C47.3355 21.4703 47.0743 21.1073 46.8843 20.7879L46.2383 19.8537C46.1623 19.723 46.1053 19.6262 46.0531 19.5391C46.3143 19.6214 46.4473 19.6456 46.528 19.665L46.5945 19.6795C46.7038 19.7037 46.8938 19.7376 46.9555 19.7376L47.1075 19.7279L47.1455 19.5972L47.2357 18.9583C47.2452 18.9002 47.25 18.8373 47.2642 18.7792L47.2832 18.7405L47.782 16.214L47.8105 16.1172C47.9197 15.7591 47.934 15.7107 47.877 15.6284L47.8295 15.5558L47.7487 15.5413C47.3355 15.4832 46.7893 15.4251 46.3903 15.4058C46.338 15.4058 46.1528 15.3864 45.9628 15.367L45.8108 15.3525L45.8773 14.6846C46.0436 14.6943 46.1053 14.7088 46.1623 14.7185C46.2193 14.7282 46.2811 14.7378 46.4188 14.7524H46.4473C46.8843 14.7814 47.1312 14.7766 47.2547 14.6798C47.5255 14.4716 47.6727 14.2442 47.7962 14.0602C47.8342 14.0022 47.877 13.9344 47.9197 13.886C47.9909 13.8037 47.9862 13.7069 47.9624 13.6488C47.8912 13.4794 47.6775 13.4552 47.1645 13.4359L46.5328 13.3972C46.3808 13.3875 46.2478 13.3778 46.0008 13.3536L46.0246 13.0293L46.0341 12.9422C46.0483 12.8212 46.0626 12.6712 45.9771 12.5647C45.7776 12.313 44.6852 11.3547 44.3384 11.4563C44.2482 11.4805 44.1864 11.5579 44.1769 11.6499C44.1389 11.9597 44.1389 12.4679 44.1437 13.0584C43.9157 13.0196 43.6877 12.9712 43.4882 12.9325C43.0655 12.8454 42.7188 12.7825 42.505 12.7728C42.429 12.7728 42.3578 12.8115 42.3151 12.8841C42.1678 13.1745 42.9325 14.3845 42.9373 14.3942C43.0133 14.5055 43.1415 14.5104 43.2222 14.5152H43.2745L43.4977 14.5394H43.5072C43.5452 14.5394 43.6497 14.5394 44.1294 14.5733C44.1294 14.7378 44.1199 14.9121 44.1104 15.067L44.1009 15.2412C43.9205 15.2315 43.7732 15.217 43.6307 15.2073L43.4597 15.188C43.1843 15.1589 42.8993 15.1347 42.6285 15.1105L42.4528 15.096L42.429 15.2751C42.4148 15.4009 42.41 15.4929 42.4053 15.5848L42.2391 18.0871C42.2248 18.2614 42.2486 18.4162 42.2771 18.576C42.2913 18.6776 42.3103 18.7696 42.3103 18.8664V19.0212L42.467 19.0454C42.8138 19.0938 43.0418 19.118 43.2602 19.1374H43.3125C43.227 19.2487 43.1273 19.3794 42.9563 19.5875L42.1536 20.4297C41.9208 20.7104 41.5979 21.0395 41.3366 21.3009L41.2939 21.3445C41.0184 21.6252 40.7762 21.8672 40.6574 22.0414C40.6099 22.1043 40.6052 22.1915 40.6384 22.2592C40.6622 22.3076 40.7097 22.3463 40.7904 22.3802C41.1419 22.5351 42.1013 22.5787 42.2106 22.5787C42.3388 22.5787 42.4148 22.477 42.467 22.4044L42.6475 22.1818C42.676 22.1382 42.7615 22.0172 43.4645 21.0976C43.5452 20.9911 43.5927 20.9331 43.6307 20.8847L43.6592 20.8508C43.6877 20.8169 43.7115 20.7878 43.7495 20.7394L43.6402 21.9204C43.6402 21.9785 43.6165 22.0801 43.5927 22.1915L43.5832 22.2399C43.4787 22.7529 43.4217 23.1014 43.5927 23.2708C43.6402 23.3143 43.6972 23.3385 43.759 23.3434C43.797 23.3434 43.835 23.3434 43.873 23.3337C43.9252 23.3192 43.9869 23.3095 44.0392 23.295C44.3099 23.2369 44.6424 23.1691 45.0224 22.7239C45.1459 22.5787 45.2029 22.1963 45.2741 21.4413L45.2836 21.359C45.2931 21.2331 45.3026 21.0879 45.3121 20.9331C45.3216 20.9524 45.3311 20.9669 45.3406 20.9863L45.4879 21.2477C46.0483 22.2786 46.1101 22.4044 46.1338 22.4528L46.2716 22.69C46.3096 22.7626 46.3665 22.8836 46.4995 22.9029C46.5138 22.9029 47.9055 23.0965 48.0954 22.8352C48.1429 22.7723 48.1524 22.6851 48.1144 22.6125C48.0147 22.4189 47.8057 22.1285 47.5682 21.7897L47.5777 21.8043ZM43.6735 18.0242C43.5785 18.0194 43.4835 18.0097 43.4122 18.0048L43.4265 17.7435C43.4645 16.8626 43.5215 16.4706 43.5595 16.3544C43.626 16.3544 43.7257 16.3641 43.816 16.3689C43.9062 16.3738 43.9869 16.3786 44.0344 16.3834H44.0439L43.9585 18.0387C43.873 18.0339 43.7732 18.0242 43.6735 18.0194V18.0242ZM45.5591 18.1646L45.5923 17.7144L45.6493 17.0417L45.6873 16.5286L46.0816 16.5625H46.1148C46.2003 16.5722 46.3713 16.5819 46.4853 16.5916C46.4853 16.5916 46.4853 16.5964 46.4853 16.6012C46.4805 16.64 46.4663 16.7029 46.4615 16.7222C46.4615 16.7222 46.4378 16.7706 46.4283 16.8045V16.8142C46.4045 16.9594 46.2526 17.8742 46.1766 18.2033L45.5638 18.1646H45.5591ZM45.9058 19.2729C45.9058 19.2729 45.9058 19.2681 45.9058 19.2632H45.9106V19.2729H45.9058Z" fill="#D7000F"/>
<path id="Vector_26" d="M41.5979 19.3746L41.6121 19.3407C41.6406 19.2729 41.6644 19.2197 41.6976 19.1713C41.7688 19.0503 41.7118 18.9535 41.6976 18.9244C41.5884 18.7696 41.3556 18.7889 40.8094 18.8664L40.6432 18.8857C40.3724 18.9148 40.2917 18.9293 40.2204 18.939C40.1777 18.9486 40.1397 18.9535 40.002 18.968L40.0827 18.605C40.0922 18.5227 40.1302 18.2662 40.1444 18.0532C40.1777 18.0532 40.2062 18.0532 40.2347 18.0532H40.2489C40.3059 18.0532 40.3724 18.0532 40.5102 18.0339H40.5434C40.9424 17.9855 41.2559 17.9371 41.3746 17.8064C41.6169 17.545 41.7261 17.2934 41.8163 17.0949L41.8258 17.0707C41.8591 16.9933 41.8876 16.9304 41.9161 16.8771C41.9636 16.7948 41.9636 16.7029 41.9161 16.6303C41.8116 16.4802 41.5789 16.4948 41.0421 16.5674L40.6622 16.6158L40.6859 16.4996C40.7382 16.2431 40.7952 15.9817 40.8854 15.7397C40.9471 15.5751 41.0516 15.4154 41.1799 15.2847L41.2654 15.2218L41.2844 15.1444C41.3081 15.0331 41.2369 14.9217 41.1134 14.8782C40.6527 14.7378 40.4199 14.6991 40.2442 14.6701L40.1159 14.6507C39.9165 14.612 39.584 14.5636 39.4842 14.5587C39.3892 14.5587 39.3085 14.6217 39.28 14.7136V14.762L39.2753 14.8201L39.185 15.6332L39.1755 15.7542C39.1518 15.9962 39.128 16.2479 39.071 16.4899L39.052 16.5964C39.0425 16.6448 39.033 16.6932 39.0235 16.7368H38.8573C38.8335 16.6884 38.805 16.64 38.7813 16.5916L38.729 16.4948C38.6198 16.306 38.5248 16.0882 38.4488 15.9091L38.1163 15.1686L38.0973 15.1008L37.9738 14.9411L37.8456 14.9847C37.7601 15.0137 37.4941 15.1395 37.3421 15.2218L37.2424 15.2751C37.1189 15.338 36.9289 15.4299 36.5584 15.6816C36.4587 15.7542 36.4349 15.8801 36.4919 15.9817C36.5109 16.0107 36.5442 16.0543 36.6107 16.0688C36.7627 16.1463 36.8909 16.2479 36.9859 16.3738C37.0809 16.4948 37.1616 16.6254 37.2471 16.7658H37.0666C36.5822 16.761 36.2164 16.761 35.9885 16.79C35.9077 16.8045 35.846 16.8529 35.8175 16.9352C35.789 17.0272 35.8127 17.1966 36.2307 17.7193C36.4634 18.0097 36.7152 18.2856 36.7722 18.334C36.8672 18.4259 36.9954 18.4114 37.0904 18.3969L37.2614 18.3824C37.3611 18.3775 37.3659 18.3775 37.4039 18.3678C37.4561 18.3582 37.6081 18.334 38.3491 18.2517C38.3253 18.4598 38.2968 18.7115 38.2683 19.0019C37.9976 19.0067 37.7126 19.0019 37.4371 19.0019H37.4134C36.9384 18.997 36.5537 18.997 36.3209 19.0309C36.2402 19.0406 36.1784 19.0987 36.1499 19.1761C36.0455 19.5004 37.1141 20.5942 37.1236 20.6039C37.2234 20.7007 37.3611 20.6814 37.4419 20.6668L37.6129 20.6523C37.7126 20.6475 37.7174 20.6475 37.7458 20.6378L37.9216 20.6136C37.7553 21.146 37.0761 22.7626 36.9716 22.9658C36.9099 23.082 36.8862 23.1352 36.8909 23.1933V23.2417L36.9241 23.2901C36.9574 23.3385 37.0049 23.3627 37.0809 23.3966L37.1094 23.4111C37.1569 23.4305 37.2186 23.4498 37.2804 23.4692C37.4419 23.5079 37.6604 23.537 37.8646 23.5563C38.0878 23.5757 38.2873 23.5805 38.3538 23.5708C38.4156 23.566 38.4726 23.5515 38.539 23.5273C38.7813 23.4402 38.8288 23.2708 38.8668 23.1352V23.1256C38.881 23.0772 38.8905 23.0288 38.9143 22.99C39.0093 22.7964 39.3607 21.6881 39.5555 21.0444L39.698 20.4103L40.0685 20.3619C40.1207 20.3764 40.1872 20.3619 40.2774 20.3571H40.3059C40.7097 20.3038 41.0279 20.2603 41.1514 20.1248C41.4031 19.8489 41.5219 19.5778 41.6074 19.3794L41.5979 19.3746Z" fill="#D7000F"/>
<path id="Vector_27" d="M56.9109 19.1422C56.8634 19.0503 56.6687 19.0213 56.2982 18.9922C56.2032 18.9825 56.1225 18.9777 56.0702 18.968L55.391 18.847H55.372C54.9588 18.7696 54.5266 18.6921 54.0658 18.5953L51.4772 18.0194C51.0878 17.9371 50.2946 17.6854 49.8861 17.5692C49.4729 17.4482 49.0834 17.3369 48.8649 17.303L48.8174 17.2934L48.7937 17.3321C48.7224 17.4676 49.0454 18.271 49.2211 18.513C49.2496 18.5518 49.3066 18.5663 49.4016 18.5808L49.4586 18.5905C49.7484 18.6486 49.9383 18.6824 50.3943 18.7647L51.8905 19.0842L51.577 19.4423C51.2873 19.3891 50.9168 19.3165 50.722 19.2729L50.6176 19.2536C50.2281 19.1664 49.8291 19.0793 49.4444 19.0019L49.3779 18.9922L49.3636 19.0503C49.3304 19.1955 49.3066 19.3068 49.2876 19.4278L49.2496 19.6311C49.2069 19.815 49.1356 20.3087 49.0691 20.7491C49.0264 21.0444 48.9837 21.3251 48.9647 21.4074C48.9504 21.4751 48.9409 21.5477 48.9314 21.6155L48.8269 22.5254C48.8269 22.5254 48.8222 22.5593 48.8174 22.5738V22.6271L48.8649 22.6416C49.2591 22.7481 49.5679 22.8207 49.8624 22.8739C50.5368 23.0046 51.3348 23.1159 51.7432 23.1595C51.9142 23.1788 52.0567 23.1933 52.1755 23.2127C52.3417 23.2369 52.5839 23.2756 52.8879 23.3289C53.2536 23.3918 53.6669 23.4547 54.0468 23.5128C53.9851 23.5902 53.9993 23.5805 53.9091 23.6386L53.8188 23.7015L53.9233 23.7499C54.2368 23.8951 54.3983 23.9435 54.5313 23.9871L54.612 24.0113C54.745 24.0597 54.9398 24.1178 55.0205 24.1323L55.0918 24.1468L55.125 23.9919L55.277 23.4644L55.296 23.3869C55.334 23.2466 55.372 23.1014 55.4242 22.9562V22.9465L55.467 22.84L55.4907 22.7723C55.5145 22.6948 55.5525 22.5932 55.5667 22.5109L56.0655 20.9476L56.0892 20.8895L56.1367 20.783C56.1889 20.6669 56.2839 20.4587 56.3077 20.3813L56.3267 20.3184L56.2602 20.299C55.7377 20.1587 55.0395 20.0038 54.5171 19.9118L53.9756 19.8247C53.9993 19.7473 54.0468 19.5827 54.0753 19.4714C54.4648 19.5391 54.7878 19.6117 55.0585 19.6698C55.2295 19.7085 55.3767 19.7376 55.5002 19.7618L55.543 19.7715C55.9657 19.8441 56.2269 19.8828 56.3219 19.8392C56.6639 19.6843 56.7637 19.5004 56.8492 19.331L56.9062 19.2245C56.9299 19.1858 56.9347 19.1471 56.9157 19.118L56.9109 19.1422ZM52.8119 19.2778L52.9924 19.3068L53.2156 19.3504C53.1871 19.4472 53.1539 19.5682 53.1111 19.7231L52.8547 19.6795L52.7929 19.665L52.5222 19.6069L52.8119 19.2778ZM50.1093 21.1557L50.2233 20.5894C50.3326 20.2603 50.4561 20.1103 50.5273 20.1151L50.9358 20.2022L50.1141 21.1557H50.1093ZM54.3176 22.6125L54.2416 22.8013L53.6906 22.7093H53.6764C51.3633 22.327 50.1426 22.114 49.9668 22.0559C49.9858 21.9785 50.0333 21.7849 50.0476 21.6881L52.1897 22.0656L52.3844 22.1043C52.5507 22.1334 52.7264 22.1673 52.8974 22.1963C53.2631 22.2544 53.5196 22.3076 53.7286 22.3512L54.0041 22.4093H54.0231C54.1276 22.4286 54.2653 22.4528 54.3793 22.4577L54.3223 22.6125H54.3176ZM54.5931 21.9349L54.5788 21.9785L54.5028 21.964L54.3983 21.9495L53.9281 21.8672C53.6479 21.8188 53.3581 21.7704 53.0494 21.7075L52.014 21.4558L51.6577 21.3735L51.0545 21.238L51.8335 20.3716L52.1992 20.4539L52.4367 20.5168C52.5079 20.5313 52.6599 20.5604 52.8927 20.5943L52.8832 20.6281L52.8737 20.6523C52.8452 20.7395 52.8167 20.8266 52.7977 20.9185L52.7882 20.9573C52.7739 21.0202 52.7597 21.0831 52.7549 21.1702V21.2138L52.7929 21.2331C52.9402 21.3009 53.0874 21.3396 53.2441 21.3832L53.4199 21.4316C53.6621 21.5042 53.7381 21.5139 53.9328 21.5429L54.0516 21.5574L54.3081 21.6058C54.4316 21.63 54.5693 21.6591 54.6928 21.6784L54.6025 21.9301L54.5931 21.9349ZM54.3223 20.8217C54.5361 20.8605 54.6975 20.8992 54.8258 20.9427C54.8495 20.9621 54.8875 21.0637 54.8638 21.2041L54.5218 21.1218C54.2511 21.0541 53.9946 20.996 53.6669 20.8895C53.6621 20.8605 53.6621 20.7927 53.6716 20.7201C53.9566 20.7637 54.1988 20.8024 54.3176 20.8217H54.3223Z" fill="#D7000F"/>
<path id="Vector_28" d="M57.8941 16.7222L57.8561 16.7077C57.7468 16.669 57.5568 16.6254 57.3384 16.577C57.1341 16.5335 56.9014 16.4802 56.7162 16.427L55.7282 16.1366C55.9752 16.0737 56.1224 16.0253 56.1177 15.914V15.7591C56.1177 15.5703 56.1129 15.338 56.0749 15.1928C56.0749 15.1783 56.0512 15.125 55.9752 15.1444C55.9562 15.1444 55.9325 15.1589 55.8992 15.1783C55.828 15.2218 55.8185 15.2267 55.7377 15.2557C55.6855 15.2751 55.638 15.2848 55.581 15.2944C55.5192 15.3041 55.4575 15.3235 55.4005 15.338L55.277 15.3719C54.916 15.4542 54.2368 15.5606 53.8996 15.6042C53.7001 15.6332 53.4959 15.6284 53.3011 15.6042H53.2869L53.2536 15.5945H53.2346C53.1871 15.609 53.1539 15.6574 53.1539 15.7107C53.1966 15.9962 53.2441 16.1318 53.2774 16.2286L53.3059 16.3012C53.3439 16.4173 53.4151 16.6061 53.4484 16.6545C53.4531 16.6642 53.4816 16.698 53.5481 16.6835L53.6051 16.6642L54.384 16.4367L54.498 16.4028L54.555 16.4222L54.7545 16.4851L54.7878 16.4948C54.7165 16.5093 54.5835 16.5383 54.498 16.5577L54.4268 16.577C54.3365 16.5964 54.2131 16.6254 53.9566 16.7126C53.9091 16.7319 53.8853 16.7706 53.8901 16.8142C53.8948 16.8384 53.9091 16.8529 53.9281 16.8626C53.9993 16.9158 54.0516 16.9836 54.0801 17.0562C54.0991 17.1046 54.1133 17.1627 54.1228 17.2111L54.0136 17.2256C53.6953 17.2643 53.3819 17.274 53.0874 17.2546H53.0494H53.0066C52.9591 17.2643 52.9069 17.303 52.9069 17.3708C52.9591 17.6273 53.0256 17.7435 53.0731 17.8306L53.1064 17.8935C53.1586 18 53.2631 18.1597 53.3106 18.2033C53.3391 18.2323 53.3819 18.2226 53.4009 18.2178L53.4864 18.1984C53.5291 18.1936 54.5788 18.0484 54.7118 18.0194L54.9635 17.9661C55.41 17.8693 56.0844 17.729 56.4407 17.6709L56.6069 17.637C56.9061 17.5838 57.1484 17.5402 57.2434 17.4821C57.2576 17.4821 57.2719 17.4773 57.2814 17.4724C57.3906 17.4095 57.8941 16.9255 57.8798 16.7852L57.8703 16.7319L57.8941 16.7222ZM54.9065 17.0998V16.9497L54.8923 16.5722V16.5432C54.9873 16.577 55.22 16.6351 55.3435 16.6787C55.467 16.7271 55.5905 16.7658 55.714 16.8045L55.9135 16.8723L56.0987 16.94C55.8565 16.9788 55.353 17.0417 54.9113 17.0998H54.9065Z" fill="#D7000F"/>
<g id="Group_7">
<path id="Vector_29" d="M22.2761 30.5647L23.6677 29.9161L25.5819 34.6448L24.7839 35.0175L23.929 33.3332L22.7843 33.9333L23.473 35.6273L22.675 36L20.8227 32.3894C20.6184 31.9828 20.3999 31.736 20.172 31.6488C20.1577 31.6488 20.1435 31.6343 20.1387 31.6198C20.1245 31.5908 20.1387 31.5666 20.1672 31.552L21.5636 30.8986L22.3188 32.7766L23.4255 32.3506L22.8413 31.2084C22.6608 30.9132 22.4756 30.7292 22.2903 30.6566C22.2761 30.6469 22.2666 30.6373 22.2618 30.6227C22.2476 30.5937 22.2571 30.5695 22.2856 30.5598L22.2761 30.5647Z" fill="#FFF100"/>
<path id="Vector_30" d="M26.3513 30.2936C26.85 30.1145 27.306 30.1387 27.724 30.3759C28.1372 30.6131 28.4364 30.9857 28.6217 31.5036C28.8069 32.0215 28.8116 32.5055 28.6407 32.9605C28.4697 33.4154 28.1324 33.7349 27.6337 33.9188C27.135 34.1027 26.6743 34.0785 26.2563 33.8462C25.8383 33.6139 25.5344 33.2364 25.3491 32.7233C25.2446 32.4377 25.2019 32.1522 25.2066 31.8715C25.2161 31.5907 25.2826 31.3342 25.4061 31.1067C25.4584 31.0148 25.4726 30.9373 25.4489 30.8744C25.4346 30.8309 25.3966 30.797 25.3444 30.7728C25.3301 30.7728 25.3159 30.7583 25.3111 30.7389C25.3016 30.7099 25.3111 30.6857 25.3444 30.676L26.3371 30.3081H26.3561L26.3513 30.2936ZM26.6363 33.0282C26.85 33.1589 27.0828 33.1783 27.3297 33.0863C27.5767 32.9944 27.743 32.8298 27.8237 32.5878C27.9045 32.3458 27.895 32.0893 27.7952 31.8085C27.6955 31.5327 27.5387 31.3245 27.325 31.1939C27.1113 31.0632 26.8785 31.0438 26.6315 31.1358C26.3845 31.2277 26.2183 31.3923 26.1376 31.6343C26.0568 31.8763 26.0663 32.1328 26.1661 32.4087C26.2658 32.6894 26.4225 32.8927 26.6363 33.0234V33.0282Z" fill="#FFF100"/>
<path id="Vector_31" d="M29.8661 27.83C29.9706 28.2269 30.0798 28.6674 30.1986 29.1369L31.1153 28.8949L31.3338 29.8048L30.4598 30.1436L30.8018 31.4939C30.8113 31.5278 30.8208 31.5617 30.8303 31.5956C30.8588 31.7021 30.8968 31.7795 30.9348 31.8279C30.9728 31.8763 31.0298 31.8957 31.101 31.8957C31.1248 31.8957 31.1485 31.8908 31.1723 31.8811C31.272 31.8521 31.3528 31.7795 31.4193 31.6633L31.7802 31.9973C31.6615 32.4087 31.424 32.6652 31.0725 32.7717C30.8018 32.854 30.5738 32.8346 30.4028 32.7088C30.2271 32.5878 30.0703 32.3216 29.9231 31.9102C29.8851 31.8037 29.8091 31.5956 29.6999 31.2761C29.5906 30.9615 29.5051 30.7099 29.4481 30.5356L28.7927 30.797L28.3367 29.6354L29.0634 29.4418C28.9827 29.2046 28.9399 29.0788 28.9352 29.0691C28.8782 28.9094 28.7927 28.769 28.6834 28.6432C28.5742 28.5173 28.4744 28.4254 28.3794 28.3721C28.3699 28.3673 28.3604 28.3576 28.3557 28.3431C28.3462 28.3092 28.3557 28.2898 28.3842 28.2802L28.7879 28.1592L29.8614 27.8349L29.8661 27.83Z" fill="#FFF100"/>
<path id="Vector_32" d="M35.1762 28.7351C36.0834 28.8077 36.6012 29.1949 36.7389 29.8967C36.7389 29.8967 36.7436 29.9355 36.7531 29.9935C36.8054 30.3856 36.7104 30.7486 36.4682 31.0874C36.2259 31.4262 35.8602 31.644 35.3662 31.7408C34.6965 31.8763 34.1598 31.7408 33.7608 31.3245C33.6278 31.189 33.5281 31.0341 33.4569 30.8647C33.3904 30.6953 33.3381 30.5501 33.3096 30.434C33.2811 30.3178 33.2431 30.2452 33.2051 30.2162C33.1909 30.2113 33.1814 30.1968 33.1766 30.1775C33.1719 30.1436 33.1861 30.1242 33.2194 30.1194L34.3735 29.8871C34.3593 29.95 34.3545 29.9984 34.3545 30.0323C34.3545 30.0855 34.3545 30.1387 34.364 30.1871C34.402 30.3856 34.497 30.5211 34.6538 30.6034C34.7678 30.6615 34.9103 30.676 35.0765 30.6421C35.2047 30.6179 35.314 30.5695 35.409 30.4969C35.4802 30.4388 35.5372 30.3662 35.5657 30.2743C35.5942 30.1823 35.6037 30.1 35.5895 30.0129V29.9984C35.5467 29.7999 35.3995 29.6789 35.1382 29.6305C35.105 29.6209 35.01 29.6112 34.858 29.5918C34.706 29.5725 34.5635 29.5531 34.4353 29.5337C34.307 29.5144 34.1551 29.4757 33.9793 29.4176C33.8036 29.3595 33.6516 29.2917 33.5233 29.2095C33.3951 29.1272 33.2716 29.011 33.1624 28.8658C33.0531 28.7206 32.9771 28.5464 32.9391 28.3528C32.9391 28.3334 32.9296 28.3141 32.9296 28.2995C32.8869 27.9995 32.9154 27.7236 33.0294 27.4719C33.1386 27.2202 33.3001 27.0266 33.5043 26.8766C33.7133 26.7314 33.9508 26.6297 34.2216 26.5765H34.2263C34.7868 26.4603 35.238 26.4991 35.58 26.6878C35.9219 26.8766 36.1357 27.1767 36.2212 27.5881C36.2212 27.5881 36.2212 27.5977 36.2212 27.6074C36.2354 27.6752 36.2402 27.7575 36.2402 27.8494L35.2285 28.0527C35.2285 28.0188 35.2237 27.9849 35.2142 27.9462C35.181 27.7623 35.0622 27.6461 34.8723 27.5929C34.782 27.5687 34.6728 27.5687 34.5445 27.5929C34.5065 27.6026 34.4685 27.6123 34.4353 27.6219C34.3308 27.6558 34.2453 27.7187 34.1788 27.8059C34.1123 27.893 34.0886 27.9995 34.1028 28.1205C34.1028 28.1447 34.1123 28.164 34.1123 28.1737C34.1456 28.3334 34.2406 28.4593 34.4068 28.5512C34.573 28.6432 34.8248 28.7013 35.1715 28.7303L35.1762 28.7351Z" fill="#FFF100"/>
<path id="Vector_33" d="M38.7433 27.3122L39.9117 27.2347L40.2347 30.9664L39.4082 31.068L39.3512 30.7437C39.1518 31.0099 38.8858 31.1648 38.5485 31.2132C38.539 31.2132 38.5295 31.2132 38.52 31.2132C38.3443 31.2374 38.1638 31.2132 37.9928 31.1552C37.8171 31.0971 37.6509 31.0003 37.4941 30.8647C37.3374 30.7292 37.2044 30.5405 37.0904 30.3033C36.9764 30.0613 36.9051 29.7806 36.8672 29.466C36.8387 29.2095 36.8387 28.9723 36.8814 28.7593C36.9194 28.5464 36.9811 28.3625 37.0619 28.2173C37.1426 28.0721 37.2424 27.9462 37.3611 27.8446C37.4799 27.7381 37.5986 27.6607 37.7221 27.6074C37.8456 27.5542 37.9643 27.5203 38.0878 27.5058C38.1068 27.5058 38.1211 27.5058 38.1401 27.5009C38.2018 27.5009 38.2588 27.5009 38.3111 27.5009C38.3633 27.5009 38.4108 27.5106 38.4535 27.5203C38.4963 27.53 38.5343 27.5397 38.5675 27.5493C38.6008 27.559 38.634 27.5735 38.6625 27.5881C38.691 27.6026 38.7148 27.6171 38.729 27.6268C38.7433 27.6365 38.7623 27.6461 38.7813 27.6607C38.8003 27.6752 38.8098 27.6849 38.8098 27.6897L38.7433 27.317V27.3122ZM38.653 30.5211C38.8668 30.4969 39.0188 30.3856 39.109 30.1968C39.1993 30.0081 39.223 29.6983 39.1708 29.2821C39.1708 29.2821 39.1708 29.2724 39.1708 29.2675C39.128 28.9191 39.033 28.6577 38.8858 28.4883C38.7385 28.3189 38.5628 28.2463 38.3633 28.2705C38.3633 28.2705 38.3538 28.2705 38.3443 28.2705C38.1448 28.2995 38.0023 28.4157 37.9073 28.619C37.8171 28.8223 37.7886 29.0788 37.8171 29.3837C37.8171 29.4031 37.8171 29.4224 37.8171 29.4418C37.8598 29.7854 37.9548 30.0565 38.1068 30.2549C38.2588 30.4533 38.4393 30.5405 38.6435 30.5163L38.653 30.5211Z" fill="#FFF100"/>
<path id="Vector_34" d="M43.0275 29.9597L42.733 27.0702L43.9109 27.0121L43.9727 30.7631L43.113 30.8018L43.1035 30.7244C42.7995 30.8115 42.524 30.8647 42.277 30.8744C41.3461 30.918 40.8189 30.4195 40.6906 29.3692C40.6764 29.2337 40.6479 28.9529 40.6051 28.5319C40.5624 28.1108 40.5292 27.8252 40.5054 27.68C40.4864 27.5155 40.4152 27.3751 40.3012 27.2589C40.2869 27.2493 40.2822 27.2347 40.2822 27.2154C40.2822 27.1815 40.2964 27.167 40.3249 27.1621H40.3297L41.6358 27.0992C41.6501 27.9559 41.6596 28.6287 41.6691 29.1127C41.6691 29.1272 41.6691 29.1417 41.6691 29.1562C41.6786 29.4127 41.7593 29.6257 41.9066 29.7854C42.0538 29.95 42.2818 30.0226 42.6048 30.0081C42.7378 30.0032 42.8755 29.979 43.0275 29.9451V29.9597Z" fill="#FFF100"/>
<path id="Vector_35" d="M44.7991 27.5542C45.1554 27.1767 45.6256 26.9976 46.2003 27.0073C46.4663 27.0121 46.7465 27.0605 47.0458 27.1525L46.9318 28.1979C46.7655 28.1398 46.585 28.1059 46.3808 28.1011C46.0436 28.0914 45.7776 28.1882 45.5876 28.3867C45.4166 28.5609 45.3311 28.7932 45.3216 29.0788C45.3216 29.2966 45.3596 29.4853 45.4546 29.6451C45.5686 29.8435 45.7206 29.9887 45.9201 30.071C46.1148 30.1533 46.3618 30.2017 46.6658 30.2065C46.6848 30.2065 46.699 30.2065 46.718 30.2065L46.6278 30.8454C46.566 30.8454 46.49 30.8454 46.3998 30.8454C46.1481 30.8405 45.9201 30.8163 45.7206 30.7728C45.0841 30.6469 44.6567 30.2743 44.4382 29.6596C44.3479 29.4079 44.3052 29.1465 44.3099 28.8755C44.3147 28.6141 44.3622 28.3625 44.4572 28.1253C44.5474 27.8881 44.6662 27.6945 44.8039 27.5493L44.7991 27.5542Z" fill="#FFF100"/>
<path id="Vector_36" d="M50.1046 27.5784C50.532 27.9559 50.722 28.435 50.6745 29.011C50.665 29.132 50.646 29.253 50.6128 29.374C50.5795 29.495 50.5558 29.5821 50.5273 29.6354L50.4893 29.7225L48.1999 29.4708C48.2997 30.0613 48.7604 30.3953 49.5868 30.4679C49.6058 30.4679 49.6201 30.4679 49.6343 30.4679L49.4918 31.0003C49.3209 31.0196 49.1451 31.0196 48.9694 31.0003C48.8506 30.9906 48.7366 30.9712 48.6226 30.947C48.3377 30.8793 48.0859 30.7437 47.8579 30.5453C47.6347 30.342 47.4685 30.0613 47.364 29.6935C47.2832 29.4127 47.2547 29.132 47.2785 28.8513C47.2975 28.5996 47.3592 28.3673 47.4542 28.1543C47.5492 27.9414 47.6632 27.772 47.8057 27.6364C47.9814 27.4622 48.1904 27.3364 48.4327 27.2541C48.6701 27.1718 48.9171 27.1428 49.1641 27.1621C49.5251 27.196 49.8433 27.3267 50.1093 27.5638L50.1046 27.5784ZM48.2047 28.8852L49.7293 28.8997C49.7293 28.8997 49.7246 28.8561 49.7198 28.8271C49.7198 28.7981 49.7056 28.7448 49.6771 28.6674C49.6486 28.5899 49.6153 28.5222 49.5726 28.4592C49.5298 28.3963 49.4633 28.3431 49.3731 28.2898C49.2829 28.2366 49.1784 28.2076 49.0596 28.1979C49.0359 28.1979 49.0169 28.1979 48.9931 28.193C48.8601 28.193 48.7414 28.2124 48.6369 28.2657C48.5324 28.3141 48.4517 28.377 48.3899 28.4544C48.3329 28.527 48.2854 28.6045 48.2522 28.6771C48.2189 28.7497 48.1999 28.8223 48.1952 28.8852H48.2047Z" fill="#FFF100"/>
</g>
<path id="Vector_37" d="M35.713 21.1266C35.713 21.1266 35.7175 21.1312 35.7219 21.1358C35.7219 21.1358 35.7175 21.1312 35.713 21.1266Z" fill="white"/>
</g>
<defs>
<clipPath id="clip0_361_138">
<rect width="63" height="36" fill="white"/>
</clipPath>
</defs>
</svg>
