<svg width="311" height="30" viewBox="0 0 311 30" fill="none" xmlns="http://www.w3.org/2000/svg">
<g clip-path="url(#clip0_457_1868)">
<rect y="3.33337" width="3" height="23.3333" rx="1" fill="white"/>
<rect x="7" y="6" width="3" height="18" rx="1" fill="white"/>
<rect x="14" y="7.66663" width="3" height="14.6667" rx="1" fill="white"/>
<rect x="21" y="4.83337" width="3" height="20.3333" rx="1" fill="white"/>
<rect x="28" y="10" width="3" height="10" rx="1" fill="white"/>
<rect x="35" y="8" width="3" height="14" rx="1" fill="white"/>
<rect x="42" y="6.5" width="3" height="17" rx="1" fill="white"/>
<rect x="49" y="10.1666" width="3" height="9.66667" rx="1" fill="white"/>
<rect x="56" y="2.5" width="3" height="25" rx="1" fill="white"/>
<rect x="63" y="6.83337" width="3" height="16.3333" rx="1" fill="white"/>
<rect x="70" y="3.16663" width="3" height="23.6667" rx="1" fill="white"/>
<rect x="77" y="9" width="3" height="12" rx="1" fill="white"/>
<rect x="84" y="4.66663" width="3" height="20.6667" rx="1" fill="white"/>
<rect x="91" y="11.3334" width="3" height="7.33333" rx="1" fill="white"/>
<rect x="98" y="2.66663" width="3" height="24.6667" rx="1" fill="white"/>
<rect x="105" y="8.83337" width="3" height="12.3333" rx="1" fill="white"/>
<rect x="112" y="11.3334" width="3" height="7.33333" rx="1" fill="white"/>
<rect x="119" y="6.83337" width="3" height="16.3333" rx="1" fill="white"/>
<rect x="126" y="4.83337" width="3" height="20.3333" rx="1" fill="white"/>
<rect x="133" y="8.5" width="3" height="13" rx="1" fill="white"/>
<rect x="140" y="11" width="3" height="8" rx="1" fill="white"/>
<rect x="147" y="6.66663" width="3" height="16.6667" rx="1" fill="white"/>
<rect x="154" y="9.66663" width="3" height="10.6667" rx="1" fill="white"/>
<rect x="161" y="5.83337" width="3" height="18.3333" rx="1" fill="white"/>
<rect x="168" y="9.33337" width="3" height="11.3333" rx="1" fill="white"/>
<rect x="175" y="1.83337" width="3" height="26.3333" rx="1" fill="white"/>
<rect x="182" y="9.66663" width="3" height="10.6667" rx="1" fill="white"/>
<rect x="189" y="0.666626" width="3" height="28.6667" rx="1" fill="white"/>
<rect x="196" y="11.3334" width="3" height="7.33333" rx="1" fill="white"/>
<rect x="203" y="5.66663" width="3" height="18.6667" rx="1" fill="white"/>
<rect x="210" y="8.16663" width="3" height="13.6667" rx="1" fill="white"/>
<rect x="217" y="2.5" width="3" height="25" rx="1" fill="white"/>
<rect x="224" width="3" height="30" rx="1" fill="white"/>
<rect x="231" y="5" width="3" height="20" rx="1" fill="white"/>
<rect x="238" y="7.33337" width="3" height="15.3333" rx="1" fill="white"/>
<rect x="245" y="2.16663" width="3" height="25.6667" rx="1" fill="white"/>
<rect x="252" y="11.6666" width="3" height="6.66667" rx="1" fill="white"/>
<rect x="259" y="5.83337" width="3" height="18.3333" rx="1" fill="white"/>
<rect x="266" y="8" width="3" height="14" rx="1" fill="white"/>
<rect x="273" y="11.1666" width="3" height="7.66667" rx="1" fill="white"/>
<rect x="280" y="7.66663" width="3" height="14.6667" rx="1" fill="white"/>
<rect x="287" y="8" width="3" height="14" rx="1" fill="white"/>
<rect x="294" y="2.66663" width="3" height="24.6667" rx="1" fill="white"/>
<rect x="301" y="9.66663" width="3" height="10.6667" rx="1" fill="white"/>
<rect x="308" y="7.57495" width="3" height="14.85" rx="1" fill="white"/>
<rect x="308" y="3.33337" width="3" height="23.3333" rx="1" fill="white"/>
</g>
<defs>
<clipPath id="clip0_457_1868">
<rect width="311" height="30" fill="white"/>
</clipPath>
</defs>
</svg>
