<svg width="90" height="90" viewBox="0 0 90 90" fill="none" xmlns="http://www.w3.org/2000/svg">
<path d="M44.8544 89.7089C69.6269 89.7089 89.7089 69.6269 89.7089 44.8544C89.7089 20.082 69.6269 0 44.8544 0C20.082 0 0 20.082 0 44.8544C0 69.6269 20.082 89.7089 44.8544 89.7089Z" fill="#C71D23"/>
<path fill-rule="evenodd" clip-rule="evenodd" d="M67.5585 39.8714H42.0858C40.8627 39.872 39.8711 40.8634 39.8702 42.0865L39.8687 47.6238C39.8678 48.8471 40.8593 49.8391 42.0826 49.8394C42.0824 49.84 42.0828 49.8394 42.0826 49.8394L57.591 49.8387C58.8143 49.8386 59.806 50.8303 59.806 52.0536C59.806 52.0536 59.806 52.0536 59.806 52.0536L59.806 52.6074V53.1611C59.806 56.8311 56.8309 59.8062 53.1609 59.8062H32.1165C30.8934 59.8061 29.9018 58.8146 29.9017 57.5914L29.9012 36.5491C29.9009 32.8791 32.8759 29.904 36.5459 29.9039C36.5458 29.9037 36.5459 29.9039 36.5459 29.9039L67.5524 29.9041C68.7751 29.9027 69.7666 28.9118 69.7688 27.689L69.7722 22.1517C69.7743 20.9284 68.7832 19.9361 67.5599 19.9353C67.5595 19.9353 67.559 19.9353 67.5585 19.9367H36.548C27.373 19.9367 19.9353 27.3744 19.9353 36.5493V67.5585C19.9353 68.7819 20.927 69.7736 22.1503 69.7736H54.8225C63.0797 69.7736 69.7736 63.0797 69.7736 54.8225V42.0865C69.7736 40.8631 68.7819 39.8714 67.5585 39.8714Z" fill="white"/>
</svg>
