<svg width="330" height="322" viewBox="0 0 330 322" fill="none" xmlns="http://www.w3.org/2000/svg">
<path d="M165 0.833313C143.441 0.833313 122.094 5.07961 102.176 13.3298C82.2585 21.5799 64.1609 33.6723 48.9166 48.9166C18.1294 79.7038 0.833311 121.46 0.833311 165C0.74447 199.416 11.4744 232.991 31.5065 260.977C51.5386 288.963 79.8597 309.945 112.467 320.958C120.675 320.958 123.958 317.675 123.958 312.75V284.842C77.9916 296.333 68.1416 263.5 68.1416 263.5C61.575 243.8 51.725 238.875 51.725 238.875C35.3083 229.025 51.725 229.025 51.725 229.025C68.1416 229.025 76.35 245.442 76.35 245.442C91.125 271.708 115.75 263.5 125.6 260.217C125.6 248.725 130.525 242.158 135.45 237.233C99.3333 233.95 59.9333 220.817 59.9333 156.792C59.9333 138.733 66.5 123.958 76.35 112.467C76.35 107.542 69.7833 91.125 79.6333 68.1416C79.6333 68.1416 92.7666 64.8583 123.958 84.5583C150.818 77.148 179.182 77.148 206.042 84.5583C238.875 64.8583 252.008 68.1416 252.008 68.1416C260.217 91.125 253.65 107.542 252.008 112.467C263.5 123.958 268.425 138.733 268.425 156.792C268.425 219.175 230.667 233.95 194.55 238.875C201.117 242.158 206.042 252.008 206.042 268.425V312.75C206.042 317.675 209.325 322.6 217.533 320.958C283.2 299.617 329.167 238.875 329.167 165C329.167 143.441 324.92 122.094 316.67 102.176C308.42 82.2585 296.328 64.1609 281.083 48.9166C265.839 33.6723 247.741 21.5799 227.824 13.3298C207.906 5.07961 186.559 0.833313 165 0.833313Z" fill="black"/>
</svg>
